v 0.119667 1.25591 -0.0538563
v 0.0873034 1.25591 -0.0984004
v 0.0992945 1.30387 -0.111398
v 0.135932 1.30387 -0.0609699
v 0.131114 1.25591 -0
v 0.148892 1.30387 0
v 0.102482 1.18836 -0.0461063
v 0.0747758 1.18836 -0.0842406
v 0.0396203 1.25591 -0.12593
v 0.0453134 1.30387 -0.142563
v 0.114774 1.35853 -0.128484
v 0.157032 1.35853 -0.0703213
v 0.119667 1.25591 0.0538563
v 0.135932 1.30387 0.0609699
v 0.112282 1.18836 0
v 0.171979 1.35853 0
v 0.0339544 1.18836 -0.107809
v 0.138373 1.14451 -0.0622764
v 0.10095 1.14451 -0.113785
v -0.0151376 1.25591 -0.131686
v -0.0166772 1.30387 -0.149079
v 0.0525138 1.35853 -0.16443
v 0.128119 1.42381 -0.143305
v 0.175251 1.42381 -0.0784333
v 0.0873034 1.25591 0.0984006
v 0.0992945 1.30387 0.111398
v 0.102482 1.18836 0.0461063
v 0.157032 1.35853 0.0703215
v 0.15161 1.14451 -0
v 0.191923 1.42381 0
v -0.0129237 1.18836 -0.112736
v 0.0458124 1.14451 -0.145619
v 0.125702 1.11497 -0.0565622
v 0.0917131 1.11497 -0.103344
v -0.0675023 1.25591 -0.114671
v -0.0759584 1.30387 -0.129817
v -0.018985 1.35853 -0.171945
v 0.0586767 1.42381 -0.183398
v 0.132671 1.49387 -0.14836
v 0.181466 1.49387 -0.0812001
v 0.0396203 1.25591 0.12593
v 0.0453134 1.30387 0.142564
v 0.0747758 1.18836 0.0842406
v 0.114774 1.35853 0.128484
v 0.138373 1.14451 0.0622764
v 0.175251 1.42381 0.0784333
v 0.137725 1.11497 -0
v 0.198725 1.49387 0
v -0.0577531 1.18836 -0.0981698
v -0.0175066 1.14451 -0.152274
v 0.0416345 1.11497 -0.132257
v 0.194639 1.08062 -0.0877081
v 0.141934 1.08062 -0.160251
v -0.10842 1.25591 -0.0778291
v -0.12228 1.30387 -0.0881091
v -0.0873587 1.35853 -0.149729
v -0.0210696 1.42381 -0.191779
v 0.0607788 1.49387 -0.189867
v 0.128119 1.56392 -0.143305
v 0.175251 1.56392 -0.0784333
v -0.0151376 1.25591 0.131686
v -0.0166772 1.30387 0.149079
v 0.0339544 1.18836 0.107809
v 0.0525135 1.35853 0.16443
v 0.10095 1.14451 0.113785
v 0.128119 1.42381 0.143305
v 0.125702 1.11497 0.0565622
v 0.181466 1.49387 0.0812003
v 0.213283 1.08062 -0
v 0.191923 1.56392 0
v -0.0927824 1.18836 -0.0666295
v -0.0780583 1.14451 -0.132599
v -0.0158743 1.11497 -0.138301
v 0.06428 1.08062 -0.205084
v 0.194639 1.04994 -0.0877081
v 0.141934 1.04994 -0.160251
v -0.130814 1.25591 -0.0275297
v -0.147633 1.30387 -0.0311661
v -0.140785 1.35853 -0.101623
v -0.0973307 1.42381 -0.167001
v -0.0217808 1.49387 -0.198545
v 0.0586767 1.56392 -0.183398
v 0.114774 1.6292 -0.128484
v 0.157032 1.6292 -0.0703213
v -0.0675025 1.25591 0.114671
v -0.0759584 1.30387 0.129817
v -0.0129239 1.18836 0.112736
v -0.018985 1.35853 0.171945
v 0.045812 1.14451 0.145619
v 0.0586765 1.42381 0.183398
v 0.0917131 1.11497 0.103344
v 0.132671 1.49387 0.14836
v 0.194639 1.08062 0.0877081
v 0.175251 1.56392 0.0784333
v 0.213283 1.04994 -0
v 0.171979 1.6292 0
v -0.111954 1.18836 -0.0235681
v -0.125373 1.14451 -0.0899972
v -0.0708699 1.11497 -0.120432
v -0.0248965 1.08062 -0.214457
v 0.06428 1.04994 -0.205084
v 0.170581 1.03268 -0.0768672
v 0.124391 1.03268 -0.140443
v -0.130814 1.25591 0.0275297
v -0.147633 1.30387 0.0311661
v -0.170027 1.35853 -0.0359461
v -0.15692 1.42381 -0.113346
v -0.100732 1.49387 -0.172892
v 0.000188772 1.56392 -0.189545
v -0.0211673 1.55429 -0.19271
v 0.0525138 1.6292 -0.16443
v 0.0935453 1.68526 -0.104906
v 0.128048 1.68526 -0.0574172
v -0.10842 1.25591 0.0778291
v -0.12228 1.30387 0.0881091
v -0.0577531 1.18836 0.0981698
v -0.0873587 1.35853 0.149729
v -0.0175068 1.14451 0.152274
v -0.0210698 1.42381 0.191779
v 0.0416345 1.11497 0.132257
v 0.0607788 1.49387 0.189867
v 0.141934 1.08062 0.160251
v 0.128119 1.56392 0.143305
v 0.194639 1.04994 0.0877081
v 0.157032 1.6292 0.0703215
v 0.18692 1.03268 0
v 0.140253 1.68526 0
v -0.111954 1.18836 0.0235681
v -0.151269 1.14451 -0.0318338
v -0.113843 1.11497 -0.0817394
v -0.110175 1.08062 -0.186749
v -0.0248965 1.04994 -0.214457
v 0.0563346 1.03268 -0.179735
v 0.128243 1.01582 -0.0577884
v 0.0935165 1.01582 -0.105585
v -0.170027 1.35853 0.0359461
v -0.189535 1.42381 -0.0400928
v -0.162424 1.49387 -0.117344
v -0.0973307 1.56392 -0.167001
v -0.0667639 1.56392 -0.176932
v -0.0507255 1.53404 -0.185128
v 0.010875 1.56826 -0.18712
v -0.0155526 1.61749 -0.175102
v -0.0191452 1.62419 -0.173469
v -0.018985 1.6292 -0.171945
v 0.0427098 1.68526 -0.134256
v 0.0658791 1.73944 -0.07418
v 0.0902763 1.73944 -0.0406001
v -0.0927824 1.18836 0.0666295
v -0.140785 1.35853 0.101623
v -0.0780583 1.14451 0.132599
v -0.0973307 1.42381 0.167001
v -0.0158743 1.11497 0.138301
v -0.0217808 1.49387 0.198545
v 0.0642798 1.08062 0.205084
v 0.0586765 1.56392 0.183398
v 0.141934 1.04994 0.160251
v 0.114774 1.6292 0.128484
v 0.170581 1.03268 0.0768672
v 0.128048 1.68526 0.0574172
v 0.140526 1.01582 0
v 0.0989063 1.73944 0
v -0.151269 1.14451 0.0318338
v -0.137363 1.11497 -0.0289129
v -0.176811 1.08062 -0.126749
v -0.110175 1.04994 -0.186749
v -0.0218193 1.03268 -0.18795
v 0.0423523 1.01582 -0.135124
v 0.121536 0.97487 -0.0547662
v 0.0886259 0.97487 -0.100063
v -0.189535 1.42381 0.0400928
v -0.196189 1.49387 -0.0415071
v -0.15692 1.56392 -0.113346
v -0.0905586 1.60826 -0.155271
v -0.0905165 1.60818 -0.15531
v -0.0218374 1.6292 -0.171018
v -0.0156686 1.68526 -0.140392
v 0.0299329 1.73944 -0.0949336
v 0.0336611 1.78159 -0.0383985
v 0.0462901 1.78159 -0.0210161
v -0.125373 1.14451 0.0899972
v -0.15692 1.42381 0.113346
v -0.0708699 1.11497 0.120432
v -0.100732 1.49387 0.172892
v -0.0248965 1.08062 0.214457
v -0.0211675 1.55429 0.19271
v 0.000188329 1.56392 0.189545
v 0.0642798 1.04994 0.205084
v 0.0525135 1.6292 0.16443
v 0.124391 1.03268 0.140443
v 0.0935453 1.68526 0.104906
v 0.128243 1.01582 0.0577884
v 0.0902763 1.73944 0.0406001
v 0.133177 0.97487 0
v 0.0507573 1.78159 0
v -0.137363 1.11497 0.0289129
v -0.213283 1.08062 -0.0448339
v -0.176811 1.04994 -0.126749
v -0.0965573 1.03268 -0.163666
v -0.0164037 1.01582 -0.1413
v 0.0401374 0.97487 -0.128058
v 0.122652 0.874144 -0.0552694
v 0.08944 0.874144 -0.100982
v -0.196189 1.49387 0.0415071
v -0.189535 1.56392 -0.0400928
v -0.140785 1.6292 -0.101623
v -0.101802 1.6292 -0.136724
v -0.0907918 1.60869 -0.154886
v -0.0519252 1.68526 -0.128612
v -0.0113469 1.73944 -0.0992723
v 0.0150542 1.78159 -0.0491412
v 0.0336611 1.78642 -0.0383985
v 0.0462901 1.78642 -0.0210161
v -0.113843 1.11497 0.0817394
v -0.162424 1.49387 0.117344
v -0.110175 1.08062 0.186749
v -0.0507257 1.53404 0.185128
v -0.0667639 1.56392 0.176932
v -0.0973307 1.56392 0.167001
v -0.0248965 1.04994 0.214457
v -0.018985 1.6292 0.171945
v -0.0191452 1.62419 0.173469
v -0.0155526 1.61749 0.175102
v 0.0108748 1.56826 0.18712
v 0.0563346 1.03268 0.179735
v 0.0427095 1.68526 0.134256
v 0.0935165 1.01582 0.105585
v 0.0658791 1.73944 0.07418
v 0.121536 0.97487 0.0547662
v 0.0462901 1.78159 0.0210161
v 0.1344 0.874144 0
v 0.0507573 1.78642 0
v -0.213283 1.08062 0.0448337
v -0.213283 1.04994 -0.0448339
v -0.154957 1.03268 -0.111083
v -0.0725915 1.01582 -0.123044
v -0.0155458 0.97487 -0.133911
v 0.0405061 0.874144 -0.129234
v 0.174167 0.657845 -0.078483
v 0.127005 0.657845 -0.143395
v -0.189535 1.56392 0.0400928
v -0.170027 1.6292 -0.0359461
v -0.122839 1.6684 -0.0885846
v -0.0633642 1.70657 -0.108169
v -0.0508225 1.73944 -0.0864459
v -0.00631394 1.78159 -0.0513872
v 0.0150542 1.78642 -0.0491412
v 0.0409039 1.80246 -0.0465755
v 0.0562223 1.80246 -0.0254916
v -0.176811 1.08062 0.126749
v -0.15692 1.56392 0.113346
v -0.110175 1.04994 0.186749
v -0.0905165 1.60818 0.15531
v -0.0905586 1.60826 0.155271
v -0.0218193 1.03268 0.18795
v -0.0156686 1.68526 0.140392
v -0.0218374 1.6292 0.171018
v 0.0423523 1.01582 0.135124
v 0.0299329 1.73944 0.0949336
v 0.0886259 0.97487 0.100063
v 0.0336611 1.78159 0.0383985
v 0.122652 0.874144 0.0552694
v 0.0462901 1.78642 0.0210161
v 0.190849 0.657845 0
v 0.0616406 1.80246 0
v -0.213283 1.04994 0.0448337
v -0.18692 1.03268 -0.0392922
v -0.116496 1.01582 -0.0835115
v -0.0687951 0.97487 -0.116609
v -0.0156886 0.874144 -0.13514
v 0.0575189 0.657845 -0.183514
v 0.208428 0.567477 -0.0939215
v 0.151989 0.567477 -0.171603
v -0.170027 1.6292 0.0359461
v -0.138994 1.68526 -0.0293499
v -0.13189 1.68526 -0.0453052
v -0.0810071 1.73944 -0.0592675
v -0.068641 1.7164 -0.0935425
v -0.026748 1.78159 -0.0447477
v -0.00631394 1.78642 -0.0513872
v 0.0183341 1.80246 -0.0596062
v 0.0498501 1.82362 -0.0566762
v 0.0684904 1.82362 -0.03102
v -0.176811 1.04994 0.126749
v -0.0907918 1.60869 0.154886
v -0.101802 1.6292 0.136724
v -0.140785 1.6292 0.101623
v -0.0965573 1.03268 0.163666
v -0.0164037 1.01582 0.1413
v -0.0519252 1.68526 0.128612
v -0.0113469 1.73944 0.0992723
v 0.0401374 0.97487 0.128058
v 0.0150542 1.78159 0.0491412
v 0.08944 0.874144 0.100982
v 0.0336611 1.78642 0.0383985
v 0.174167 0.657845 0.078483
v 0.0562223 1.80246 0.0254916
v 0.228392 0.567477 -0
v 0.0750839 1.82362 0
v -0.18692 1.03268 0.0392922
v -0.140526 1.01582 -0.0295398
v -0.110404 0.97487 -0.079144
v -0.0694272 0.874144 -0.11768
v -0.0222779 0.657845 -0.1919
v 0.0688336 0.567477 -0.219613
v 0.233748 0.558207 -0.105331
v 0.170453 0.558207 -0.19245
v -0.138994 1.68526 0.0293499
v -0.134861 1.6908 -0.0284717
v -0.132749 1.68686 -0.0404409
v -0.08125 1.7399 -0.0583684
v -0.042715 1.78159 -0.030371
v -0.026748 1.78642 -0.0447477
v -0.0075843 1.80246 -0.0623305
v 0.0223858 1.82362 -0.0725327
v 0.0538556 1.84839 -0.0611988
v 0.0739836 1.84839 -0.0334952
v -0.154957 1.03268 0.111083
v -0.122839 1.6684 0.0885846
v -0.0725915 1.01582 0.123044
v -0.0155458 0.97487 0.133911
v -0.0508225 1.73944 0.0864459
v -0.0633642 1.70657 0.108169
v -0.00631394 1.78159 0.0513872
v 0.0405061 0.874144 0.129234
v 0.0150542 1.78642 0.0491412
v 0.127005 0.657845 0.143395
v 0.0409039 1.80246 0.0465758
v 0.208428 0.567477 0.0939215
v 0.0684904 1.82362 0.03102
v 0.256137 0.558207 -0
v 0.0811032 1.84839 0
v -0.140526 1.01582 0.0295398
v -0.133177 0.97487 -0.0279948
v -0.111418 0.874144 -0.079871
v -0.0985871 0.657845 -0.167106
v -0.0266602 0.567477 -0.22965
v 0.0771955 0.558207 -0.246292
v 0.233748 0.47573 -0.105331
v 0.170453 0.47573 -0.19245
v -0.13189 1.68526 0.0453052
v -0.134861 1.6908 0.0284715
v -0.134861 1.6908 0
v -0.0866993 1.75005 -0.0182345
v -0.0514538 1.78159 -0.0107429
v -0.0850233 1.74693 -0.0305782
v -0.042715 1.78642 -0.030371
v -0.0323699 1.80246 -0.054277
v -0.00915359 1.82362 -0.0758476
v 0.0242 1.84839 -0.0783207
v 0.0521344 1.87298 -0.0592554
v 0.0716229 1.87298 -0.0324315
v -0.116496 1.01582 0.0835115
v -0.0687951 0.97487 0.116609
v -0.0156886 0.874144 0.13514
v -0.026748 1.78159 0.0447477
v -0.0810071 1.73944 0.0592675
v -0.0686412 1.7164 0.0935425
v -0.00631394 1.78642 0.0513872
v 0.0575189 0.657845 0.183514
v 0.0183341 1.80246 0.0596062
v 0.151989 0.567477 0.171603
v 0.0498501 1.82362 0.0566762
v 0.233748 0.558207 0.105331
v 0.0739836 1.84839 0.0334954
v 0.256137 0.47573 -0
v 0.0785163 1.87298 0
v -0.133177 0.97487 0.0279948
v -0.1344 0.874144 -0.0282521
v -0.158214 0.657845 -0.113417
v -0.11798 0.567477 -0.199978
v -0.029899 0.558207 -0.257548
v 0.0771955 0.47573 -0.246292
v 0.286057 0.399056 -0.128902
v 0.208597 0.399056 -0.235516
v -0.132749 1.68686 0.0404409
v -0.0866993 1.75005 0.0182345
v -0.0514538 1.78159 0.0107429
v -0.0866993 1.75005 0
v -0.0514538 1.78642 -0.0107429
v -0.0517371 1.80246 -0.0368387
v -0.0393143 1.82362 -0.0660479
v -0.0098562 1.84839 -0.0819001
v 0.0234202 1.87298 -0.0758335
v 0.0419595 1.90401 -0.0477678
v 0.0576702 1.90401 -0.026144
v -0.110404 0.97487 0.079144
v -0.0694272 0.874144 0.11768
v -0.0222779 0.657845 0.191901
v -0.042715 1.78159 0.030371
v -0.08125 1.7399 0.0583684
v -0.026748 1.78642 0.0447477
v -0.0075843 1.80246 0.0623305
v 0.0688334 0.567477 0.219613
v 0.0223858 1.82362 0.0725329
v 0.170453 0.558207 0.19245
v 0.0538556 1.84839 0.061199
v 0.233748 0.47573 0.105331
v 0.0716229 1.87298 0.0324315
v 0.313456 0.399056 -0
v 0.0632272 1.90401 0
v -0.1344 0.874144 0.0282521
v -0.190849 0.657845 -0.0401181
v -0.189337 0.567477 -0.135728
v -0.132313 0.558207 -0.224272
v -0.029899 0.47573 -0.257548
v 0.0944706 0.399056 -0.301408
v 0.384691 0.324708 -0.173349
v 0.280523 0.324708 -0.316724
v -0.0850233 1.74693 0.0305782
v -0.0514538 1.78642 0.0107429
v -0.0623372 1.80246 -0.0130307
v -0.0628817 1.82362 -0.0448276
v -0.0424238 1.84839 -0.0713183
v -0.00955417 1.87298 -0.0792991
v 0.0188124 1.90401 -0.0611319
v 0.0190528 1.92215 -0.0219047
v 0.0262571 1.92215 -0.0119889
v -0.111418 0.874144 0.079871
v -0.0985871 0.657845 0.167106
v -0.0266602 0.567477 0.22965
v -0.042715 1.78642 0.030371
v -0.0323699 1.80246 0.054277
v -0.00915359 1.82362 0.0758476
v 0.0771955 0.558207 0.246292
v 0.0242 1.84839 0.0783207
v 0.170453 0.47573 0.19245
v 0.0521344 1.87298 0.0592554
v 0.286057 0.399056 0.128902
v 0.0576702 1.90401 0.0261443
v 0.421538 0.324708 -0
v 0.0288054 1.92215 0
v -0.190849 0.657845 0.0401181
v -0.228392 0.567477 -0.04801
v -0.212338 0.558207 -0.152217
v -0.132313 0.47573 -0.224272
v -0.0365898 0.399056 -0.315182
v 0.127045 0.324708 -0.405335
v 0.444746 0.274435 -0.200411
v 0.324316 0.274435 -0.366168
v -0.0623372 1.80246 0.0130307
v -0.0757805 1.82362 -0.0158564
v -0.0678717 1.84839 -0.048405
v -0.0410875 1.87298 -0.0690533
v -0.00776953 1.90401 -0.0639259
v 0.00843825 1.92215 -0.0280331
v -0.00375152 1.92215 -0.0293144
v -0.0154083 1.92215 -0.0255269
v -0.0245168 1.92215 -0.0173255
v -0.029502 1.92215 -0.0061284
v -0.029502 1.92215 0.0061284
v -0.0245168 1.92215 0.0173255
v -0.0154083 1.92215 0.0255269
v -0.00375152 1.92215 0.0293144
v 0.00843825 1.92215 0.0280331
v 0.0190528 1.92215 0.0219047
v 0.0262571 1.92215 0.0119889
v -0.158214 0.657845 0.113417
v -0.11798 0.567477 0.199978
v -0.029899 0.558207 0.257548
v -0.0517371 1.80246 0.0368387
v -0.0393143 1.82362 0.0660479
v -0.0098562 1.84839 0.0819001
v 0.0771955 0.47573 0.246292
v 0.0234202 1.87298 0.0758335
v 0.208597 0.399056 0.235517
v 0.0419595 1.90401 0.0477678
v 0.384691 0.324708 0.173349
v 0.487345 0.274435 -0
v -0.228392 0.567477 0.04801
v -0.256137 0.558207 -0.0538421
v -0.212338 0.47573 -0.152217
v -0.161922 0.399056 -0.27446
v -0.0492063 0.324708 -0.42386
v 0.146878 0.274435 -0.468613
v 0.456295 0.217023 -0.205615
v 0.332738 0.217023 -0.375677
v -0.0757805 1.82362 0.0158564
v -0.0817999 1.84839 -0.0171219
v -0.0657273 1.87298 -0.0468676
v -0.0331896 1.90401 -0.0556662
v -0.0530524 1.90401 -0.0377816
v -0.0639238 1.90401 -0.0133641
v -0.0639238 1.90401 0.0133641
v -0.0530524 1.90401 0.0377816
v -0.0331896 1.90401 0.0556662
v -0.00776953 1.90401 0.0639259
v 0.0188124 1.90401 0.0611319
v -0.189337 0.567477 0.135728
v -0.132313 0.558207 0.224272
v -0.029899 0.47573 0.257548
v -0.0628817 1.82362 0.0448276
v -0.0424238 1.84839 0.0713183
v -0.00955417 1.87298 0.0792991
v 0.0944704 0.399056 0.301408
v 0.280523 0.324708 0.316724
v 0.444746 0.274435 0.200411
v 0.5 0.217023 -0
v -0.256137 0.558207 0.0538421
v -0.256137 0.47573 -0.0538421
v -0.259856 0.399056 -0.18628
v -0.217754 0.324708 -0.369096
v -0.0568878 0.274435 -0.490029
v 0.150692 0.217023 -0.480781
v 0.456295 0.184711 -0.205615
v 0.332738 0.184711 -0.375677
v -0.0817999 1.84839 0.0171219
v -0.079213 1.87298 -0.0165781
v -0.079213 1.87298 0.0165781
v -0.0657273 1.87298 0.0468676
v -0.0410875 1.87298 0.0690533
v -0.212338 0.558207 0.152217
v -0.132313 0.47573 0.224272
v -0.0365898 0.399056 0.315182
v -0.0678717 1.84839 0.048405
v 0.127045 0.324708 0.405335
v 0.324316 0.274435 0.366169
v 0.456295 0.217023 0.205615
v 0.5 0.184711 -0
v -0.256137 0.47573 0.0538421
v -0.313456 0.399056 -0.0658911
v -0.349455 0.324708 -0.250511
v -0.251748 0.274435 -0.426716
v -0.058365 0.217023 -0.502754
v 0.150692 0.184711 -0.480781
v 0.423961 0.127297 -0.191044
v 0.309159 0.127297 -0.349055
v -0.212338 0.47573 0.152217
v -0.161922 0.399056 0.27446
v -0.0492063 0.324708 0.42386
v 0.146878 0.274435 0.468613
v 0.332738 0.217023 0.375677
v 0.456295 0.184711 0.205615
v 0.464569 0.127297 -0
v -0.313456 0.399056 0.0658911
v -0.421538 0.324708 -0.0886108
v -0.40401 0.274435 -0.289618
v -0.258285 0.217023 -0.437796
v -0.058365 0.184711 -0.502754
v 0.140013 0.127297 -0.446712
v 0.455904 0.0954059 -0.205439
v 0.332453 0.0954059 -0.375355
v -0.259856 0.399056 0.18628
v -0.217754 0.324708 0.369096
v -0.056888 0.274435 0.490029
v 0.150692 0.217023 0.480781
v 0.332738 0.184711 0.375677
v 0.423961 0.127297 0.191044
v 0.499572 0.0954059 -0
v -0.421538 0.324708 0.0886108
v -0.487345 0.274435 -0.102444
v -0.4145 0.217023 -0.297139
v -0.258285 0.184711 -0.437796
v -0.0542293 0.127297 -0.467128
v 0.150563 0.0954059 -0.48037
v 0.451344 1.5137e-09 -0.203384
v 0.329127 1.5137e-09 -0.371601
v -0.349455 0.324708 0.250511
v -0.251748 0.274435 0.426716
v -0.0583652 0.217023 0.502754
v 0.150692 0.184711 0.480781
v 0.309159 0.127297 0.349056
v 0.455904 0.0954059 0.205439
v 0.494575 1.5137e-09 -0
v -0.487345 0.274435 0.102444
v -0.5 0.217023 -0.105104
v -0.4145 0.184711 -0.297139
v -0.239982 0.127297 -0.406773
v -0.058315 0.0954059 -0.502324
v 0.149057 1.5137e-09 -0.475565
v 0.451344 1.5137e-09 0.203384
v 0.329127 1.5137e-09 0.371601
v 0.149057 1.5137e-09 0.475565
v -0.0577318 1.5137e-09 0.497299
v -0.255482 1.5137e-09 0.433046
v -0.410003 1.5137e-09 0.293915
v -0.494575 1.5137e-09 0.103964
v -0.494575 1.5137e-09 -0.103964
v -0.410003 1.5137e-09 -0.293915
v -0.255482 1.5137e-09 -0.433046
v -0.0577318 1.5137e-09 -0.497299
v -0.40401 0.274435 0.289618
v -0.258285 0.217023 0.437796
v -0.0583652 0.184711 0.502754
v 0.140013 0.127297 0.446712
v 0.332453 0.0954059 0.375356
v -0.5 0.217023 0.105104
v -0.5 0.184711 -0.105104
v -0.385128 0.127297 -0.276083
v -0.258064 0.0954059 -0.437422
v 0.150563 0.0954059 0.48037
v -0.058315 0.0954059 0.502324
v -0.258064 0.0954059 0.437422
v -0.414146 0.0954059 0.296885
v -0.499572 0.0954059 0.105014
v -0.499572 0.0954059 -0.105014
v -0.414146 0.0954059 -0.296885
v -0.4145 0.217023 0.297139
v -0.258285 0.184711 0.437796
v -0.0542293 0.127297 0.467128
v -0.5 0.184711 0.105104
v -0.464569 0.127297 -0.0976562
v -0.239982 0.127297 0.406773
v -0.385128 0.127297 0.276083
v -0.464569 0.127297 0.0976562
v -0.4145 0.184711 0.297139
v -0.0324638 1.50002 -0.109342
v 0.0296167 1.53334 -0.109342
v -0.0242738 1.48476 0
v 0.0378067 1.51808 0
v -0.0324638 1.50002 0.109342
v 0.0296167 1.53334 0.109342
f 1 2 3 4
f 5 1 4 6
f 2 1 7 8
f 2 9 10 3
f 4 3 11 12
f 13 5 6 14
f 1 5 15 7
f 6 4 12 16
f 9 2 8 17
f 8 7 18 19
f 9 20 21 10
f 3 10 22 11
f 12 11 23 24
f 25 13 14 26
f 5 13 27 15
f 14 6 16 28
f 7 15 29 18
f 16 12 24 30
f 20 9 17 31
f 17 8 19 32
f 19 18 33 34
f 20 35 36 21
f 10 21 37 22
f 11 22 38 23
f 24 23 39 40
f 41 25 26 42
f 13 25 43 27
f 26 14 28 44
f 15 27 45 29
f 28 16 30 46
f 18 29 47 33
f 30 24 40 48
f 35 20 31 49
f 31 17 32 50
f 32 19 34 51
f 34 33 52 53
f 35 54 55 36
f 21 36 56 37
f 22 37 57 38
f 23 38 58 39
f 40 39 59 60
f 61 41 42 62
f 25 41 63 43
f 42 26 44 64
f 27 43 65 45
f 44 28 46 66
f 29 45 67 47
f 46 30 48 68
f 33 47 69 52
f 48 40 60 70
f 54 35 49 71
f 49 31 50 72
f 50 32 51 73
f 51 34 53 74
f 53 52 75 76
f 54 77 78 55
f 36 55 79 56
f 37 56 80 57
f 38 57 81 58
f 39 58 82 59
f 60 59 83 84
f 85 61 62 86
f 41 61 87 63
f 62 42 64 88
f 43 63 89 65
f 64 44 66 90
f 45 65 91 67
f 66 46 68 92
f 47 67 93 69
f 68 48 70 94
f 52 69 95 75
f 70 60 84 96
f 77 54 71 97
f 71 49 72 98
f 72 50 73 99
f 73 51 74 100
f 74 53 76 101
f 76 75 102 103
f 77 104 105 78
f 55 78 106 79
f 56 79 107 80
f 57 80 108 81
f 109 82 58 81 110
f 59 82 111 83
f 84 83 112 113
f 114 85 86 115
f 61 85 116 87
f 86 62 88 117
f 63 87 118 89
f 88 64 90 119
f 65 89 120 91
f 90 66 92 121
f 67 91 122 93
f 92 68 94 123
f 69 93 124 95
f 94 70 96 125
f 75 95 126 102
f 96 84 113 127
f 104 77 97 128
f 97 71 98 129
f 98 72 99 130
f 99 73 100 131
f 100 74 101 132
f 101 76 103 133
f 103 102 134 135
f 104 114 115 105
f 78 105 136 106
f 79 106 137 107
f 80 107 138 108
f 81 108 139 140 141 110
f 82 109 142 143 144 145 111
f 83 111 146 112
f 113 112 147 148
f 85 114 149 116
f 115 86 117 150
f 87 116 151 118
f 117 88 119 152
f 89 118 153 120
f 119 90 121 154
f 91 120 155 122
f 121 92 123 156
f 93 122 157 124
f 123 94 125 158
f 95 124 159 126
f 125 96 127 160
f 102 126 161 134
f 127 113 148 162
f 114 104 128 149
f 128 97 129 163
f 129 98 130 164
f 130 99 131 165
f 131 100 132 166
f 132 101 133 167
f 133 103 135 168
f 135 134 169 170
f 105 115 150 136
f 106 136 171 137
f 107 137 172 138
f 108 138 173 139
f 140 139 174 175
f 176 145 144
f 111 145 177 146
f 112 146 178 147
f 148 147 179 180
f 116 149 181 151
f 150 117 152 182
f 118 151 183 153
f 152 119 154 184
f 120 153 185 155
f 186 154 121 156 187
f 122 155 188 157
f 156 123 158 189
f 124 157 190 159
f 158 125 160 191
f 126 159 192 161
f 160 127 162 193
f 134 161 194 169
f 162 148 180 195
f 149 128 163 181
f 163 129 164 196
f 164 130 165 197
f 165 131 166 198
f 166 132 167 199
f 167 133 168 200
f 168 135 170 201
f 170 169 202 203
f 136 150 182 171
f 137 171 204 172
f 138 172 205 173
f 139 173 206 207 208 174
f 209 177 145 176
f 146 177 210 178
f 147 178 211 179
f 180 179 212 213
f 151 181 214 183
f 182 152 184 215
f 153 183 216 185
f 184 154 186 217 218 219
f 155 185 220 188
f 187 156 189 221 222 223 224
f 157 188 225 190
f 189 158 191 226
f 159 190 227 192
f 191 160 193 228
f 161 192 229 194
f 193 162 195 230
f 169 194 231 202
f 195 180 213 232
f 181 163 196 214
f 196 164 197 233
f 197 165 198 234
f 198 166 199 235
f 199 167 200 236
f 200 168 201 237
f 201 170 203 238
f 203 202 239 240
f 171 182 215 204
f 172 204 241 205
f 173 205 242 206
f 207 206 243
f 244 245 210 177 209
f 178 210 246 211
f 179 211 247 212
f 213 212 248 249
f 183 214 250 216
f 215 184 219 251
f 185 216 252 220
f 219 218 253 254
f 188 220 255 225
f 221 189 226 256
f 222 221 257
f 190 225 258 227
f 226 191 228 259
f 192 227 260 229
f 228 193 230 261
f 194 229 262 231
f 230 195 232 263
f 202 231 264 239
f 232 213 249 265
f 214 196 233 250
f 233 197 234 266
f 234 198 235 267
f 235 199 236 268
f 236 200 237 269
f 237 201 238 270
f 238 203 240 271
f 240 239 272 273
f 204 215 251 241
f 205 241 274 242
f 243 206 242 275 276
f 277 245 244 278
f 210 245 279 246
f 211 246 280 247
f 212 247 281 248
f 249 248 282 283
f 216 250 284 252
f 251 219 254 285 286 287
f 220 252 288 255
f 225 255 289 258
f 257 221 256 290
f 256 226 259 291
f 227 258 292 260
f 259 228 261 293
f 229 260 294 262
f 261 230 263 295
f 231 262 296 264
f 263 232 265 297
f 239 264 298 272
f 265 249 283 299
f 250 233 266 284
f 266 234 267 300
f 267 235 268 301
f 268 236 269 302
f 269 237 270 303
f 270 238 271 304
f 271 240 273 305
f 273 272 306 307
f 241 251 287 274
f 242 274 308 275
f 276 275 309 310
f 311 312 279 245 277
f 246 279 313 280
f 247 280 314 281
f 248 281 315 282
f 283 282 316 317
f 252 284 318 288
f 319 287 286
f 255 288 320 289
f 258 289 321 292
f 290 256 291 322 323
f 291 259 293 324
f 260 292 325 294
f 293 261 295 326
f 262 294 327 296
f 295 263 297 328
f 264 296 329 298
f 297 265 299 330
f 272 298 331 306
f 299 283 317 332
f 284 266 300 318
f 300 267 301 333
f 301 268 302 334
f 302 269 303 335
f 303 270 304 336
f 304 271 305 337
f 305 273 307 338
f 307 306 339 340
f 341 308 274 287 319
f 275 308 342 343 309
f 344 345 312 311 346
f 279 312 347 313
f 280 313 348 314
f 281 314 349 315
f 282 315 350 316
f 317 316 351 352
f 288 318 353 320
f 289 320 354 321
f 292 321 355 325
f 322 291 324 356
f 323 322 357 358
f 324 293 326 359
f 294 325 360 327
f 326 295 328 361
f 296 327 362 329
f 328 297 330 363
f 298 329 364 331
f 330 299 332 365
f 306 331 366 339
f 332 317 352 367
f 318 300 333 353
f 333 301 334 368
f 334 302 335 369
f 335 303 336 370
f 336 304 337 371
f 337 305 338 372
f 338 307 340 373
f 340 339 374 375
f 308 341 376 342
f 377 378 345 344 379
f 312 345 380 347
f 313 347 381 348
f 314 348 382 349
f 315 349 383 350
f 316 350 384 351
f 352 351 385 386
f 320 353 387 354
f 321 354 388 355
f 325 355 389 360
f 357 322 356 390 391
f 356 324 359 392
f 359 326 361 393
f 327 360 394 362
f 361 328 363 395
f 329 362 396 364
f 363 330 365 397
f 331 364 398 366
f 365 332 367 399
f 339 366 400 374
f 367 352 386 401
f 353 333 368 387
f 368 334 369 402
f 369 335 370 403
f 370 336 371 404
f 371 337 372 405
f 372 338 373 406
f 373 340 375 407
f 375 374 408 409
f 391 390 378 377 410
f 345 378 411 380
f 347 380 412 381
f 348 381 413 382
f 349 382 414 383
f 350 383 415 384
f 351 384 416 385
f 386 385 417 418
f 354 387 419 388
f 355 388 420 389
f 360 389 421 394
f 390 356 392 422
f 392 359 393 423
f 393 361 395 424
f 362 394 425 396
f 395 363 397 426
f 364 396 427 398
f 397 365 399 428
f 366 398 429 400
f 399 367 401 430
f 374 400 431 408
f 401 386 418 432
f 387 368 402 419
f 402 369 403 433
f 403 370 404 434
f 404 371 405 435
f 405 372 406 436
f 406 373 407 437
f 407 375 409 438
f 409 408 439 440
f 378 390 422 411
f 380 411 441 412
f 381 412 442 413
f 382 413 443 414
f 383 414 444 415
f 384 415 445 416
f 385 416 446 417
f 417 446 447 448 449 450 451 452 453 454 455 456 457 432 418
f 388 419 458 420
f 389 420 459 421
f 394 421 460 425
f 422 392 423 461
f 423 393 424 462
f 424 395 426 463
f 396 425 464 427
f 426 397 428 465
f 398 427 466 429
f 428 399 430 467
f 400 429 468 431
f 430 401 432 457
f 408 431 469 439
f 419 402 433 458
f 433 403 434 470
f 434 404 435 471
f 435 405 436 472
f 436 406 437 473
f 437 407 438 474
f 438 409 440 475
f 440 439 476 477
f 411 422 461 441
f 412 441 478 442
f 413 442 479 443
f 414 443 480 444
f 415 444 481 445
f 416 445 447 446
f 445 481 448 447
f 481 482 449 448
f 482 483 450 449
f 483 484 451 450
f 484 485 452 451
f 485 486 453 452
f 486 487 454 453
f 487 488 455 454
f 488 467 456 455
f 467 430 457 456
f 420 458 489 459
f 421 459 490 460
f 425 460 491 464
f 461 423 462 492
f 462 424 463 493
f 463 426 465 494
f 427 464 495 466
f 465 428 467 488
f 429 466 496 468
f 431 468 497 469
f 439 469 498 476
f 458 433 470 489
f 470 434 471 499
f 471 435 472 500
f 472 436 473 501
f 473 437 474 502
f 474 438 475 503
f 475 440 477 504
f 477 476 505 506
f 441 461 492 478
f 442 478 507 479
f 443 479 508 480
f 444 480 482 481
f 480 508 483 482
f 508 509 484 483
f 509 510 485 484
f 510 511 486 485
f 511 494 487 486
f 494 465 488 487
f 459 489 512 490
f 460 490 513 491
f 464 491 514 495
f 492 462 493 515
f 493 463 494 511
f 466 495 516 496
f 468 496 517 497
f 469 497 518 498
f 476 498 519 505
f 489 470 499 512
f 499 471 500 520
f 500 472 501 521
f 501 473 502 522
f 502 474 503 523
f 503 475 504 524
f 504 477 506 525
f 506 505 526 527
f 478 492 515 507
f 479 507 509 508
f 507 515 510 509
f 515 493 511 510
f 490 512 528 513
f 491 513 529 514
f 495 514 530 516
f 496 516 531 517
f 497 517 532 518
f 498 518 533 519
f 505 519 534 526
f 512 499 520 528
f 520 500 521 535
f 521 501 522 536
f 522 502 523 537
f 523 503 524 538
f 524 504 525 539
f 525 506 527 540
f 527 526 541 542
f 513 528 543 529
f 514 529 544 530
f 516 530 545 531
f 517 531 546 532
f 518 532 547 533
f 519 533 548 534
f 526 534 549 541
f 528 520 535 543
f 535 521 536 550
f 536 522 537 551
f 537 523 538 552
f 538 524 539 553
f 539 525 540 554
f 540 527 542 555
f 542 541 556 557
f 529 543 558 544
f 530 544 559 545
f 531 545 560 546
f 532 546 561 547
f 533 547 562 548
f 534 548 563 549
f 541 549 564 556
f 543 535 550 558
f 550 536 551 565
f 551 537 552 566
f 552 538 553 567
f 553 539 554 568
f 554 540 555 569
f 555 542 557 570
f 557 556 564 571 572 573 574 575 576 577 578 579 580 581 570
f 544 558 582 559
f 545 559 583 560
f 546 560 584 561
f 547 561 585 562
f 548 562 586 563
f 549 563 571 564
f 558 550 565 582
f 565 551 566 587
f 566 552 567 588
f 567 553 568 589
f 568 554 569 590
f 569 555 570 581
f 563 586 572 571
f 586 591 573 572
f 591 592 574 573
f 592 593 575 574
f 593 594 576 575
f 594 595 577 576
f 595 596 578 577
f 596 597 579 578
f 597 590 580 579
f 590 569 581 580
f 559 582 598 583
f 560 583 599 584
f 561 584 600 585
f 562 585 591 586
f 582 565 587 598
f 587 566 588 601
f 588 567 589 602
f 589 568 590 597
f 585 600 592 591
f 600 603 593 592
f 603 604 594 593
f 604 605 595 594
f 605 602 596 595
f 602 589 597 596
f 583 598 606 599
f 584 599 603 600
f 598 587 601 606
f 601 588 602 605
f 599 606 604 603
f 606 601 605 604
f 607 608 142 109 110 141
f 609 610 608 607
f 141 140 175 208 207 243 276 310 607
f 608 346 311 277 278 143 142
f 611 612 610 609
f 607 310 309 343 609
f 610 379 344 346 608
f 175 174 208
f 278 244 209 176 144 143
f 217 186 187 224 612 611
f 609 343 342 376 611
f 612 410 377 379 610
f 611 376 341 319 286 285 253 218 217
f 224 223 358 357 391 410 612
f 285 254 253
f 223 222 257 290 323 358
