v 0.238781 0.5618 -0.0680921
v 0.157068 0.5618 -0.12441
v 0.0663527 0.5618 -0.159217
v -0.0628668 0.5618 -0.166494
v -0.186439 0.5618 -0.144982
v -0.282997 0.5618 -0.0984017
v -0.381334 0.5618 -0.0348067
v -0.381334 0.5618 0.0348067
v -0.282997 0.5618 0.0984017
v -0.186439 0.5618 0.144982
v -0.0628668 0.5618 0.166494
v 0.0663525 0.5618 0.159217
v 0.157068 0.5618 0.124411
v 0.238781 0.5618 0.0680923
v 0.265795 0.5618 -0
v 0.234472 0.450157 -0.0806347
v 0.159991 0.450157 -0.147327
v 0.072061 0.450157 -0.188545
v -0.0539599 0.450157 -0.197162
v -0.174473 0.450157 -0.171688
v -0.268641 0.450157 -0.116527
v -0.441475 0.470226 -0.0412181
v -0.441475 0.470226 0.0412181
v -0.268641 0.450157 0.116527
v -0.174473 0.450157 0.171688
v -0.0539599 0.450157 0.197162
v 0.072061 0.450157 0.188545
v 0.159991 0.450157 0.147327
v 0.234472 0.450157 0.0806347
v 0.260818 0.450157 -0
v 0.30512 0.359766 -0.108383
v 0.217414 0.359766 -0.198026
v 0.0881904 0.359766 -0.253428
v -0.060207 0.359766 -0.26501
v -0.202118 0.359766 -0.23077
v -0.313007 0.359766 -0.156627
v -0.373698 0.359766 -0.0554023
v -0.373698 0.359766 0.0554023
v -0.313007 0.359766 0.156627
v -0.202118 0.359766 0.23077
v -0.060207 0.359766 0.26501
v 0.0881904 0.359766 0.253428
v 0.217414 0.359766 0.198026
v 0.30512 0.359766 0.108383
v 0.336144 0.359766 -0
v 0.351468 0.312514 -0.166839
v 0.251211 0.312514 -0.30483
v 0.103497 0.312514 -0.390113
v -0.0661355 0.312514 -0.407942
v -0.228353 0.312514 -0.355235
v -0.355109 0.312514 -0.241103
v -0.424485 0.312514 -0.0852831
v -0.424485 0.312514 0.0852831
v -0.355109 0.312514 0.241103
v -0.228353 0.312514 0.355235
v -0.0661355 0.312514 0.407942
v 0.103496 0.312514 0.390113
v 0.251211 0.312514 0.30483
v 0.351468 0.312514 0.166839
v 0.38693 0.312514 -0
v 0.409267 0.264129 -0.192884
v 0.29336 0.264129 -0.352417
v 0.122585 0.264129 -0.451014
v -0.0735285 0.264129 -0.471627
v -0.261071 0.264129 -0.410691
v -0.407614 0.264129 -0.278742
v -0.48782 0.264129 -0.0985968
v -0.48782 0.264129 0.0985968
v -0.407614 0.264129 0.278742
v -0.261071 0.264129 0.410691
v -0.0735285 0.264129 0.471627
v 0.122585 0.264129 0.451014
v 0.29336 0.264129 0.352417
v 0.409267 0.264129 0.192884
v 0.450266 0.264129 -0
v 0.420382 0.208873 -0.197893
v 0.301465 0.208873 -0.361568
v 0.126256 0.208873 -0.462726
v -0.0749502 0.208873 -0.483873
v -0.267362 0.208873 -0.421355
v -0.417711 0.208873 -0.28598
v -0.5 0.208873 -0.101157
v -0.5 0.208873 0.101157
v -0.417711 0.208873 0.28598
v -0.267362 0.208873 0.421355
v -0.0749502 0.208873 0.483873
v 0.126255 0.208873 0.462726
v 0.301465 0.208873 0.361569
v 0.420382 0.208873 0.197893
v 0.462446 0.208873 -0
v 0.420382 0.177774 -0.197893
v 0.301465 0.177774 -0.361568
v 0.126256 0.177774 -0.462726
v -0.0749502 0.177774 -0.483873
v -0.267362 0.177774 -0.421355
v -0.417711 0.177774 -0.28598
v -0.5 0.177774 -0.101157
v -0.5 0.177774 0.101157
v -0.417711 0.177774 0.28598
v -0.267362 0.177774 0.421355
v -0.0749502 0.177774 0.483873
v 0.126255 0.177774 0.462726
v 0.301465 0.177774 0.361569
v 0.420382 0.177774 0.197893
v 0.462446 0.177774 -0
v 0.389262 0.122516 -0.18387
v 0.278772 0.122516 -0.335947
v 0.115978 0.122516 -0.429936
v -0.0709698 0.122516 -0.449585
v -0.249747 0.122516 -0.391497
v -0.389442 0.122516 -0.265715
v -0.465899 0.122516 -0.0939888
v -0.465899 0.122516 0.0939888
v -0.389442 0.122516 0.265715
v -0.249747 0.122516 0.391497
v -0.0709698 0.122516 0.449585
v 0.115978 0.122516 0.429936
v 0.278772 0.122516 0.335947
v 0.389262 0.122516 0.18387
v 0.428345 0.122516 -0
v 0.420006 0.0918227 -0.197724
v 0.301191 0.0918227 -0.361259
v 0.126131 0.0918227 -0.46233
v -0.0749022 0.0918227 -0.483459
v -0.267149 0.0918227 -0.420994
v -0.41737 0.0918227 -0.285736
v -0.499588 0.0918227 -0.101071
v -0.499588 0.0918227 0.10107
v -0.41737 0.0918227 0.285735
v -0.267149 0.0918227 0.420994
v -0.0749022 0.0918227 0.483459
v 0.126131 0.0918227 0.46233
v 0.301191 0.0918227 0.361259
v 0.420006 0.0918227 0.197724
v 0.462034 0.0918227 -0
v 0.415617 -1.33198e-08 -0.195746
v 0.29799 -1.33198e-08 -0.357645
v 0.124682 -1.33198e-08 -0.457705
v -0.0743408 -1.33198e-08 -0.478623
v -0.264665 -1.33198e-08 -0.416783
v -0.413383 -1.33198e-08 -0.282877
v -0.494779 -1.33198e-08 -0.10006
v -0.494779 -1.33198e-08 0.100059
v -0.413383 -1.33198e-08 0.282877
v -0.264665 -1.33198e-08 0.416783
v -0.0743408 -1.33198e-08 0.478623
v 0.124682 -1.33198e-08 0.457705
v 0.29799 -1.33198e-08 0.357646
v 0.415617 -1.33198e-08 0.195746
v 0.457224 -1.33198e-08 -0
v 0.265089 0.699047 -0.0585948
v 0.188786 0.699042 -0.106964
v 0.0660153 0.699046 -0.137415
v -0.0631515 0.69904 -0.145311
v -0.188709 0.698921 -0.129426
v -0.291172 0.698519 -0.0912069
v -0.351549 0.697972 -0.0334031
v -0.351549 0.697972 0.0334031
v -0.291172 0.698519 0.0912066
v -0.188709 0.698921 0.129426
v -0.0631515 0.69904 0.145311
v 0.0660153 0.699046 0.137415
v 0.188786 0.699042 0.106964
v 0.265089 0.699047 0.0585948
v 0.292246 0.699051 0
v -0.0300896 1.02909 -0.0456781
v -0.0959934 1.01592 -0.0833845
v -0.16764 1.03235 -0.107123
v -0.25026 1.05127 -0.113278
v -0.330597 1.06956 -0.100895
v -0.396225 1.08418 -0.0711009
v -0.434966 1.0925 -0.0260396
v -0.434966 1.0925 0.0260396
v -0.396225 1.08418 0.0711009
v -0.330597 1.06956 0.100895
v -0.25026 1.05127 0.113278
v -0.16764 1.03235 0.107123
v -0.0959934 1.01592 0.0833847
v -0.0300896 1.02909 0.0456781
v 0.0183548 1.01148 0
v 0.429293 0.988288 -0.0426512
v 0.236313 1.08592 -0.0778592
v -0.178641 1.18545 -0.100025
v -0.263487 1.21751 -0.105772
v -0.325673 1.23163 -0.0942092
v -0.37649 1.24287 -0.0663894
v -0.406503 1.24918 -0.0243142
v -0.406503 1.24918 0.0243142
v -0.37649 1.24287 0.0663894
v -0.325673 1.23163 0.0942092
v -0.263487 1.21751 0.105772
v -0.178641 1.18545 0.100025
v 0.236313 1.08592 0.0778592
v 0.429293 0.988288 0.0426512
v 0.434634 0.983041 0
v 0.486554 1.10899 -0.0426512
v -0.0247149 1.39622 -0.0778592
v -0.0801689 1.40893 -0.0766007
v -0.144117 1.42358 -0.0810021
v -0.206304 1.43771 -0.0721471
v -0.25712 1.44894 -0.0508422
v -0.287133 1.45525 -0.0186202
v -0.287133 1.45525 0.0186202
v -0.25712 1.44894 0.0508422
v -0.206304 1.43771 0.0721471
v -0.144117 1.42358 0.0810023
v -0.0801689 1.40893 0.0766007
v -0.0247149 1.39622 0.0778592
v 0.486554 1.10899 0.0426512
v 0.5 1.10591 0
v 0.301799 1.29555 -0.0426512
v 0.258394 1.35342 -0.0396692
v 0.275404 1.44836 -0.0291366
v 0.0176871 1.515 -0.0463112
v -0.0460364 1.51253 -0.0412485
v -0.0980279 1.51022 -0.029068
v -0.128653 1.50855 -0.0106456
v -0.128653 1.50855 0.0106456
v -0.0980279 1.51022 0.029068
v -0.0460364 1.51253 0.0412485
v 0.0176871 1.515 0.0463112
v 0.275404 1.44836 0.0291366
v 0.258394 1.35342 0.0396694
v 0.301799 1.29555 0.0426512
v 0.396727 1.2209 0
f 2 1 16 17
f 3 2 17 18
f 4 3 18 19
f 5 4 19 20
f 6 5 20 21
f 7 6 21 22
f 8 7 22 23
f 9 8 23 24
f 10 9 24 25
f 11 10 25 26
f 12 11 26 27
f 13 12 27 28
f 14 13 28 29
f 15 14 29 30
f 1 15 30 16
f 17 16 31 32
f 18 17 32 33
f 19 18 33 34
f 20 19 34 35
f 21 20 35 36
f 22 21 36 37
f 23 22 37 38
f 24 23 38 39
f 25 24 39 40
f 26 25 40 41
f 27 26 41 42
f 28 27 42 43
f 29 28 43 44
f 30 29 44 45
f 16 30 45 31
f 32 31 46 47
f 33 32 47 48
f 34 33 48 49
f 35 34 49 50
f 36 35 50 51
f 37 36 51 52
f 38 37 52 53
f 39 38 53 54
f 40 39 54 55
f 41 40 55 56
f 42 41 56 57
f 43 42 57 58
f 44 43 58 59
f 45 44 59 60
f 31 45 60 46
f 47 46 61 62
f 48 47 62 63
f 49 48 63 64
f 50 49 64 65
f 51 50 65 66
f 52 51 66 67
f 53 52 67 68
f 54 53 68 69
f 55 54 69 70
f 56 55 70 71
f 57 56 71 72
f 58 57 72 73
f 59 58 73 74
f 60 59 74 75
f 46 60 75 61
f 62 61 76 77
f 63 62 77 78
f 64 63 78 79
f 65 64 79 80
f 66 65 80 81
f 67 66 81 82
f 68 67 82 83
f 69 68 83 84
f 70 69 84 85
f 71 70 85 86
f 72 71 86 87
f 73 72 87 88
f 74 73 88 89
f 75 74 89 90
f 61 75 90 76
f 77 76 91 92
f 78 77 92 93
f 79 78 93 94
f 80 79 94 95
f 81 80 95 96
f 82 81 96 97
f 83 82 97 98
f 84 83 98 99
f 85 84 99 100
f 86 85 100 101
f 87 86 101 102
f 88 87 102 103
f 89 88 103 104
f 90 89 104 105
f 76 90 105 91
f 92 91 106 107
f 93 92 107 108
f 94 93 108 109
f 95 94 109 110
f 96 95 110 111
f 97 96 111 112
f 98 97 112 113
f 99 98 113 114
f 100 99 114 115
f 101 100 115 116
f 102 101 116 117
f 103 102 117 118
f 104 103 118 119
f 105 104 119 120
f 91 105 120 106
f 107 106 121 122
f 108 107 122 123
f 109 108 123 124
f 110 109 124 125
f 111 110 125 126
f 112 111 126 127
f 113 112 127 128
f 114 113 128 129
f 115 114 129 130
f 116 115 130 131
f 117 116 131 132
f 118 117 132 133
f 119 118 133 134
f 120 119 134 135
f 106 120 135 121
f 122 121 136 137
f 123 122 137 138
f 124 123 138 139
f 125 124 139 140
f 126 125 140 141
f 127 126 141 142
f 128 127 142 143
f 129 128 143 144
f 130 129 144 145
f 131 130 145 146
f 132 131 146 147
f 133 132 147 148
f 134 133 148 149
f 135 134 149 150
f 121 135 150 136
f 137 136 150 149 148 147 146 145 144 143 142 141 140 139 138
f 1 2 152 151
f 2 3 153 152
f 3 4 154 153
f 4 5 155 154
f 5 6 156 155
f 6 7 157 156
f 7 8 158 157
f 8 9 159 158
f 9 10 160 159
f 10 11 161 160
f 11 12 162 161
f 12 13 163 162
f 13 14 164 163
f 14 15 165 164
f 15 1 151 165
f 151 152 167 166
f 152 153 168 167
f 153 154 169 168
f 154 155 170 169
f 155 156 171 170
f 156 157 172 171
f 157 158 173 172
f 158 159 174 173
f 159 160 175 174
f 160 161 176 175
f 161 162 177 176
f 162 163 178 177
f 163 164 179 178
f 164 165 180 179
f 165 151 166 180
f 166 167 182 181
f 167 168 183 182
f 168 169 184 183
f 169 170 185 184
f 170 171 186 185
f 171 172 187 186
f 172 173 188 187
f 173 174 189 188
f 174 175 190 189
f 175 176 191 190
f 176 177 192 191
f 177 178 193 192
f 178 179 194 193
f 179 180 195 194
f 180 166 181 195
f 181 182 197 196
f 182 183 198 197
f 183 184 199 198
f 184 185 200 199
f 185 186 201 200
f 186 187 202 201
f 187 188 203 202
f 188 189 204 203
f 189 190 205 204
f 190 191 206 205
f 191 192 207 206
f 192 193 208 207
f 193 194 209 208
f 194 195 210 209
f 195 181 196 210
f 196 197 212 211
f 197 198 213 212
f 198 199 214 213
f 199 200 215 214
f 200 201 216 215
f 201 202 217 216
f 202 203 218 217
f 203 204 219 218
f 204 205 220 219
f 205 206 221 220
f 206 207 222 221
f 207 208 223 222
f 208 209 224 223
f 209 210 225 224
f 210 196 211 225
f 213 214 221 222
f 211 212 223 224
f 215 216 219 220
f 213 222 223 212
f 215 220 221 214
f 217 218 219 216
f 225 211 224
