v -0.0396686 1.97085 0.0334665
v -0.018238 2.00337 0.0674828
v -0.0507657 2.00474 0.0334665
v 0.0504041 2.00474 0.0334665
v 0.0178764 2.00337 0.0674828
v 0.0393074 1.97085 0.0334665
v -0.106255 2.05569 0.0349575
v -0.106255 2.08822 0.0674828
v -0.138781 2.08822 0.0349575
v -0.049132 2.02372 0.0353954
v -0.0162434 2.03309 0.0674828
v -0.0216314 2.08044 0.0674828
v -0.0690118 2.0877 0.0674828
v -0.0784451 2.05569 0.0354185
v 0.0780835 2.05569 0.0354185
v 0.0686506 2.0877 0.0674828
v 0.0212625 2.08045 0.0674828
v 0.0158822 2.03309 0.0674828
v 0.0487708 2.02372 0.0353954
v 0.138419 2.08822 0.0349575
v 0.105894 2.08822 0.0674828
v 0.105894 2.05569 0.0349575
v -0.138781 2.10801 0.0349575
v -0.106255 2.10801 0.0674828
v -0.106255 2.14053 0.0349575
v -0.0776996 2.14053 0.0361639
v -0.0690118 2.10853 0.0674828
v -0.0216395 2.11579 0.0674828
v -0.014375 2.16317 0.0674828
v -0.0463808 2.17185 0.0361639
v 0.0460192 2.17185 0.0361639
v 0.0140138 2.16317 0.0674828
v 0.021278 2.11579 0.0674828
v 0.0686506 2.10853 0.0674828
v 0.0773384 2.14053 0.0361639
v 0.105894 2.14053 0.0349575
v 0.105894 2.10801 0.0674828
v 0.138419 2.10801 0.0349575
v -0.0463808 2.19285 0.0349575
v -0.0138549 2.19285 0.0674828
v -0.0138549 2.22538 0.0349575
v 0.0134937 2.22538 0.0349575
v 0.0134937 2.19285 0.0674828
v 0.0460192 2.19285 0.0349575
v -0.0463808 2.19285 -0.0349575
v -0.0138549 2.22538 -0.0349575
v -0.0138549 2.19285 -0.0674828
v 0.0134937 2.19285 -0.0674828
v 0.0134937 2.22538 -0.0349575
v 0.0460192 2.19285 -0.0349575
v -0.106255 2.14053 -0.0349575
v -0.106255 2.10801 -0.0674828
v -0.138781 2.10801 -0.0349575
v -0.0463808 2.17185 -0.0361639
v -0.014375 2.16317 -0.0674828
v -0.0216395 2.11579 -0.0674828
v -0.0690118 2.10853 -0.0674828
v -0.0776996 2.14053 -0.0361639
v 0.0773384 2.14053 -0.0361639
v 0.0686506 2.10853 -0.0674828
v 0.021278 2.11579 -0.0674828
v 0.0140138 2.16317 -0.0674828
v 0.0460192 2.17185 -0.0361639
v 0.138419 2.10801 -0.0349575
v 0.105894 2.10801 -0.0674828
v 0.105894 2.14053 -0.0349575
v -0.138781 2.08822 -0.0349575
v -0.106255 2.08822 -0.0674828
v -0.106255 2.05569 -0.0349575
v -0.0784451 2.05569 -0.0354185
v -0.0690118 2.0877 -0.0674828
v -0.0216237 2.08045 -0.0674828
v -0.0162434 2.03309 -0.0674828
v -0.049132 2.02372 -0.0353954
v 0.0487708 2.02372 -0.0353954
v 0.0158822 2.03309 -0.0674828
v 0.0212702 2.08044 -0.0674828
v 0.0686506 2.0877 -0.0674828
v 0.0780835 2.05569 -0.0354185
v 0.105894 2.05569 -0.0349575
v 0.105894 2.08822 -0.0674828
v 0.138419 2.08822 -0.0349575
v -0.0507657 2.00474 -0.0334665
v -0.018238 2.00337 -0.0674828
v -0.0396686 1.97085 -0.0362132
v 0.0393074 1.97085 -0.0362132
v 0.0178764 2.00337 -0.0674828
v 0.0504041 2.00474 -0.0334665
v 0.213981 1.84071 -0.0963341
v 0.156092 1.84071 -0.176011
v 0.234458 1.84071 -0
v 0.135957 1.6802 -0.0611667
v 0.0992007 1.6802 -0.111757
v 0.0708005 1.84071 -0.225254
v 0.213981 1.84071 0.0963341
v 0.148958 1.6802 -0
v 0.0450454 1.6802 -0.143024
v 0.183572 1.62203 -0.0826187
v 0.133925 1.62203 -0.150952
v -0.0271463 1.84071 -0.235549
v 0.156092 1.84071 0.176011
v 0.135957 1.6802 0.0611667
v 0.201133 1.62203 -0
v -0.0171451 1.6802 -0.14956
v 0.0607765 1.62203 -0.193184
v 0.166763 1.58283 -0.0750378
v 0.121671 1.58283 -0.137101
v -0.120812 1.84071 -0.205115
v 0.0708005 1.84071 0.225254
v 0.0992007 1.6802 0.111757
v 0.183572 1.62203 0.0826187
v 0.182712 1.58283 -0
v -0.0766179 1.6802 -0.130236
v -0.0232247 1.62203 -0.202013
v 0.0552343 1.58283 -0.175458
v 0.258217 1.53726 -0.116357
v 0.188296 1.53726 -0.212596
v -0.194002 1.84071 -0.139215
v -0.0271463 1.84071 0.235549
v 0.0450454 1.6802 0.143024
v 0.133925 1.62203 0.150952
v 0.166763 1.58283 0.0750378
v 0.28295 1.53726 -0
v -0.123089 1.6802 -0.0883935
v -0.103555 1.62203 -0.175912
v -0.0210598 1.58283 -0.183477
v 0.0852768 1.53726 -0.272074
v 0.258217 1.49656 -0.116357
v 0.188296 1.49656 -0.212596
v -0.23406 1.84071 -0.0492431
v -0.120812 1.84071 0.205115
v -0.0171451 1.6802 0.14956
v 0.0607765 1.62203 0.193184
v 0.121671 1.58283 0.137101
v 0.258217 1.53726 0.116357
v 0.28295 1.49656 -0
v -0.148523 1.6802 -0.0312666
v -0.166325 1.62203 -0.119394
v -0.094019 1.58283 -0.159771
v -0.0330289 1.53726 -0.284508
v 0.0852768 1.49656 -0.272074
v 0.226301 1.47366 -0.101975
v 0.165022 1.47366 -0.186318
v -0.23406 1.84071 0.0492431
v -0.194002 1.84071 0.139215
v -0.0766179 1.6802 0.130236
v -0.0232247 1.62203 0.202013
v 0.0552343 1.58283 0.175458
v 0.188296 1.53726 0.212596
v 0.258217 1.49656 0.116357
v 0.247976 1.47366 -0
v -0.148523 1.6802 0.0312666
v -0.20068 1.62203 -0.0422322
v -0.151028 1.58283 -0.108439
v -0.146164 1.53726 -0.247749
v -0.0330289 1.49656 -0.284508
v 0.0747359 1.47366 -0.238445
v 0.170132 1.45129 -0.0766648
v 0.124063 1.45129 -0.140073
v -0.123089 1.6802 0.0883935
v -0.103555 1.62203 0.175912
v -0.0210598 1.58283 0.183477
v 0.0852768 1.53726 0.272074
v 0.188296 1.49656 0.212596
v 0.226301 1.47366 0.101975
v 0.186428 1.45129 0
v -0.20068 1.62203 0.0422322
v -0.182231 1.58283 -0.0383571
v -0.234566 1.53726 -0.168151
v -0.146164 1.49656 -0.247749
v -0.0289458 1.47366 -0.249342
v 0.0561865 1.45129 -0.179262
v 0.161235 1.39697 -0.0726553
v 0.117576 1.39697 -0.132748
v -0.166325 1.62203 0.119394
v -0.094019 1.58283 0.159771
v -0.0330289 1.53726 0.284508
v 0.0852768 1.49656 0.272074
v 0.165022 1.47366 0.186318
v 0.170132 1.45129 0.0766648
v 0.176678 1.39697 0
v -0.182231 1.58283 0.0383571
v -0.28295 1.53726 -0.0594785
v -0.234566 1.49656 -0.168151
v -0.128097 1.47366 -0.217126
v -0.0217617 1.45129 -0.187455
v 0.0532483 1.39697 -0.169887
v 0.151508 1.12275 -0.0682722
v 0.110482 1.12275 -0.124739
v -0.151028 1.58283 0.108439
v -0.146164 1.53726 0.247749
v -0.0330289 1.49656 0.284508
v 0.0747359 1.47366 0.238445
v 0.124063 1.45129 0.140073
v 0.161235 1.39697 0.0726553
v 0.166019 1.12275 0
v -0.28295 1.53726 0.0594785
v -0.28295 1.49656 -0.0594785
v -0.205572 1.47366 -0.147367
v -0.0963026 1.45129 -0.163235
v -0.0206238 1.39697 -0.177651
v 0.050036 1.12275 -0.159638
v 0.175501 0.78025 -0.0790838
v 0.127978 0.78025 -0.144493
v -0.234566 1.53726 0.168151
v -0.146164 1.49656 0.247749
v -0.0289461 1.47366 0.249342
v 0.0561861 1.45129 0.179262
v 0.117576 1.39697 0.132748
v 0.151508 1.12275 0.0682722
v 0.19231 0.78025 0
v -0.28295 1.49656 0.0594785
v -0.247976 1.47366 -0.0521268
v -0.154548 1.45129 -0.11079
v -0.0912666 1.39697 -0.154698
v -0.0193794 1.12275 -0.166934
v 0.0579594 0.78025 -0.184918
v 0.242281 0.550843 -0.109177
v 0.176676 0.550843 -0.199475
v -0.234566 1.49656 0.168151
v -0.128097 1.47366 0.217126
v -0.0217617 1.45129 0.187455
v 0.0532483 1.39697 0.169887
v 0.110482 1.12275 0.124739
v 0.175501 0.78025 0.0790838
v 0.265488 0.550843 -0
v -0.247976 1.47366 0.0521268
v -0.186428 1.45129 -0.0391888
v -0.146467 1.39697 -0.104996
v -0.0857602 1.12275 -0.145366
v -0.0224483 0.78025 -0.19337
v 0.0800137 0.550843 -0.255283
v 0.271714 0.541027 -0.122439
v 0.198139 0.541027 -0.223707
v -0.205573 1.47366 0.147367
v -0.0963026 1.45129 0.163235
v -0.0206238 1.39697 0.177651
v 0.050036 1.12275 0.159638
v 0.127978 0.78025 0.144493
v 0.242281 0.550843 0.109177
v 0.297739 0.541027 -0
v -0.186428 1.45129 0.0391886
v -0.176678 1.39697 -0.0371392
v -0.13763 1.12275 -0.0986618
v -0.0993418 0.78025 -0.168386
v -0.0309904 0.550843 -0.26695
v 0.0897339 0.541027 -0.286295
v 0.271714 0.453695 -0.122439
v 0.198139 0.453695 -0.223707
v -0.154548 1.45129 0.11079
v -0.0912666 1.39697 0.154698
v -0.0193794 1.12275 0.166934
v 0.057959 0.78025 0.184918
v 0.176676 0.550843 0.199475
v 0.271714 0.541027 0.122439
v 0.297739 0.453695 -0
v -0.176678 1.39697 0.0371392
v -0.166019 1.12275 -0.0348987
v -0.159426 0.78025 -0.114286
v -0.137143 0.550843 -0.232459
v -0.0347547 0.541027 -0.299379
v 0.0897339 0.453695 -0.286295
v 0.317577 0.396881 -0.143106
v 0.231583 0.396881 -0.261468
v -0.146467 1.39697 0.104996
v -0.0857602 1.12275 0.145366
v -0.0224483 0.78025 0.19337
v 0.0800137 0.550843 0.255283
v 0.198139 0.541027 0.223708
v 0.271714 0.453695 0.122439
v 0.347996 0.396881 -0
v -0.166019 1.12275 0.0348987
v -0.19231 0.78025 -0.0404253
v -0.220089 0.550843 -0.157773
v -0.153803 0.541027 -0.260698
v -0.0347547 0.453695 -0.299379
v 0.10488 0.396881 -0.334619
v 0.384692 0.324708 -0.173349
v 0.280524 0.324708 -0.316724
v -0.13763 1.12275 0.0986618
v -0.0993418 0.78025 0.168386
v -0.0309904 0.550843 0.26695
v 0.0897339 0.541027 0.286295
v 0.198139 0.453695 0.223708
v 0.317577 0.396881 0.143106
v 0.421538 0.324708 -0
v -0.19231 0.78025 0.0404253
v -0.265488 0.550843 -0.0558078
v -0.246826 0.541027 -0.17694
v -0.153803 0.453695 -0.260698
v -0.0406211 0.396881 -0.349912
v 0.127045 0.324708 -0.405335
v 0.444746 0.274435 -0.200411
v 0.324316 0.274435 -0.366169
v -0.159426 0.78025 0.114286
v -0.137143 0.550843 0.232459
v -0.0347547 0.541027 0.299379
v 0.0897339 0.453695 0.286295
v 0.231583 0.396881 0.261468
v 0.384692 0.324708 0.173349
v 0.487345 0.274435 -0
v -0.265488 0.550843 0.0558078
v -0.297739 0.541027 -0.0625873
v -0.246826 0.453695 -0.17694
v -0.179764 0.396881 -0.304702
v -0.049206 0.324708 -0.42386
v 0.146878 0.274435 -0.468613
v 0.456295 0.217023 -0.205615
v 0.332738 0.217023 -0.375677
v -0.220089 0.550843 0.157773
v -0.153803 0.541027 0.260698
v -0.0347547 0.453695 0.299379
v 0.10488 0.396881 0.334619
v 0.280524 0.324708 0.316725
v 0.444746 0.274435 0.200411
v 0.5 0.217023 -0
v -0.297739 0.541027 0.0625873
v -0.297739 0.453695 -0.0625873
v -0.288488 0.396881 -0.206806
v -0.217754 0.324708 -0.369096
v -0.0568877 0.274435 -0.49003
v 0.150692 0.217023 -0.480781
v 0.456295 0.184711 -0.205615
v 0.332738 0.184711 -0.375677
v -0.246826 0.541027 0.17694
v -0.153803 0.453695 0.260698
v -0.0406211 0.396881 0.349912
v 0.127045 0.324708 0.405335
v 0.324316 0.274435 0.366169
v 0.456295 0.217023 0.205615
v 0.5 0.184711 -0
v -0.297739 0.453695 0.0625873
v -0.347995 0.396881 -0.0731517
v -0.349456 0.324708 -0.250511
v -0.251747 0.274435 -0.426716
v -0.0583649 0.217023 -0.502754
v 0.150692 0.184711 -0.480781
v 0.423961 0.127296 -0.191045
v 0.309159 0.127296 -0.349055
v -0.246826 0.453695 0.17694
v -0.179764 0.396881 0.304702
v -0.0492064 0.324708 0.42386
v 0.146878 0.274435 0.468613
v 0.332738 0.217023 0.375677
v 0.456295 0.184711 0.205615
v 0.464569 0.127296 -0
v -0.347995 0.396881 0.0731515
v -0.421538 0.324708 -0.088611
v -0.404009 0.274435 -0.289619
v -0.258285 0.217023 -0.437796
v -0.0583649 0.184711 -0.502754
v 0.140014 0.127296 -0.446712
v 0.455905 0.0954056 -0.205439
v 0.332453 0.0954056 -0.375355
v -0.288488 0.396881 0.206806
v -0.217754 0.324708 0.369096
v -0.0568881 0.274435 0.49003
v 0.150692 0.217023 0.480781
v 0.332738 0.184711 0.375677
v 0.423961 0.127296 0.191045
v 0.499572 0.0954056 -0
v -0.421538 0.324708 0.0886108
v -0.487345 0.274435 -0.102444
v -0.4145 0.217023 -0.297139
v -0.258285 0.184711 -0.437796
v -0.054229 0.127296 -0.467128
v 0.150563 0.0954056 -0.48037
v 0.451345 -4.5363e-08 -0.203384
v 0.329127 -4.5363e-08 -0.371601
v -0.349456 0.324708 0.250511
v -0.251747 0.274435 0.426716
v -0.0583653 0.217023 0.502754
v 0.150692 0.184711 0.480781
v 0.309159 0.127296 0.349056
v 0.455905 0.0954056 0.205439
v 0.494575 -4.5363e-08 -0
v -0.487345 0.274435 0.102444
v -0.5 0.217023 -0.105104
v -0.4145 0.184711 -0.297139
v -0.239982 0.127296 -0.406773
v -0.0583152 0.0954056 -0.502324
v 0.149057 -4.5363e-08 -0.475565
v 0.451345 -4.5363e-08 0.203384
v 0.329127 -4.5363e-08 0.371601
v 0.149057 -4.5363e-08 0.475565
v -0.0577319 -4.5363e-08 0.497299
v -0.255482 -4.5363e-08 0.433046
v -0.410003 -4.5363e-08 0.293915
v -0.494575 -4.5363e-08 0.103964
v -0.494575 -4.5363e-08 -0.103964
v -0.410003 -4.5363e-08 -0.293915
v -0.255482 -4.5363e-08 -0.433046
v -0.0577319 -4.5363e-08 -0.497299
v -0.404009 0.274435 0.289618
v -0.258285 0.217023 0.437796
v -0.0583653 0.184711 0.502754
v 0.140014 0.127296 0.446712
v 0.332453 0.0954056 0.375356
v -0.5 0.217023 0.105104
v -0.5 0.184711 -0.105104
v -0.385128 0.127296 -0.276083
v -0.258064 0.0954056 -0.437422
v 0.150563 0.0954056 0.48037
v -0.0583152 0.0954056 0.502324
v -0.258064 0.0954056 0.437422
v -0.414145 0.0954056 0.296885
v -0.499572 0.0954056 0.105014
v -0.499572 0.0954056 -0.105014
v -0.414145 0.0954056 -0.296885
v -0.4145 0.217023 0.297139
v -0.258285 0.184711 0.437796
v -0.0542293 0.127296 0.467128
v -0.5 0.184711 0.105104
v -0.464569 0.127296 -0.0976563
v -0.239982 0.127296 0.406773
v -0.385128 0.127296 0.276083
v -0.464569 0.127296 0.0976563
v -0.4145 0.184711 0.297139
v 0.233302 1.89546 -0.10504
v 0.170181 1.89546 -0.191918
v 0.255628 1.89546 -0
v 0.0771811 1.89546 -0.245612
v 0.233302 1.89546 0.10504
v -0.0296177 1.89546 -0.256837
v 0.170181 1.89546 0.191918
v -0.131748 1.89546 -0.223652
v 0.0771811 1.89546 0.245612
v -0.211553 1.89546 -0.151796
v -0.0296177 1.89546 0.256837
v -0.255231 1.89546 -0.0536935
v -0.131748 1.89546 0.223652
v -0.255231 1.89546 0.0536935
v -0.211553 1.89546 0.151796
v 0.226883 1.92501 -0.102148
v 0.165501 1.92501 -0.186634
v 0.248596 1.92501 -0
v 0.0750617 1.92501 -0.238849
v 0.226883 1.92501 0.102148
v -0.0287962 1.92501 -0.249765
v 0.165501 1.92501 0.186634
v -0.128115 1.92501 -0.217494
v 0.0750617 1.92501 0.238849
v -0.205722 1.92501 -0.147617
v -0.0287962 1.92501 0.249765
v -0.248197 1.92501 -0.0522151
v -0.128115 1.92501 0.217494
v -0.248197 1.92501 0.0522149
v -0.205722 1.92501 0.147617
v 0.0605726 1.94641 -0.0272056
v 0.0442243 1.94641 -0.0497069
v 0.0663554 1.94641 -0
v 0.0201377 1.94641 -0.0636138
v 0.0605726 1.94641 0.0272056
v -0.00752324 1.94641 -0.0665209
v 0.0442243 1.94641 0.0497069
v -0.0339756 1.94641 -0.0579263
v 0.0201377 1.94641 0.0636138
v -0.0546449 1.94641 -0.0393155
v -0.00752324 1.94641 0.0665209
v -0.0659579 1.94641 -0.0139067
v -0.0339756 1.94641 0.0579263
v -0.0659579 1.94641 0.0139067
v -0.0546449 1.94641 0.0393155
v 0.0429306 1.95264 -0.0192557
v 0.0313597 1.95264 -0.035182
v 0.0470237 1.95264 -0
v 0.014311 1.95264 -0.0450251
v 0.0429306 1.95264 0.0192559
v -0.00526697 1.95264 -0.0470828
v 0.0313597 1.95264 0.035182
v -0.0239895 1.95264 -0.0409995
v 0.014311 1.95264 0.0450251
v -0.0386189 1.95264 -0.0278271
v -0.00526697 1.95264 0.0470828
v -0.0466259 1.95264 -0.00984308
v -0.0239895 1.95264 0.0409995
v -0.0466259 1.95264 0.00984288
v -0.0386189 1.95264 0.0278271
v 0.0276181 1.97438 -0.0123555
v 0.0201932 1.97438 -0.0225747
v 0.0302441 1.97438 -0
v 0.0092541 1.97438 -0.0288904
v 0.0276181 1.97438 0.0123555
v -0.0033079 1.97438 -0.0302108
v 0.0201932 1.97438 0.0225747
v -0.0153217 1.97438 -0.0263074
v 0.0092541 1.97438 0.0288904
v -0.0247088 1.97438 -0.0178553
v -0.0033079 1.97438 0.0302108
v -0.0298466 1.97438 -0.00631568
v -0.0153217 1.97438 0.0263074
v -0.0298466 1.97438 0.00631568
v -0.0247088 1.97438 0.0178553
f 1 3 83 85
f 2 1 6 5
f 3 2 11 10
f 4 6 86 88
f 5 4 19 18
f 7 9 67 69
f 8 7 14 13
f 9 8 24 23
f 10 14 70 74
f 12 11 18 17
f 13 12 28 27
f 15 19 75 79
f 16 15 22 21
f 17 16 34 33
f 20 22 80 82
f 21 20 38 37
f 23 25 51 53
f 25 24 27 26
f 26 30 54 58
f 29 28 33 32
f 30 29 40 39
f 31 35 59 63
f 32 31 44 43
f 35 34 37 36
f 36 38 64 66
f 39 41 46 45
f 41 40 43 42
f 42 44 50 49
f 45 47 55 54
f 47 46 49 48
f 48 50 63 62
f 52 51 58 57
f 53 52 68 67
f 56 55 62 61
f 57 56 72 71
f 60 59 66 65
f 61 60 78 77
f 65 64 82 81
f 69 68 71 70
f 73 72 77 76
f 74 73 84 83
f 76 75 88 87
f 79 78 81 80
f 85 84 87 86
f 2 5 18 11
f 8 13 27 24
f 12 17 33 28
f 16 21 37 34
f 29 32 43 40
f 41 42 49 46
f 47 48 62 55
f 52 57 71 68
f 56 61 77 72
f 60 65 81 78
f 73 76 87 84
f 85 86 6 1
f 20 82 64 38
f 67 9 23 53
f 35 36 66 59
f 22 15 79 80
f 30 39 45 54
f 3 10 74 83
f 14 7 69 70
f 26 58 51 25
f 19 4 88 75
f 44 31 63 50
f 1 2 3
f 4 5 6
f 7 8 9
f 10 11 12 13 14
f 15 16 17 18 19
f 20 21 22
f 23 24 25
f 26 27 28 29 30
f 31 32 33 34 35
f 36 37 38
f 39 40 41
f 42 43 44
f 45 46 47
f 48 49 50
f 51 52 53
f 54 55 56 57 58
f 59 60 61 62 63
f 64 65 66
f 67 68 69
f 70 71 72 73 74
f 75 76 77 78 79
f 80 81 82
f 83 84 85
f 86 87 88
f 90 89 92 93
f 89 91 96 92
f 94 90 93 97
f 93 92 98 99
f 91 95 102 96
f 92 96 103 98
f 100 94 97 104
f 97 93 99 105
f 99 98 106 107
f 95 101 110 102
f 96 102 111 103
f 98 103 112 106
f 108 100 104 113
f 104 97 105 114
f 105 99 107 115
f 107 106 116 117
f 101 109 120 110
f 102 110 121 111
f 103 111 122 112
f 106 112 123 116
f 118 108 113 124
f 113 104 114 125
f 114 105 115 126
f 115 107 117 127
f 117 116 128 129
f 109 119 132 120
f 110 120 133 121
f 111 121 134 122
f 112 122 135 123
f 116 123 136 128
f 130 118 124 137
f 124 113 125 138
f 125 114 126 139
f 126 115 127 140
f 127 117 129 141
f 129 128 142 143
f 119 131 146 132
f 120 132 147 133
f 121 133 148 134
f 122 134 149 135
f 123 135 150 136
f 128 136 151 142
f 144 130 137 152
f 137 124 138 153
f 138 125 139 154
f 139 126 140 155
f 140 127 141 156
f 141 129 143 157
f 143 142 158 159
f 131 145 160 146
f 132 146 161 147
f 133 147 162 148
f 134 148 163 149
f 135 149 164 150
f 136 150 165 151
f 142 151 166 158
f 145 144 152 160
f 152 137 153 167
f 153 138 154 168
f 154 139 155 169
f 155 140 156 170
f 156 141 157 171
f 157 143 159 172
f 159 158 173 174
f 146 160 175 161
f 147 161 176 162
f 148 162 177 163
f 149 163 178 164
f 150 164 179 165
f 151 165 180 166
f 158 166 181 173
f 160 152 167 175
f 167 153 168 182
f 168 154 169 183
f 169 155 170 184
f 170 156 171 185
f 171 157 172 186
f 172 159 174 187
f 174 173 188 189
f 161 175 190 176
f 162 176 191 177
f 163 177 192 178
f 164 178 193 179
f 165 179 194 180
f 166 180 195 181
f 173 181 196 188
f 175 167 182 190
f 182 168 183 197
f 183 169 184 198
f 184 170 185 199
f 185 171 186 200
f 186 172 187 201
f 187 174 189 202
f 189 188 203 204
f 176 190 205 191
f 177 191 206 192
f 178 192 207 193
f 179 193 208 194
f 180 194 209 195
f 181 195 210 196
f 188 196 211 203
f 190 182 197 205
f 197 183 198 212
f 198 184 199 213
f 199 185 200 214
f 200 186 201 215
f 201 187 202 216
f 202 189 204 217
f 204 203 218 219
f 191 205 220 206
f 192 206 221 207
f 193 207 222 208
f 194 208 223 209
f 195 209 224 210
f 196 210 225 211
f 203 211 226 218
f 205 197 212 220
f 212 198 213 227
f 213 199 214 228
f 214 200 215 229
f 215 201 216 230
f 216 202 217 231
f 217 204 219 232
f 219 218 233 234
f 206 220 235 221
f 207 221 236 222
f 208 222 237 223
f 209 223 238 224
f 210 224 239 225
f 211 225 240 226
f 218 226 241 233
f 220 212 227 235
f 227 213 228 242
f 228 214 229 243
f 229 215 230 244
f 230 216 231 245
f 231 217 232 246
f 232 219 234 247
f 234 233 248 249
f 221 235 250 236
f 222 236 251 237
f 223 237 252 238
f 224 238 253 239
f 225 239 254 240
f 226 240 255 241
f 233 241 256 248
f 235 227 242 250
f 242 228 243 257
f 243 229 244 258
f 244 230 245 259
f 245 231 246 260
f 246 232 247 261
f 247 234 249 262
f 249 248 263 264
f 236 250 265 251
f 237 251 266 252
f 238 252 267 253
f 239 253 268 254
f 240 254 269 255
f 241 255 270 256
f 248 256 271 263
f 250 242 257 265
f 257 243 258 272
f 258 244 259 273
f 259 245 260 274
f 260 246 261 275
f 261 247 262 276
f 262 249 264 277
f 264 263 278 279
f 251 265 280 266
f 252 266 281 267
f 253 267 282 268
f 254 268 283 269
f 255 269 284 270
f 256 270 285 271
f 263 271 286 278
f 265 257 272 280
f 272 258 273 287
f 273 259 274 288
f 274 260 275 289
f 275 261 276 290
f 276 262 277 291
f 277 264 279 292
f 279 278 293 294
f 266 280 295 281
f 267 281 296 282
f 268 282 297 283
f 269 283 298 284
f 270 284 299 285
f 271 285 300 286
f 278 286 301 293
f 280 272 287 295
f 287 273 288 302
f 288 274 289 303
f 289 275 290 304
f 290 276 291 305
f 291 277 292 306
f 292 279 294 307
f 294 293 308 309
f 281 295 310 296
f 282 296 311 297
f 283 297 312 298
f 284 298 313 299
f 285 299 314 300
f 286 300 315 301
f 293 301 316 308
f 295 287 302 310
f 302 288 303 317
f 303 289 304 318
f 304 290 305 319
f 305 291 306 320
f 306 292 307 321
f 307 294 309 322
f 309 308 323 324
f 296 310 325 311
f 297 311 326 312
f 298 312 327 313
f 299 313 328 314
f 300 314 329 315
f 301 315 330 316
f 308 316 331 323
f 310 302 317 325
f 317 303 318 332
f 318 304 319 333
f 319 305 320 334
f 320 306 321 335
f 321 307 322 336
f 322 309 324 337
f 324 323 338 339
f 311 325 340 326
f 312 326 341 327
f 313 327 342 328
f 314 328 343 329
f 315 329 344 330
f 316 330 345 331
f 323 331 346 338
f 325 317 332 340
f 332 318 333 347
f 333 319 334 348
f 334 320 335 349
f 335 321 336 350
f 336 322 337 351
f 337 324 339 352
f 339 338 353 354
f 326 340 355 341
f 327 341 356 342
f 328 342 357 343
f 329 343 358 344
f 330 344 359 345
f 331 345 360 346
f 338 346 361 353
f 340 332 347 355
f 347 333 348 362
f 348 334 349 363
f 349 335 350 364
f 350 336 351 365
f 351 337 352 366
f 352 339 354 367
f 354 353 368 369
f 341 355 370 356
f 342 356 371 357
f 343 357 372 358
f 344 358 373 359
f 345 359 374 360
f 346 360 375 361
f 353 361 376 368
f 355 347 362 370
f 362 348 363 377
f 363 349 364 378
f 364 350 365 379
f 365 351 366 380
f 366 352 367 381
f 367 354 369 382
f 369 368 376 383 384 385 386 387 388 389 390 391 392 393 382
f 356 370 394 371
f 357 371 395 372
f 358 372 396 373
f 359 373 397 374
f 360 374 398 375
f 361 375 383 376
f 370 362 377 394
f 377 363 378 399
f 378 364 379 400
f 379 365 380 401
f 380 366 381 402
f 381 367 382 393
f 375 398 384 383
f 398 403 385 384
f 403 404 386 385
f 404 405 387 386
f 405 406 388 387
f 406 407 389 388
f 407 408 390 389
f 408 409 391 390
f 409 402 392 391
f 402 381 393 392
f 371 394 410 395
f 372 395 411 396
f 373 396 412 397
f 374 397 403 398
f 394 377 399 410
f 399 378 400 413
f 400 379 401 414
f 401 380 402 409
f 397 412 404 403
f 412 415 405 404
f 415 416 406 405
f 416 417 407 406
f 417 414 408 407
f 414 401 409 408
f 395 410 418 411
f 396 411 415 412
f 410 399 413 418
f 413 400 414 417
f 411 418 416 415
f 418 413 417 416
f 89 90 420 419
f 91 89 419 421
f 90 94 422 420
f 95 91 421 423
f 94 100 424 422
f 101 95 423 425
f 100 108 426 424
f 109 101 425 427
f 108 118 428 426
f 119 109 427 429
f 118 130 430 428
f 131 119 429 431
f 130 144 432 430
f 145 131 431 433
f 144 145 433 432
f 419 420 435 434
f 421 419 434 436
f 420 422 437 435
f 423 421 436 438
f 422 424 439 437
f 425 423 438 440
f 424 426 441 439
f 427 425 440 442
f 426 428 443 441
f 429 427 442 444
f 428 430 445 443
f 431 429 444 446
f 430 432 447 445
f 433 431 446 448
f 432 433 448 447
f 434 435 450 449
f 436 434 449 451
f 435 437 452 450
f 438 436 451 453
f 437 439 454 452
f 440 438 453 455
f 439 441 456 454
f 442 440 455 457
f 441 443 458 456
f 444 442 457 459
f 443 445 460 458
f 446 444 459 461
f 445 447 462 460
f 448 446 461 463
f 447 448 463 462
f 449 450 465 464
f 451 449 464 466
f 450 452 467 465
f 453 451 466 468
f 452 454 469 467
f 455 453 468 470
f 454 456 471 469
f 457 455 470 472
f 456 458 473 471
f 459 457 472 474
f 458 460 475 473
f 461 459 474 476
f 460 462 477 475
f 463 461 476 478
f 462 463 478 477
f 464 465 480 479
f 466 464 479 481
f 465 467 482 480
f 468 466 481 483
f 467 469 484 482
f 470 468 483 485
f 469 471 486 484
f 472 470 485 487
f 471 473 488 486
f 474 472 487 489
f 473 475 490 488
f 476 474 489 491
f 475 477 492 490
f 478 476 491 493
f 477 478 493 492
