v 0.0989981 1.12631 -0.0446104
v 0.0721911 1.12631 -0.0815071
v 0.0326943 1.12631 -0.104311
v -0.0126629 1.12631 -0.109078
v -0.0560375 1.12631 -0.0949846
v -0.0899301 1.12631 -0.0644674
v -0.10848 1.12631 -0.0228035
v -0.10848 1.12631 0.0228035
v -0.0899304 1.12631 0.0644674
v -0.0560375 1.12631 0.0949846
v -0.0126629 1.12631 0.109078
v 0.0326943 1.12631 0.104311
v 0.0721911 1.12631 0.0815071
v 0.0989981 1.12631 0.0446104
v 0.108481 1.12631 0
v 0.14872 1.16164 -0.066779
v 0.108591 1.16164 -0.122011
v 0.0494668 1.16164 -0.156147
v -0.0184302 1.16164 -0.163283
v -0.0833598 1.16164 -0.142186
v -0.134095 1.16164 -0.096504
v -0.161863 1.16164 -0.0341356
v -0.161863 1.16164 0.0341353
v -0.134095 1.16164 0.096504
v -0.0833598 1.16164 0.142186
v -0.0184302 1.16164 0.163283
v 0.0494668 1.16164 0.156147
v 0.108591 1.16164 0.122011
v 0.14872 1.16164 0.066779
v 0.162914 1.16164 -0
v 0.182429 1.20548 -0.0817872
v 0.133281 1.20548 -0.149433
v 0.0608693 1.20548 -0.19124
v -0.022287 1.20548 -0.19998
v -0.101809 1.20548 -0.174142
v -0.163947 1.20548 -0.118193
v -0.197956 1.20548 -0.0418072
v -0.197956 1.20548 0.0418072
v -0.163947 1.20548 0.118193
v -0.101809 1.20548 0.174142
v -0.0222873 1.20548 0.19998
v 0.0608693 1.20548 0.19124
v 0.133281 1.20548 0.149433
v 0.182429 1.20548 0.0817874
v 0.199813 1.20548 -0
v 0.203619 1.25653 -0.0912217
v 0.148802 1.25653 -0.166671
v 0.0680371 1.25653 -0.213301
v -0.0247119 1.25653 -0.223049
v -0.113407 1.25653 -0.19423
v -0.182713 1.25653 -0.131827
v -0.220645 1.25653 -0.04663
v -0.220645 1.25653 0.04663
v -0.182713 1.25653 0.131827
v -0.113407 1.25653 0.19423
v -0.0247119 1.25653 0.223049
v 0.0680371 1.25653 0.213301
v 0.148802 1.25653 0.166671
v 0.203619 1.25653 0.091222
v 0.223009 1.25653 -0
v 0.210847 1.31132 -0.0944397
v 0.154096 1.31132 -0.17255
v 0.070482 1.31132 -0.220825
v -0.0255389 1.31132 -0.230917
v -0.117363 1.31132 -0.201082
v -0.189113 1.31132 -0.136478
v -0.228384 1.31132 -0.048275
v -0.228384 1.31132 0.0482747
v -0.189113 1.31132 0.136477
v -0.117363 1.31132 0.201082
v -0.0255389 1.31132 0.230917
v 0.070482 1.31132 0.220825
v 0.154096 1.31132 0.17255
v 0.210847 1.31132 0.0944399
v 0.230921 1.31132 -0
v 0.203619 1.3661 -0.0912217
v 0.148802 1.3661 -0.166671
v 0.0680371 1.3661 -0.213301
v -0.0247119 1.3661 -0.223049
v -0.113407 1.3661 -0.19423
v -0.182713 1.3661 -0.131827
v -0.220645 1.3661 -0.04663
v -0.220645 1.3661 0.04663
v -0.182713 1.3661 0.131827
v -0.113407 1.3661 0.19423
v -0.0247119 1.3661 0.223049
v 0.0680371 1.3661 0.213301
v 0.148802 1.3661 0.166671
v 0.203619 1.3661 0.091222
v 0.223009 1.3661 -0
v 0.182429 1.41716 -0.0817872
v 0.133281 1.41716 -0.149433
v 0.0608693 1.41716 -0.19124
v -0.022287 1.41716 -0.19998
v -0.101809 1.41716 -0.174142
v -0.163947 1.41716 -0.118193
v -0.197956 1.41716 -0.0418072
v -0.197956 1.41716 0.0418072
v -0.163947 1.41716 0.118193
v -0.101809 1.41716 0.174142
v -0.0222873 1.41716 0.19998
v 0.0608693 1.41716 0.19124
v 0.133281 1.41716 0.149433
v 0.182429 1.41716 0.0817874
v 0.199813 1.41716 -0
v 0.14872 1.461 -0.066779
v 0.108591 1.461 -0.122011
v 0.0494668 1.461 -0.156147
v -0.0184302 1.461 -0.163283
v -0.0833598 1.461 -0.142186
v -0.134095 1.461 -0.096504
v -0.161863 1.461 -0.0341356
v -0.161863 1.461 0.0341353
v -0.134095 1.461 0.096504
v -0.0833598 1.461 0.142186
v -0.0184302 1.461 0.163283
v 0.0494668 1.461 0.156147
v 0.108591 1.461 0.122011
v 0.14872 1.461 0.066779
v 0.162914 1.461 -0
v 0.104789 1.49464 -0.0472199
v 0.0764141 1.49464 -0.0862751
v 0.0346068 1.49464 -0.110413
v -0.0134036 1.49464 -0.115459
v -0.0593158 1.49464 -0.100541
v -0.0951908 1.49464 -0.0682386
v -0.114826 1.49464 -0.0241375
v -0.114826 1.49464 0.0241375
v -0.0951908 1.49464 0.0682386
v -0.0593158 1.49464 0.100541
v -0.0134036 1.49464 0.115459
v 0.0346068 1.49464 0.110413
v 0.0764141 1.49464 0.0862751
v 0.104789 1.49464 0.0472199
v 0.114826 1.49464 -0
v 0.0536311 1.51578 -0.0244427
v 0.0389429 1.51578 -0.0446592
v 0.0173019 1.51578 -0.0571536
v -0.00754984 1.51578 -0.0597657
v -0.031316 1.51578 -0.0520438
v -0.0498863 1.51578 -0.035323
v -0.0600501 1.51578 -0.0124944
v -0.0600501 1.51578 0.0124944
v -0.0498863 1.51578 0.035323
v -0.031316 1.51578 0.0520438
v -0.00755029 1.51578 0.0597657
v 0.0173019 1.51578 0.0571538
v 0.0389429 1.51578 0.0446592
v 0.0536311 1.51578 0.0244429
v 0.0588265 1.51578 -0
v -0.00126857 1.523 -0
v 0.0989981 1.12211 -0.0446104
v 0.0721911 1.12211 -0.0815071
v 0.0326943 1.12211 -0.104311
v -0.0126629 1.12211 -0.109078
v -0.0560375 1.12211 -0.0949846
v -0.0899301 1.12211 -0.0644674
v -0.10848 1.12211 -0.0228035
v -0.10848 1.12211 0.0228035
v -0.0899304 1.12211 0.0644674
v -0.0560375 1.12211 0.0949846
v -0.0126629 1.12211 0.109078
v 0.0326943 1.12211 0.104311
v 0.0721911 1.12211 0.0815071
v 0.0989981 1.12211 0.0446104
v 0.108481 1.12211 0
v 0.219317 1.07186 -0.0988283
v 0.15993 1.07186 -0.180568
v 0.0724299 1.07186 -0.231086
v -0.028053 1.07186 -0.241647
v -0.124144 1.07186 -0.210426
v -0.199229 1.07186 -0.142819
v -0.240324 1.07186 -0.0505182
v -0.240324 1.07186 0.0505182
v -0.199229 1.07186 0.142819
v -0.124144 1.07186 0.210426
v -0.028053 1.07186 0.241647
v 0.0724299 1.07186 0.231086
v 0.15993 1.07186 0.180568
v 0.219317 1.07186 0.0988283
v 0.240324 1.07186 -0
v 0.219317 1.04457 -0.0988283
v 0.15993 1.04457 -0.180568
v 0.0724299 1.04457 -0.231086
v -0.028053 1.04457 -0.241647
v -0.124144 1.04457 -0.210426
v -0.199229 1.04457 -0.142819
v -0.240324 1.04457 -0.0505182
v -0.240324 1.04457 0.0505182
v -0.199229 1.04457 0.142819
v -0.124144 1.04457 0.210426
v -0.028053 1.04457 0.241647
v 0.0724299 1.04457 0.231086
v 0.15993 1.04457 0.180568
v 0.219317 1.04457 0.0988283
v 0.240324 1.04457 -0
v 0.170582 1.03268 -0.0768671
v 0.124391 1.03268 -0.140443
v 0.0563348 1.03268 -0.179735
v -0.0218192 1.03268 -0.18795
v -0.0965572 1.03268 -0.163666
v -0.154957 1.03268 -0.111083
v -0.18692 1.03268 -0.0392923
v -0.18692 1.03268 0.0392923
v -0.154957 1.03268 0.111083
v -0.0965572 1.03268 0.163666
v -0.0218192 1.03268 0.18795
v 0.0563348 1.03268 0.179735
v 0.124391 1.03268 0.140443
v 0.170582 1.03268 0.0768671
v 0.18692 1.03268 0
v 0.128243 1.01582 -0.0577884
v 0.0935166 1.01582 -0.105585
v 0.0423522 1.01582 -0.135124
v -0.0164034 1.01582 -0.1413
v -0.0725915 1.01582 -0.123044
v -0.116496 1.01582 -0.0835116
v -0.140526 1.01582 -0.0295398
v -0.140526 1.01582 0.0295398
v -0.116496 1.01582 0.0835116
v -0.0725915 1.01582 0.123044
v -0.0164034 1.01582 0.1413
v 0.0423522 1.01582 0.135124
v 0.0935166 1.01582 0.105585
v 0.128243 1.01582 0.0577884
v 0.140526 1.01582 0
v 0.121536 0.97487 -0.0547664
v 0.0886262 0.97487 -0.100063
v 0.0401374 0.97487 -0.128058
v -0.0155457 0.97487 -0.13391
v -0.0687951 0.97487 -0.116609
v -0.110404 0.97487 -0.079144
v -0.133177 0.97487 -0.0279948
v -0.133177 0.97487 0.0279948
v -0.110404 0.97487 0.079144
v -0.0687951 0.97487 0.116609
v -0.0155457 0.97487 0.13391
v 0.0401374 0.97487 0.128058
v 0.0886262 0.97487 0.100063
v 0.121536 0.97487 0.0547664
v 0.133177 0.97487 0
v 0.122652 0.874144 -0.0552694
v 0.0894401 0.874144 -0.100982
v 0.0405062 0.874144 -0.129234
v -0.0156885 0.874144 -0.13514
v -0.069427 0.874144 -0.11768
v -0.111418 0.874144 -0.0798712
v -0.1344 0.874144 -0.028252
v -0.1344 0.874144 0.028252
v -0.111418 0.874144 0.0798712
v -0.069427 0.874144 0.11768
v -0.0156885 0.874144 0.135141
v 0.0405062 0.874144 0.129234
v 0.0894401 0.874144 0.100982
v 0.122652 0.874144 0.0552694
v 0.1344 0.874144 0
v 0.159529 0.649951 -0.0718869
v 0.116332 0.649951 -0.131344
v 0.0526849 0.649951 -0.16809
v -0.0204055 0.649951 -0.175772
v -0.0903013 0.649951 -0.153062
v -0.144917 0.649951 -0.103885
v -0.174809 0.649951 -0.0367465
v -0.174809 0.649951 0.0367465
v -0.144917 0.649951 0.103885
v -0.0903013 0.649951 0.153062
v -0.0204055 0.649951 0.175772
v 0.0526849 0.649951 0.16809
v 0.116332 0.649951 0.131344
v 0.159529 0.649951 0.0718869
v 0.174809 0.649951 0
v 0.208428 0.567477 -0.0939216
v 0.151989 0.567477 -0.171603
v 0.0688336 0.567477 -0.219613
v -0.0266601 0.567477 -0.22965
v -0.11798 0.567477 -0.199978
v -0.189337 0.567477 -0.135728
v -0.228392 0.567477 -0.0480099
v -0.228392 0.567477 0.0480099
v -0.189337 0.567477 0.135728
v -0.11798 0.567477 0.199978
v -0.0266601 0.567477 0.22965
v 0.0688336 0.567477 0.219613
v 0.151989 0.567477 0.171603
v 0.208428 0.567477 0.0939216
v 0.228392 0.567477 -0
v 0.233748 0.558207 -0.105331
v 0.170453 0.558207 -0.192449
v 0.0771956 0.558207 -0.246292
v -0.0298989 0.558207 -0.257548
v -0.132313 0.558207 -0.224272
v -0.212338 0.558207 -0.152217
v -0.256137 0.558207 -0.0538421
v -0.256137 0.558207 0.0538421
v -0.212338 0.558207 0.152217
v -0.132313 0.558207 0.224272
v -0.0298989 0.558207 0.257548
v 0.0771956 0.558207 0.246292
v 0.170453 0.558207 0.19245
v 0.233748 0.558207 0.105331
v 0.256137 0.558207 -0
v 0.233748 0.47573 -0.105331
v 0.170453 0.47573 -0.192449
v 0.0771956 0.47573 -0.246292
v -0.0298989 0.47573 -0.257548
v -0.132313 0.47573 -0.224272
v -0.212338 0.47573 -0.152217
v -0.256137 0.47573 -0.0538421
v -0.256137 0.47573 0.0538421
v -0.212338 0.47573 0.152217
v -0.132313 0.47573 0.224272
v -0.0298989 0.47573 0.257548
v 0.0771956 0.47573 0.246292
v 0.170453 0.47573 0.19245
v 0.233748 0.47573 0.105331
v 0.256137 0.47573 -0
v 0.286057 0.399056 -0.128903
v 0.208597 0.399056 -0.235516
v 0.0944708 0.399056 -0.301408
v -0.0365897 0.399056 -0.315183
v -0.161922 0.399056 -0.27446
v -0.259855 0.399056 -0.18628
v -0.313456 0.399056 -0.0658911
v -0.313456 0.399056 0.0658911
v -0.259855 0.399056 0.18628
v -0.161922 0.399056 0.27446
v -0.0365897 0.399056 0.315183
v 0.0944704 0.399056 0.301408
v 0.208597 0.399056 0.235517
v 0.286057 0.399056 0.128903
v 0.313456 0.399056 -0
v 0.384691 0.324708 -0.173349
v 0.280523 0.324708 -0.316724
v 0.127045 0.324708 -0.405335
v -0.049206 0.324708 -0.42386
v -0.217754 0.324708 -0.369096
v -0.349455 0.324708 -0.250511
v -0.421538 0.324708 -0.0886109
v -0.421538 0.324708 0.0886109
v -0.349455 0.324708 0.250511
v -0.217754 0.324708 0.369096
v -0.0492063 0.324708 0.42386
v 0.127045 0.324708 0.405335
v 0.280523 0.324708 0.316725
v 0.384691 0.324708 0.173349
v 0.421538 0.324708 -0
v 0.444746 0.274435 -0.200411
v 0.324316 0.274435 -0.366168
v 0.146878 0.274435 -0.468613
v -0.0568877 0.274435 -0.490029
v -0.251748 0.274435 -0.426716
v -0.404009 0.274435 -0.289618
v -0.487345 0.274435 -0.102444
v -0.487345 0.274435 0.102444
v -0.404009 0.274435 0.289618
v -0.251748 0.274435 0.426716
v -0.0568877 0.274435 0.490029
v 0.146878 0.274435 0.468613
v 0.324316 0.274435 0.366169
v 0.444746 0.274435 0.200411
v 0.487345 0.274435 -0
v 0.456295 0.217023 -0.205615
v 0.332738 0.217023 -0.375677
v 0.150692 0.217023 -0.480781
v -0.058365 0.217023 -0.502754
v -0.258285 0.217023 -0.437796
v -0.4145 0.217023 -0.297139
v -0.5 0.217023 -0.105104
v -0.5 0.217023 0.105104
v -0.4145 0.217023 0.297139
v -0.258285 0.217023 0.437796
v -0.058365 0.217023 0.502754
v 0.150692 0.217023 0.480781
v 0.332738 0.217023 0.375677
v 0.456295 0.217023 0.205615
v 0.5 0.217023 -0
v 0.456295 0.184711 -0.205615
v 0.332738 0.184711 -0.375677
v 0.150692 0.184711 -0.480781
v -0.058365 0.184711 -0.502754
v -0.258285 0.184711 -0.437796
v -0.4145 0.184711 -0.297139
v -0.5 0.184711 -0.105104
v -0.5 0.184711 0.105104
v -0.4145 0.184711 0.297139
v -0.258285 0.184711 0.437796
v -0.058365 0.184711 0.502754
v 0.150692 0.184711 0.480781
v 0.332738 0.184711 0.375677
v 0.456295 0.184711 0.205615
v 0.5 0.184711 -0
v 0.423961 0.127297 -0.191044
v 0.309159 0.127297 -0.349055
v 0.140014 0.127297 -0.446712
v -0.054229 0.127297 -0.467128
v -0.239982 0.127297 -0.406773
v -0.385128 0.127297 -0.276083
v -0.464569 0.127297 -0.0976562
v -0.464569 0.127297 0.0976562
v -0.385128 0.127297 0.276083
v -0.239982 0.127297 0.406773
v -0.0542292 0.127297 0.467128
v 0.140013 0.127297 0.446712
v 0.309159 0.127297 0.349056
v 0.423961 0.127297 0.191044
v 0.464569 0.127297 -0
v 0.455904 0.0954058 -0.205439
v 0.332453 0.0954058 -0.375355
v 0.150563 0.0954058 -0.48037
v -0.0583151 0.0954058 -0.502324
v -0.258064 0.0954058 -0.437422
v -0.414146 0.0954058 -0.296885
v -0.499572 0.0954058 -0.105014
v -0.499572 0.0954058 0.105014
v -0.414146 0.0954058 0.296884
v -0.258064 0.0954058 0.437421
v -0.0583151 0.0954058 0.502324
v 0.150563 0.0954058 0.48037
v 0.332453 0.0954058 0.375356
v 0.455904 0.0954058 0.205439
v 0.499572 0.0954058 -0
v 0.451344 -1.85737e-08 -0.203384
v 0.329127 -1.85737e-08 -0.371601
v 0.149057 -1.85737e-08 -0.475565
v -0.0577315 -1.85737e-08 -0.497299
v -0.255482 -1.85737e-08 -0.433046
v -0.410003 -1.85737e-08 -0.293915
v -0.494575 -1.85737e-08 -0.103964
v -0.494575 -1.85737e-08 0.103964
v -0.410003 -1.85737e-08 0.293915
v -0.255482 -1.85737e-08 0.433046
v -0.0577318 -1.85737e-08 0.497299
v 0.149057 -1.85737e-08 0.475565
v 0.329127 -1.85737e-08 0.371601
v 0.451344 -1.85737e-08 0.203384
v 0.494575 -1.85737e-08 -0
v 0.132994 0.76077 -0.0599295
v 0.145733 0.76077 0
v 0.132994 0.76077 0.0599295
v 0.0969813 0.76077 0.109497
v 0.0439214 0.76077 0.140131
v -0.0170113 0.76077 0.146535
v -0.075281 0.76077 0.127602
v -0.120812 0.76077 0.0866056
v -0.145732 0.76077 0.0306342
v -0.145732 0.76077 -0.0306342
v -0.120812 0.76077 -0.0866056
v -0.075281 0.76077 -0.127602
v -0.0170113 0.76077 -0.146535
v 0.0439214 0.76077 -0.140131
v 0.0969813 0.76077 -0.109497
f 1 2 17 16
f 2 3 18 17
f 3 4 19 18
f 4 5 20 19
f 5 6 21 20
f 6 7 22 21
f 7 8 23 22
f 8 9 24 23
f 9 10 25 24
f 10 11 26 25
f 11 12 27 26
f 12 13 28 27
f 13 14 29 28
f 14 15 30 29
f 15 1 16 30
f 16 17 32 31
f 17 18 33 32
f 18 19 34 33
f 19 20 35 34
f 20 21 36 35
f 21 22 37 36
f 22 23 38 37
f 23 24 39 38
f 24 25 40 39
f 25 26 41 40
f 26 27 42 41
f 27 28 43 42
f 28 29 44 43
f 29 30 45 44
f 30 16 31 45
f 31 32 47 46
f 32 33 48 47
f 33 34 49 48
f 34 35 50 49
f 35 36 51 50
f 36 37 52 51
f 37 38 53 52
f 38 39 54 53
f 39 40 55 54
f 40 41 56 55
f 41 42 57 56
f 42 43 58 57
f 43 44 59 58
f 44 45 60 59
f 45 31 46 60
f 46 47 62 61
f 47 48 63 62
f 48 49 64 63
f 49 50 65 64
f 50 51 66 65
f 51 52 67 66
f 52 53 68 67
f 53 54 69 68
f 54 55 70 69
f 55 56 71 70
f 56 57 72 71
f 57 58 73 72
f 58 59 74 73
f 59 60 75 74
f 60 46 61 75
f 61 62 77 76
f 62 63 78 77
f 63 64 79 78
f 64 65 80 79
f 65 66 81 80
f 66 67 82 81
f 67 68 83 82
f 68 69 84 83
f 69 70 85 84
f 70 71 86 85
f 71 72 87 86
f 72 73 88 87
f 73 74 89 88
f 74 75 90 89
f 75 61 76 90
f 76 77 92 91
f 77 78 93 92
f 78 79 94 93
f 79 80 95 94
f 80 81 96 95
f 81 82 97 96
f 82 83 98 97
f 83 84 99 98
f 84 85 100 99
f 85 86 101 100
f 86 87 102 101
f 87 88 103 102
f 88 89 104 103
f 89 90 105 104
f 90 76 91 105
f 91 92 107 106
f 92 93 108 107
f 93 94 109 108
f 94 95 110 109
f 95 96 111 110
f 96 97 112 111
f 97 98 113 112
f 98 99 114 113
f 99 100 115 114
f 100 101 116 115
f 101 102 117 116
f 102 103 118 117
f 103 104 119 118
f 104 105 120 119
f 105 91 106 120
f 106 107 122 121
f 107 108 123 122
f 108 109 124 123
f 109 110 125 124
f 110 111 126 125
f 111 112 127 126
f 112 113 128 127
f 113 114 129 128
f 114 115 130 129
f 115 116 131 130
f 116 117 132 131
f 117 118 133 132
f 118 119 134 133
f 119 120 135 134
f 120 106 121 135
f 121 122 137 136
f 122 123 138 137
f 123 124 139 138
f 124 125 140 139
f 125 126 141 140
f 126 127 142 141
f 127 128 143 142
f 128 129 144 143
f 129 130 145 144
f 130 131 146 145
f 131 132 147 146
f 132 133 148 147
f 133 134 149 148
f 134 135 150 149
f 135 121 136 150
f 136 137 151
f 137 138 151
f 138 139 151
f 139 140 151
f 140 141 151
f 141 142 151
f 142 143 151
f 143 144 151
f 144 145 151
f 145 146 151
f 146 147 151
f 147 148 151
f 148 149 151
f 149 150 151
f 150 136 151
f 2 1 152 153
f 3 2 153 154
f 4 3 154 155
f 5 4 155 156
f 6 5 156 157
f 7 6 157 158
f 8 7 158 159
f 9 8 159 160
f 10 9 160 161
f 11 10 161 162
f 12 11 162 163
f 13 12 163 164
f 14 13 164 165
f 15 14 165 166
f 1 15 166 152
f 153 152 167 168
f 154 153 168 169
f 155 154 169 170
f 156 155 170 171
f 157 156 171 172
f 158 157 172 173
f 159 158 173 174
f 160 159 174 175
f 161 160 175 176
f 162 161 176 177
f 163 162 177 178
f 164 163 178 179
f 165 164 179 180
f 166 165 180 181
f 152 166 181 167
f 168 167 182 183
f 169 168 183 184
f 170 169 184 185
f 171 170 185 186
f 172 171 186 187
f 173 172 187 188
f 174 173 188 189
f 175 174 189 190
f 176 175 190 191
f 177 176 191 192
f 178 177 192 193
f 179 178 193 194
f 180 179 194 195
f 181 180 195 196
f 167 181 196 182
f 183 182 197 198
f 184 183 198 199
f 185 184 199 200
f 186 185 200 201
f 187 186 201 202
f 188 187 202 203
f 189 188 203 204
f 190 189 204 205
f 191 190 205 206
f 192 191 206 207
f 193 192 207 208
f 194 193 208 209
f 195 194 209 210
f 196 195 210 211
f 182 196 211 197
f 198 197 212 213
f 199 198 213 214
f 200 199 214 215
f 201 200 215 216
f 202 201 216 217
f 203 202 217 218
f 204 203 218 219
f 205 204 219 220
f 206 205 220 221
f 207 206 221 222
f 208 207 222 223
f 209 208 223 224
f 210 209 224 225
f 211 210 225 226
f 197 211 226 212
f 213 212 227 228
f 214 213 228 229
f 215 214 229 230
f 216 215 230 231
f 217 216 231 232
f 218 217 232 233
f 219 218 233 234
f 220 219 234 235
f 221 220 235 236
f 222 221 236 237
f 223 222 237 238
f 224 223 238 239
f 225 224 239 240
f 226 225 240 241
f 212 226 241 227
f 228 227 242 243
f 229 228 243 244
f 230 229 244 245
f 231 230 245 246
f 232 231 246 247
f 233 232 247 248
f 234 233 248 249
f 235 234 249 250
f 236 235 250 251
f 237 236 251 252
f 238 237 252 253
f 239 238 253 254
f 240 239 254 255
f 241 240 255 256
f 227 241 256 242
f 451 437 257 258
f 450 451 258 259
f 449 450 259 260
f 448 449 260 261
f 447 448 261 262
f 446 447 262 263
f 445 446 263 264
f 444 445 264 265
f 443 444 265 266
f 442 443 266 267
f 441 442 267 268
f 440 441 268 269
f 439 440 269 270
f 438 439 270 271
f 437 438 271 257
f 258 257 272 273
f 259 258 273 274
f 260 259 274 275
f 261 260 275 276
f 262 261 276 277
f 263 262 277 278
f 264 263 278 279
f 265 264 279 280
f 266 265 280 281
f 267 266 281 282
f 268 267 282 283
f 269 268 283 284
f 270 269 284 285
f 271 270 285 286
f 257 271 286 272
f 273 272 287 288
f 274 273 288 289
f 275 274 289 290
f 276 275 290 291
f 277 276 291 292
f 278 277 292 293
f 279 278 293 294
f 280 279 294 295
f 281 280 295 296
f 282 281 296 297
f 283 282 297 298
f 284 283 298 299
f 285 284 299 300
f 286 285 300 301
f 272 286 301 287
f 288 287 302 303
f 289 288 303 304
f 290 289 304 305
f 291 290 305 306
f 292 291 306 307
f 293 292 307 308
f 294 293 308 309
f 295 294 309 310
f 296 295 310 311
f 297 296 311 312
f 298 297 312 313
f 299 298 313 314
f 300 299 314 315
f 301 300 315 316
f 287 301 316 302
f 303 302 317 318
f 304 303 318 319
f 305 304 319 320
f 306 305 320 321
f 307 306 321 322
f 308 307 322 323
f 309 308 323 324
f 310 309 324 325
f 311 310 325 326
f 312 311 326 327
f 313 312 327 328
f 314 313 328 329
f 315 314 329 330
f 316 315 330 331
f 302 316 331 317
f 318 317 332 333
f 319 318 333 334
f 320 319 334 335
f 321 320 335 336
f 322 321 336 337
f 323 322 337 338
f 324 323 338 339
f 325 324 339 340
f 326 325 340 341
f 327 326 341 342
f 328 327 342 343
f 329 328 343 344
f 330 329 344 345
f 331 330 345 346
f 317 331 346 332
f 333 332 347 348
f 334 333 348 349
f 335 334 349 350
f 336 335 350 351
f 337 336 351 352
f 338 337 352 353
f 339 338 353 354
f 340 339 354 355
f 341 340 355 356
f 342 341 356 357
f 343 342 357 358
f 344 343 358 359
f 345 344 359 360
f 346 345 360 361
f 332 346 361 347
f 348 347 362 363
f 349 348 363 364
f 350 349 364 365
f 351 350 365 366
f 352 351 366 367
f 353 352 367 368
f 354 353 368 369
f 355 354 369 370
f 356 355 370 371
f 357 356 371 372
f 358 357 372 373
f 359 358 373 374
f 360 359 374 375
f 361 360 375 376
f 347 361 376 362
f 363 362 377 378
f 364 363 378 379
f 365 364 379 380
f 366 365 380 381
f 367 366 381 382
f 368 367 382 383
f 369 368 383 384
f 370 369 384 385
f 371 370 385 386
f 372 371 386 387
f 373 372 387 388
f 374 373 388 389
f 375 374 389 390
f 376 375 390 391
f 362 376 391 377
f 378 377 392 393
f 379 378 393 394
f 380 379 394 395
f 381 380 395 396
f 382 381 396 397
f 383 382 397 398
f 384 383 398 399
f 385 384 399 400
f 386 385 400 401
f 387 386 401 402
f 388 387 402 403
f 389 388 403 404
f 390 389 404 405
f 391 390 405 406
f 377 391 406 392
f 393 392 407 408
f 394 393 408 409
f 395 394 409 410
f 396 395 410 411
f 397 396 411 412
f 398 397 412 413
f 399 398 413 414
f 400 399 414 415
f 401 400 415 416
f 402 401 416 417
f 403 402 417 418
f 404 403 418 419
f 405 404 419 420
f 406 405 420 421
f 392 406 421 407
f 408 407 422 423
f 409 408 423 424
f 410 409 424 425
f 411 410 425 426
f 412 411 426 427
f 413 412 427 428
f 414 413 428 429
f 415 414 429 430
f 416 415 430 431
f 417 416 431 432
f 418 417 432 433
f 419 418 433 434
f 420 419 434 435
f 421 420 435 436
f 407 421 436 422
f 423 422 436 435 434 433 432 431 430 429 428 427 426 425 424
f 242 256 438 437
f 256 255 439 438
f 255 254 440 439
f 254 253 441 440
f 253 252 442 441
f 252 251 443 442
f 251 250 444 443
f 250 249 445 444
f 249 248 446 445
f 248 247 447 446
f 247 246 448 447
f 246 245 449 448
f 245 244 450 449
f 244 243 451 450
f 243 242 437 451
