v 0.246068 1.84041 -0.109652
v 0.180172 1.84035 -0.200338
v 0.269377 1.84043 -1.00991e-07
v 0.164794 1.65115 -0.0744095
v 0.120081 1.65115 -0.135953
v 0.0830886 1.84027 -0.256378
v 0.246068 1.84041 0.109651
v 0.180611 1.65115 -1.00991e-07
v 0.0542007 1.65115 -0.173989
v 0.167261 1.58647 -0.0751658
v 0.122093 1.58647 -0.137335
v -0.0283904 1.84017 -0.268084
v 0.180172 1.84035 0.200338
v 0.164794 1.65115 0.0744093
v 0.183238 1.58647 -1.00991e-07
v -0.0214543 1.65115 -0.18194
v 0.0555431 1.58647 -0.175758
v 0.166762 1.58283 -0.0750379
v 0.121671 1.58283 -0.137101
v -0.134988 1.84007 -0.233436
v 0.0830886 1.84027 0.256378
v 0.120081 1.65115 0.135953
v 0.167261 1.58647 0.0751656
v 0.182712 1.58283 -1.00991e-07
v -0.0938029 1.65115 -0.158433
v -0.0208813 1.58647 -0.18379
v 0.0552344 1.58283 -0.175458
v 0.258217 1.53726 -0.116357
v 0.188296 1.53726 -0.212596
v -0.218276 1.83999 -0.158432
v -0.0283904 1.84017 0.268083
v 0.0542005 1.65115 0.173988
v 0.122093 1.58647 0.137335
v 0.166762 1.58283 0.0750377
v 0.28295 1.53726 -1.00991e-07
v -0.150335 1.65115 -0.107531
v -0.0939653 1.58647 -0.160044
v -0.0210597 1.58283 -0.183477
v 0.0852764 1.53726 -0.272074
v 0.258217 1.49656 -0.116357
v 0.188296 1.49656 -0.212596
v -0.263859 1.83995 -0.0560396
v -0.134988 1.84007 0.233436
v -0.0214545 1.65115 0.18194
v 0.0555431 1.58647 0.175757
v 0.121671 1.58283 0.137101
v 0.258217 1.53726 0.116357
v 0.28295 1.49656 -1.00991e-07
v -0.181277 1.65115 -0.0380359
v -0.151072 1.58647 -0.108624
v -0.0940192 1.58283 -0.159771
v -0.0330287 1.53726 -0.284509
v 0.0852764 1.49656 -0.272074
v 0.226301 1.47366 -0.101975
v 0.165022 1.47366 -0.186318
v -0.263859 1.83995 0.0560394
v -0.218276 1.83999 0.158432
v -0.0938031 1.65115 0.158432
v -0.0208813 1.58647 0.18379
v 0.0552344 1.58283 0.175458
v 0.188296 1.53726 0.212596
v 0.258217 1.49656 0.116357
v 0.247976 1.47366 -1.00991e-07
v -0.181277 1.65115 0.0380357
v -0.182328 1.58647 -0.0384226
v -0.151029 1.58283 -0.108439
v -0.146164 1.53726 -0.247749
v -0.0330287 1.49656 -0.284509
v 0.0747362 1.47366 -0.238445
v 0.170132 1.45129 -0.0766647
v 0.124063 1.45129 -0.140073
v -0.150335 1.65115 0.107531
v -0.0939653 1.58647 0.160043
v -0.0210597 1.58283 0.183477
v 0.0852764 1.53726 0.272074
v 0.188296 1.49656 0.212596
v 0.226301 1.47366 0.101975
v 0.186428 1.45129 -1.00991e-07
v -0.182328 1.58647 0.0384224
v -0.182231 1.58283 -0.0383572
v -0.234566 1.53726 -0.168151
v -0.146164 1.49656 -0.247749
v -0.0289463 1.47366 -0.249342
v 0.0561864 1.45129 -0.179262
v 0.161235 1.39697 -0.0726555
v 0.117575 1.39697 -0.132748
v -0.151072 1.58647 0.108624
v -0.0940192 1.58283 0.159771
v -0.0330289 1.53726 0.284508
v 0.0852764 1.49656 0.272074
v 0.165022 1.47366 0.186318
v 0.170132 1.45129 0.0766645
v 0.176678 1.39697 -1.00991e-07
v -0.182231 1.58283 0.038357
v -0.28295 1.53726 -0.0594785
v -0.234566 1.49656 -0.168151
v -0.128097 1.47366 -0.217126
v -0.0217618 1.45129 -0.187455
v 0.0532479 1.39697 -0.169887
v 0.151508 1.12275 -0.0682724
v 0.110482 1.12275 -0.12474
v -0.151029 1.58283 0.108439
v -0.146164 1.53726 0.247749
v -0.0330289 1.49656 0.284508
v 0.074736 1.47366 0.238445
v 0.124063 1.45129 0.140073
v 0.161235 1.39697 0.0726553
v 0.16602 1.12275 -1.00991e-07
v -0.28295 1.53726 0.0594783
v -0.28295 1.49656 -0.0594785
v -0.205573 1.47366 -0.147367
v -0.096303 1.45129 -0.163235
v -0.0206238 1.39697 -0.177651
v 0.0500354 1.12275 -0.159638
v 0.175501 0.78025 -0.0790838
v 0.127978 0.78025 -0.144493
v -0.234566 1.53726 0.168151
v -0.146164 1.49656 0.247749
v -0.0289463 1.47366 0.249342
v 0.0561862 1.45129 0.179262
v 0.117575 1.39697 0.132748
v 0.151508 1.12275 0.0682722
v 0.19231 0.78025 -1.00991e-07
v -0.28295 1.49656 0.0594783
v -0.247976 1.47366 -0.0521269
v -0.154549 1.45129 -0.11079
v -0.0912666 1.39697 -0.154698
v -0.0193794 1.12275 -0.166934
v 0.0579594 0.78025 -0.184919
v 0.242281 0.550843 -0.109177
v 0.176676 0.550843 -0.199475
v -0.234566 1.49656 0.168151
v -0.128097 1.47366 0.217126
v -0.0217618 1.45129 0.187455
v 0.0532479 1.39697 0.169887
v 0.110482 1.12275 0.12474
v 0.175501 0.78025 0.0790836
v 0.265488 0.550843 -1.00991e-07
v -0.247976 1.47366 0.0521265
v -0.186428 1.45129 -0.0391889
v -0.146467 1.39697 -0.104996
v -0.0857608 1.12275 -0.145366
v -0.0224483 0.78025 -0.19337
v 0.0800136 0.550843 -0.255283
v 0.271714 0.541027 -0.122439
v 0.198138 0.541027 -0.223707
v -0.205573 1.47366 0.147367
v -0.096303 1.45129 0.163235
v -0.0206238 1.39697 0.177651
v 0.0500354 1.12275 0.159638
v 0.127978 0.78025 0.144493
v 0.242281 0.550843 0.109176
v 0.297739 0.541027 -1.00991e-07
v -0.186428 1.45129 0.0391887
v -0.176678 1.39697 -0.0371394
v -0.13763 1.12275 -0.0986618
v -0.0993417 0.78025 -0.168386
v -0.0309903 0.550843 -0.26695
v 0.0897336 0.541027 -0.286295
v 0.271714 0.453695 -0.122439
v 0.198138 0.453695 -0.223707
v -0.154549 1.45129 0.11079
v -0.0912666 1.39697 0.154698
v -0.0193794 1.12275 0.166934
v 0.0579592 0.78025 0.184918
v 0.176675 0.550843 0.199475
v 0.271714 0.541027 0.122439
v 0.297739 0.453695 -1.00991e-07
v -0.176678 1.39697 0.0371392
v -0.16602 1.12275 -0.0348988
v -0.159425 0.78025 -0.114286
v -0.137143 0.550843 -0.232459
v -0.0347551 0.541027 -0.299379
v 0.0897336 0.453695 -0.286295
v 0.317577 0.396881 -0.143106
v 0.231582 0.396881 -0.261468
v -0.146467 1.39697 0.104996
v -0.0857608 1.12275 0.145365
v -0.0224485 0.78025 0.19337
v 0.0800136 0.550843 0.255283
v 0.198138 0.541027 0.223707
v 0.271714 0.453695 0.122439
v 0.347996 0.396881 -1.00991e-07
v -0.16602 1.12275 0.0348986
v -0.19231 0.78025 -0.0404254
v -0.22009 0.550843 -0.157774
v -0.153803 0.541027 -0.260698
v -0.0347551 0.453695 -0.299379
v 0.10488 0.396881 -0.33462
v 0.384692 0.324708 -0.173349
v 0.280523 0.324708 -0.316724
v -0.13763 1.12275 0.0986618
v -0.0993417 0.78025 0.168386
v -0.0309903 0.550843 0.26695
v 0.0897336 0.541027 0.286295
v 0.198138 0.453695 0.223707
v 0.317577 0.396881 0.143106
v 0.421538 0.324708 -1.00991e-07
v -0.19231 0.78025 0.0404252
v -0.265487 0.550843 -0.0558079
v -0.246826 0.541027 -0.17694
v -0.153803 0.453695 -0.260698
v -0.0406214 0.396881 -0.349912
v 0.127045 0.324708 -0.405336
v 0.444746 0.274435 -0.200411
v 0.324316 0.274435 -0.366169
v -0.159425 0.78025 0.114286
v -0.137143 0.550843 0.232459
v -0.0347553 0.541027 0.299379
v 0.0897336 0.453695 0.286295
v 0.231582 0.396881 0.261468
v 0.384692 0.324708 0.173349
v 0.487345 0.274435 -1.00991e-07
v -0.265487 0.550843 0.0558077
v -0.297739 0.541027 -0.0625874
v -0.246826 0.453695 -0.17694
v -0.179764 0.396881 -0.304702
v -0.0492061 0.324708 -0.42386
v 0.146878 0.274435 -0.468613
v 0.456295 0.217023 -0.205615
v 0.332738 0.217023 -0.375677
v -0.22009 0.550843 0.157773
v -0.153803 0.541027 0.260698
v -0.0347553 0.453695 0.299379
v 0.10488 0.396881 0.334619
v 0.280523 0.324708 0.316724
v 0.444746 0.274435 0.200411
v 0.5 0.217023 -1.00991e-07
v -0.297739 0.541027 0.0625872
v -0.297739 0.453695 -0.0625874
v -0.288489 0.396881 -0.206806
v -0.217754 0.324708 -0.369096
v -0.0568879 0.274435 -0.49003
v 0.150692 0.217023 -0.480781
v 0.456295 0.184711 -0.205615
v 0.332738 0.184711 -0.375677
v -0.246826 0.541027 0.17694
v -0.153803 0.453695 0.260698
v -0.0406214 0.396881 0.349912
v 0.127045 0.324708 0.405335
v 0.324316 0.274435 0.366169
v 0.456295 0.217023 0.205615
v 0.5 0.184711 -1.00991e-07
v -0.297739 0.453695 0.0625872
v -0.347996 0.396881 -0.0731517
v -0.349455 0.324708 -0.250511
v -0.251748 0.274435 -0.426716
v -0.0583649 0.217023 -0.502754
v 0.150692 0.184711 -0.480781
v 0.423961 0.127297 -0.191045
v 0.309159 0.127297 -0.349056
v -0.246826 0.453695 0.17694
v -0.179764 0.396881 0.304702
v -0.0492063 0.324708 0.42386
v 0.146878 0.274435 0.468613
v 0.332738 0.217023 0.375677
v 0.456295 0.184711 0.205615
v 0.464569 0.127297 -1.00991e-07
v -0.347996 0.396881 0.0731515
v -0.421538 0.324708 -0.0886111
v -0.404009 0.274435 -0.289619
v -0.258285 0.217023 -0.437796
v -0.0583649 0.184711 -0.502754
v 0.140013 0.127297 -0.446712
v 0.455904 0.0954058 -0.205439
v 0.332453 0.0954058 -0.375355
v -0.288489 0.396881 0.206806
v -0.217754 0.324708 0.369096
v -0.0568879 0.274435 0.490029
v 0.150692 0.217023 0.480781
v 0.332738 0.184711 0.375677
v 0.423961 0.127297 0.191044
v 0.499572 0.0954058 -1.00991e-07
v -0.421538 0.324708 0.0886107
v -0.487345 0.274435 -0.102444
v -0.4145 0.217023 -0.297139
v -0.258285 0.184711 -0.437796
v -0.0542292 0.127297 -0.467128
v 0.150563 0.0954058 -0.48037
v 0.451344 -3.89442e-08 -0.203384
v 0.329127 -3.89442e-08 -0.371601
v -0.349455 0.324708 0.250511
v -0.251748 0.274435 0.426716
v -0.0583651 0.217023 0.502754
v 0.150692 0.184711 0.480781
v 0.309159 0.127297 0.349056
v 0.455904 0.0954058 0.205439
v 0.494575 -3.89442e-08 -1.00991e-07
v -0.487345 0.274435 0.102444
v -0.5 0.217023 -0.105104
v -0.4145 0.184711 -0.297139
v -0.239982 0.127297 -0.406773
v -0.0583151 0.0954058 -0.502324
v 0.149057 -3.89442e-08 -0.475565
v 0.451344 -3.89442e-08 0.203384
v 0.329127 -3.89442e-08 0.371601
v 0.149057 -3.89442e-08 0.475565
v -0.0577319 -3.89442e-08 0.497299
v -0.255482 -3.89442e-08 0.433046
v -0.410003 -3.89442e-08 0.293915
v -0.494575 -3.89442e-08 0.103964
v -0.494575 -3.89442e-08 -0.103964
v -0.410003 -3.89442e-08 -0.293915
v -0.255482 -3.89442e-08 -0.433046
v -0.0577317 -3.89442e-08 -0.497299
v -0.404009 0.274435 0.289618
v -0.258285 0.217023 0.437796
v -0.0583651 0.184711 0.502754
v 0.140013 0.127297 0.446712
v 0.332453 0.0954058 0.375356
v -0.5 0.217023 0.105104
v -0.5 0.184711 -0.105104
v -0.385128 0.127297 -0.276083
v -0.258064 0.0954058 -0.437422
v 0.150563 0.0954058 0.48037
v -0.0583151 0.0954058 0.502324
v -0.258064 0.0954058 0.437421
v -0.414145 0.0954058 0.296885
v -0.499572 0.0954058 0.105014
v -0.499572 0.0954058 -0.105014
v -0.414145 0.0954058 -0.296885
v -0.4145 0.217023 0.297139
v -0.258285 0.184711 0.437796
v -0.0542292 0.127297 0.467128
v -0.5 0.184711 0.105104
v -0.464569 0.127297 -0.0976564
v -0.239982 0.127297 0.406773
v -0.385128 0.127297 0.276083
v -0.464569 0.127297 0.0976562
v -0.4145 0.184711 0.297139
v 0.151746 1.75015 -0.112055
v 0.151746 1.75015 -0.112055
v 0.183989 1.75015 -0.0396364
v 0.183989 1.75015 -0.0396364
v 0.170179 1.70065 -0.0768409
v 0.124004 1.70065 -0.140396
v 0.092835 1.75015 -0.165099
v 0.092835 1.75015 -0.165099
v 0.183989 1.75015 0.0396362
v 0.183989 1.75015 0.0396362
v 0.186512 1.70065 -1.00991e-07
v 0.0559715 1.70065 -0.179674
v 0.0174424 1.75015 -0.189596
v 0.0174424 1.75015 -0.189596
v 0.151746 1.75015 0.112055
v 0.151746 1.75015 0.112055
v 0.170179 1.70065 0.0768409
v -0.0221558 1.70065 -0.187886
v -0.0613959 1.75015 -0.18131
v -0.0613959 1.75015 -0.18131
v 0.092835 1.75015 0.165099
v 0.092835 1.75015 0.165099
v 0.124004 1.70065 0.140395
v -0.0968686 1.70065 -0.16361
v -0.130048 1.75015 -0.141673
v -0.130048 1.75015 -0.141673
v 0.0174424 1.75015 0.189596
v 0.0174424 1.75015 0.189596
v 0.0559713 1.70065 0.179674
v -0.155248 1.70065 -0.111045
v -0.176643 1.75015 -0.0775405
v -0.176643 1.75015 -0.0775405
v -0.0613961 1.75015 0.181309
v -0.0613961 1.75015 0.181309
v -0.022156 1.70065 0.187886
v -0.187201 1.70065 -0.0392789
v -0.193125 1.75015 -1.00991e-07
v -0.193125 1.75015 -1.00991e-07
v -0.130048 1.75015 0.141673
v -0.130048 1.75015 0.141673
v -0.0968688 1.70065 0.16361
v -0.187201 1.70065 0.0392787
v -0.176643 1.75015 0.0775401
v -0.176643 1.75015 0.0775401
v -0.155248 1.70065 0.111045
v 0.182575 1.62364 -0.0823545
v 0.20008 1.62364 -1.00991e-07
v 0.182575 1.62364 0.0823543
v 0.133087 1.62364 0.150469
v 0.0601725 1.62364 0.192566
v -0.0235604 1.62364 0.201367
v -0.103634 1.62364 0.175349
v -0.166203 1.62364 0.119012
v -0.200447 1.62364 0.042097
v -0.200447 1.62364 -0.0420972
v -0.166203 1.62364 -0.119013
v -0.103634 1.62364 -0.17535
v -0.0235604 1.62364 -0.201367
v 0.0601725 1.62364 -0.192566
v 0.133087 1.62364 -0.150469
v 0.136019 1.77561 -0.100227
v 0.136019 1.77561 -0.100227
v 0.161444 1.85629 -0.17919
v 0.0833265 1.77561 -0.147671
v 0.0833265 1.77561 -0.147671
v 0.0746088 1.85622 -0.229314
v 0.0158926 1.77561 -0.169582
v 0.0158926 1.77561 -0.169582
v -0.0251021 1.85613 -0.239784
v -0.0546236 1.77561 -0.16217
v -0.0546236 1.77561 -0.16217
v -0.120447 1.85604 -0.208794
v -0.116029 1.77561 -0.126718
v -0.116029 1.77561 -0.126718
v -0.194943 1.85597 -0.141708
v -0.157705 1.77561 -0.0693551
v -0.157705 1.77561 -0.0693551
v -0.235715 1.85594 -0.050124
v -0.172447 1.77561 -1.00991e-07
v -0.172447 1.77561 -1.00991e-07
v -0.235715 1.85594 0.0501238
v -0.157705 1.77561 0.0693549
v -0.157705 1.77561 0.0693549
v -0.194944 1.85597 0.141707
v -0.116029 1.77561 0.126718
v -0.116029 1.77561 0.126718
v -0.120448 1.85604 0.208794
v -0.0546238 1.77561 0.16217
v -0.0546238 1.77561 0.16217
v -0.0251023 1.85613 0.239784
v 0.0158922 1.77561 0.169582
v 0.0158922 1.77561 0.169582
v 0.0746088 1.85622 0.229314
v 0.0833265 1.77561 0.147671
v 0.0833265 1.77561 0.147671
v 0.161444 1.85629 0.17919
v 0.136019 1.77561 0.100227
v 0.136019 1.77561 0.100227
v 0.220384 1.85635 0.0980764
v 0.164858 1.77561 0.0354522
v 0.164858 1.77561 0.0354522
v 0.241233 1.85637 -1.00991e-07
v 0.164858 1.77561 -0.0354522
v 0.164858 1.77561 -0.0354522
v 0.220384 1.85635 -0.0980766
v 0.0254827 1.89702 -0.0179295
v 0.0113605 1.89702 -0.0301665
v -0.00713562 1.89702 -0.032826
v -0.0241334 1.89702 -0.0250633
v -0.034236 1.89702 -0.00934337
v -0.034236 1.89702 0.00934317
v -0.0241334 1.89702 0.0250631
v -0.00713562 1.89702 0.0328258
v 0.0113605 1.89702 0.0301663
v 0.0254827 1.89702 0.0179293
v 0.0307475 1.89702 -1.00991e-07
v 0.0351719 1.90924 -0.0241564
v 0.016145 1.90924 -0.0406433
v -0.00877471 1.90924 -0.0442262
v -0.0316756 1.90924 -0.0337676
v -0.0452868 1.90924 -0.0125881
v -0.0452868 1.90924 0.0125878
v -0.0316756 1.90924 0.0337674
v -0.00877471 1.90924 0.044226
v 0.016145 1.90924 0.0406431
v 0.0351719 1.90924 0.0241562
v 0.0422648 1.90924 -1.00991e-07
v 0.0403275 1.92422 -0.0274695
v 0.0186908 1.92422 -0.0462177
v -0.00964687 1.92422 -0.0502922
v -0.0356888 1.92422 -0.0383991
v -0.0511671 1.92422 -0.0143148
v -0.0511671 1.92422 0.0143144
v -0.035689 1.92422 0.0383989
v -0.00964687 1.92422 0.050292
v 0.0186908 1.92422 0.0462175
v 0.0403273 1.92422 0.0274693
v 0.0483933 1.92422 -1.00991e-07
v 0.0403275 1.94016 -0.0274695
v 0.0186908 1.94016 -0.0462177
v -0.00964687 1.94016 -0.0502922
v -0.0356888 1.94016 -0.0383991
v -0.0511671 1.94016 -0.0143148
v -0.0511671 1.94016 0.0143144
v -0.035689 1.94016 0.0383989
v -0.00964687 1.94016 0.050292
v 0.0186908 1.94016 0.0462175
v 0.0403273 1.94016 0.0274693
v 0.0483933 1.94016 -1.00991e-07
v 0.0351719 1.95515 -0.0241564
v 0.016145 1.95515 -0.0406433
v -0.00877471 1.95515 -0.0442262
v -0.0316756 1.95515 -0.0337676
v -0.0452868 1.95515 -0.0125881
v -0.0452868 1.95515 0.0125878
v -0.0316756 1.95515 0.0337674
v -0.00877471 1.95515 0.044226
v 0.016145 1.95515 0.0406431
v 0.0351719 1.95515 0.0241562
v 0.0422648 1.95515 -1.00991e-07
v 0.0254827 1.96736 -0.0179295
v 0.0113605 1.96736 -0.0301665
v -0.00713562 1.96736 -0.032826
v -0.0241334 1.96736 -0.0250633
v -0.034236 1.96736 -0.00934337
v -0.034236 1.96736 0.00934317
v -0.0241334 1.96736 0.0250631
v -0.00713562 1.96736 0.0328258
v 0.0113605 1.96736 0.0301663
v 0.0254827 1.96736 0.0179293
v 0.0307475 1.96736 -1.00991e-07
v 0.0124286 1.97533 -0.00954013
v 0.00491443 1.97533 -0.0160513
v -0.00492735 1.97533 -0.0174663
v -0.0139715 1.97533 -0.0133359
v -0.0193471 1.97533 -0.00497153
v -0.0193471 1.97533 0.00497133
v -0.0139715 1.97533 0.0133357
v -0.00492735 1.97533 0.0174661
v 0.00491443 1.97533 0.0160511
v 0.0124286 1.97533 0.00953993
v 0.0152299 1.97533 -1.00991e-07
v -0.00241611 1.9781 -1.00991e-07
v 0.0275106 1.89458 -0.0192648
v 0.0123365 1.89458 -0.0324132
v -0.00753716 1.89458 -0.0352705
v -0.0258008 1.89458 -0.0269299
v -0.0366559 1.89458 -0.0100391
v -0.0366559 1.89458 0.0100389
v -0.0258008 1.89458 0.0269297
v -0.00753716 1.89458 0.0352703
v 0.0123365 1.89458 0.032413
v 0.0275104 1.89458 0.0192646
v 0.0331673 1.89458 -1.00991e-07
v 0.0552871 1.87083 -0.0375562
v 0.0257059 1.87083 -0.0631885
v -0.0130373 1.87083 -0.0687589
v -0.0486417 1.87083 -0.0524989
v -0.0698032 1.87083 -0.0195709
v -0.0698032 1.87083 0.0195707
v -0.0486417 1.87083 0.0524987
v -0.0130373 1.87083 0.0687587
v 0.0257059 1.87083 0.0631883
v 0.0552871 1.87083 0.037556
v 0.0663146 1.87083 -1.00991e-07
v 0.0880844 1.83398 -0.0591536
v 0.0414918 1.83398 -0.0995263
v -0.0195315 1.83398 -0.1083
v -0.075611 1.83398 -0.0826896
v -0.108942 1.83398 -0.0308256
v -0.108942 1.83398 0.0308254
v -0.075611 1.83398 0.0826894
v -0.0195315 1.83398 0.1083
v 0.0414918 1.83398 0.0995261
v 0.0880844 1.83398 0.0591534
v 0.105453 1.83398 -1.00991e-07
v 0.103099 1.80356 -0.0690406
v 0.0487183 1.80356 -0.116161
v -0.0225044 1.80356 -0.126401
v -0.0879571 1.80356 -0.0965102
v -0.126859 1.80356 -0.0359777
v -0.126859 1.80356 0.0359775
v -0.0879573 1.80356 0.09651
v -0.0225044 1.80356 0.126401
v 0.0487183 1.80356 0.116161
v 0.103099 1.80356 0.0690404
v 0.12337 1.80356 -1.00991e-07
v 0.116601 1.7503 -0.0779323
v 0.0552175 1.7503 -0.131122
v -0.0251781 1.7503 -0.142681
v -0.0990605 1.7503 -0.10894
v -0.142973 1.7503 -0.0406113
v -0.142973 1.7503 0.0406111
v -0.0990607 1.7503 0.10894
v -0.0251781 1.7503 0.142681
v 0.0552175 1.7503 0.131122
v 0.116601 1.7503 0.0779321
v 0.139484 1.7503 -1.00991e-07
f 335 331 1
f 1 334 335
f 336 337 2
f 390 376 10 11
f 3 340 341
f 376 377 15 10
f 342 343 6
f 389 390 11 17
f 11 10 18 19
f 7 346 347
f 377 378 23 15
f 10 15 24 18
f 348 349 12
f 388 389 17 26
f 17 11 19 27
f 19 18 28 29
f 13 352 353
f 378 379 33 23
f 15 23 34 24
f 18 24 35 28
f 354 355 20
f 387 388 26 37
f 26 17 27 38
f 27 19 29 39
f 29 28 40 41
f 21 358 359
f 379 380 45 33
f 23 33 46 34
f 24 34 47 35
f 28 35 48 40
f 360 361 30
f 386 387 37 50
f 37 26 38 51
f 38 27 39 52
f 39 29 41 53
f 41 40 54 55
f 31 364 365
f 380 381 59 45
f 33 45 60 46
f 34 46 61 47
f 35 47 62 48
f 40 48 63 54
f 366 367 42
f 385 386 50 65
f 50 37 51 66
f 51 38 52 67
f 52 39 53 68
f 53 41 55 69
f 55 54 70 71
f 43 370 371
f 381 382 73 59
f 45 59 74 60
f 46 60 75 61
f 47 61 76 62
f 48 62 77 63
f 54 63 78 70
f 372 373 56
f 384 385 65 79
f 65 50 66 80
f 66 51 67 81
f 67 52 68 82
f 68 53 69 83
f 69 55 71 84
f 71 70 85 86
f 382 383 87 73
f 59 73 88 74
f 60 74 89 75
f 61 75 90 76
f 62 76 91 77
f 63 77 92 78
f 70 78 93 85
f 383 384 79 87
f 79 65 80 94
f 80 66 81 95
f 81 67 82 96
f 82 68 83 97
f 83 69 84 98
f 84 71 86 99
f 86 85 100 101
f 73 87 102 88
f 74 88 103 89
f 75 89 104 90
f 76 90 105 91
f 77 91 106 92
f 78 92 107 93
f 85 93 108 100
f 87 79 94 102
f 94 80 95 109
f 95 81 96 110
f 96 82 97 111
f 97 83 98 112
f 98 84 99 113
f 99 86 101 114
f 101 100 115 116
f 88 102 117 103
f 89 103 118 104
f 90 104 119 105
f 91 105 120 106
f 92 106 121 107
f 93 107 122 108
f 100 108 123 115
f 102 94 109 117
f 109 95 110 124
f 110 96 111 125
f 111 97 112 126
f 112 98 113 127
f 113 99 114 128
f 114 101 116 129
f 116 115 130 131
f 103 117 132 118
f 104 118 133 119
f 105 119 134 120
f 106 120 135 121
f 107 121 136 122
f 108 122 137 123
f 115 123 138 130
f 117 109 124 132
f 124 110 125 139
f 125 111 126 140
f 126 112 127 141
f 127 113 128 142
f 128 114 129 143
f 129 116 131 144
f 131 130 145 146
f 118 132 147 133
f 119 133 148 134
f 120 134 149 135
f 121 135 150 136
f 122 136 151 137
f 123 137 152 138
f 130 138 153 145
f 132 124 139 147
f 139 125 140 154
f 140 126 141 155
f 141 127 142 156
f 142 128 143 157
f 143 129 144 158
f 144 131 146 159
f 146 145 160 161
f 133 147 162 148
f 134 148 163 149
f 135 149 164 150
f 136 150 165 151
f 137 151 166 152
f 138 152 167 153
f 145 153 168 160
f 147 139 154 162
f 154 140 155 169
f 155 141 156 170
f 156 142 157 171
f 157 143 158 172
f 158 144 159 173
f 159 146 161 174
f 161 160 175 176
f 148 162 177 163
f 149 163 178 164
f 150 164 179 165
f 151 165 180 166
f 152 166 181 167
f 153 167 182 168
f 160 168 183 175
f 162 154 169 177
f 169 155 170 184
f 170 156 171 185
f 171 157 172 186
f 172 158 173 187
f 173 159 174 188
f 174 161 176 189
f 176 175 190 191
f 163 177 192 178
f 164 178 193 179
f 165 179 194 180
f 166 180 195 181
f 167 181 196 182
f 168 182 197 183
f 175 183 198 190
f 177 169 184 192
f 184 170 185 199
f 185 171 186 200
f 186 172 187 201
f 187 173 188 202
f 188 174 189 203
f 189 176 191 204
f 191 190 205 206
f 178 192 207 193
f 179 193 208 194
f 180 194 209 195
f 181 195 210 196
f 182 196 211 197
f 183 197 212 198
f 190 198 213 205
f 192 184 199 207
f 199 185 200 214
f 200 186 201 215
f 201 187 202 216
f 202 188 203 217
f 203 189 204 218
f 204 191 206 219
f 206 205 220 221
f 193 207 222 208
f 194 208 223 209
f 195 209 224 210
f 196 210 225 211
f 197 211 226 212
f 198 212 227 213
f 205 213 228 220
f 207 199 214 222
f 214 200 215 229
f 215 201 216 230
f 216 202 217 231
f 217 203 218 232
f 218 204 219 233
f 219 206 221 234
f 221 220 235 236
f 208 222 237 223
f 209 223 238 224
f 210 224 239 225
f 211 225 240 226
f 212 226 241 227
f 213 227 242 228
f 220 228 243 235
f 222 214 229 237
f 229 215 230 244
f 230 216 231 245
f 231 217 232 246
f 232 218 233 247
f 233 219 234 248
f 234 221 236 249
f 236 235 250 251
f 223 237 252 238
f 224 238 253 239
f 225 239 254 240
f 226 240 255 241
f 227 241 256 242
f 228 242 257 243
f 235 243 258 250
f 237 229 244 252
f 244 230 245 259
f 245 231 246 260
f 246 232 247 261
f 247 233 248 262
f 248 234 249 263
f 249 236 251 264
f 251 250 265 266
f 238 252 267 253
f 239 253 268 254
f 240 254 269 255
f 241 255 270 256
f 242 256 271 257
f 243 257 272 258
f 250 258 273 265
f 252 244 259 267
f 259 245 260 274
f 260 246 261 275
f 261 247 262 276
f 262 248 263 277
f 263 249 264 278
f 264 251 266 279
f 266 265 280 281
f 253 267 282 268
f 254 268 283 269
f 255 269 284 270
f 256 270 285 271
f 257 271 286 272
f 258 272 287 273
f 265 273 288 280
f 267 259 274 282
f 274 260 275 289
f 275 261 276 290
f 276 262 277 291
f 277 263 278 292
f 278 264 279 293
f 279 266 281 294
f 281 280 288 295 296 297 298 299 300 301 302 303 304 305 294
f 268 282 306 283
f 269 283 307 284
f 270 284 308 285
f 271 285 309 286
f 272 286 310 287
f 273 287 295 288
f 282 274 289 306
f 289 275 290 311
f 290 276 291 312
f 291 277 292 313
f 292 278 293 314
f 293 279 294 305
f 287 310 296 295
f 310 315 297 296
f 315 316 298 297
f 316 317 299 298
f 317 318 300 299
f 318 319 301 300
f 319 320 302 301
f 320 321 303 302
f 321 314 304 303
f 314 293 305 304
f 283 306 322 307
f 284 307 323 308
f 285 308 324 309
f 286 309 315 310
f 306 289 311 322
f 311 290 312 325
f 312 291 313 326
f 313 292 314 321
f 309 324 316 315
f 324 327 317 316
f 327 328 318 317
f 328 329 319 318
f 329 326 320 319
f 326 313 321 320
f 307 322 330 323
f 308 323 327 324
f 322 311 325 330
f 325 312 326 329
f 323 330 328 327
f 330 325 329 328
f 341 333 3
f 2 332 336
f 336 332 331 335 4 5
f 6 338 342
f 347 339 7
f 335 334 333 341 8 4
f 342 338 337 336 5 9
f 12 344 348
f 353 345 13
f 341 340 339 347 14 8
f 348 344 343 342 9 16
f 20 350 354
f 359 351 21
f 347 346 345 353 22 14
f 354 350 349 348 16 25
f 30 356 360
f 365 357 31
f 353 352 351 359 32 22
f 360 356 355 354 25 36
f 42 362 366
f 371 363 43
f 359 358 357 365 44 32
f 366 362 361 360 36 49
f 56 368 372
f 375 369 57
f 365 364 363 371 58 44
f 372 368 367 366 49 64
f 57 374 375
f 375 374 373 372 64 72
f 371 370 369 375 72 58
f 4 8 377 376
f 8 14 378 377
f 14 22 379 378
f 22 32 380 379
f 32 44 381 380
f 44 58 382 381
f 58 72 383 382
f 72 64 384 383
f 64 49 385 384
f 49 36 386 385
f 36 25 387 386
f 25 16 388 387
f 16 9 389 388
f 9 5 390 389
f 5 4 376 390
f 331 332 392 391
f 332 2 393 392
f 2 337 394 393
f 337 338 395 394
f 338 6 396 395
f 6 343 397 396
f 343 344 398 397
f 344 12 399 398
f 12 349 400 399
f 349 350 401 400
f 350 20 402 401
f 20 355 403 402
f 355 356 404 403
f 356 30 405 404
f 30 361 406 405
f 361 362 407 406
f 362 42 408 407
f 42 367 409 408
f 367 368 410 409
f 368 56 411 410
f 56 373 412 411
f 373 374 413 412
f 374 57 414 413
f 57 369 415 414
f 369 370 416 415
f 370 43 417 416
f 43 363 418 417
f 363 364 419 418
f 364 31 420 419
f 31 357 421 420
f 357 358 422 421
f 358 21 423 422
f 21 351 424 423
f 351 352 425 424
f 352 13 426 425
f 13 345 427 426
f 345 346 428 427
f 346 7 429 428
f 7 339 430 429
f 339 340 431 430
f 340 3 432 431
f 3 333 433 432
f 333 334 434 433
f 334 1 435 434
f 1 331 391 435
f 392 393 394 395 396 397 398 399 400 401 402 403 404 405 406 407 408 409 410 411 412 413 414 415 416 417 418 419 420 421 422 423 424 425 426 427 428 429 430 431 432 433 434 435 391
f 436 437 448 447
f 437 438 449 448
f 438 439 450 449
f 439 440 451 450
f 440 441 452 451
f 441 442 453 452
f 442 443 454 453
f 443 444 455 454
f 444 445 456 455
f 445 446 457 456
f 446 436 447 457
f 447 448 459 458
f 448 449 460 459
f 449 450 461 460
f 450 451 462 461
f 451 452 463 462
f 452 453 464 463
f 453 454 465 464
f 454 455 466 465
f 455 456 467 466
f 456 457 468 467
f 457 447 458 468
f 458 459 470 469
f 459 460 471 470
f 460 461 472 471
f 461 462 473 472
f 462 463 474 473
f 463 464 475 474
f 464 465 476 475
f 465 466 477 476
f 466 467 478 477
f 467 468 479 478
f 468 458 469 479
f 469 470 481 480
f 470 471 482 481
f 471 472 483 482
f 472 473 484 483
f 473 474 485 484
f 474 475 486 485
f 475 476 487 486
f 476 477 488 487
f 477 478 489 488
f 478 479 490 489
f 479 469 480 490
f 480 481 492 491
f 481 482 493 492
f 482 483 494 493
f 483 484 495 494
f 484 485 496 495
f 485 486 497 496
f 486 487 498 497
f 487 488 499 498
f 488 489 500 499
f 489 490 501 500
f 490 480 491 501
f 491 492 503 502
f 492 493 504 503
f 493 494 505 504
f 494 495 506 505
f 495 496 507 506
f 496 497 508 507
f 497 498 509 508
f 498 499 510 509
f 499 500 511 510
f 500 501 512 511
f 501 491 502 512
f 502 503 513
f 503 504 513
f 504 505 513
f 505 506 513
f 506 507 513
f 507 508 513
f 508 509 513
f 509 510 513
f 510 511 513
f 511 512 513
f 512 502 513
f 437 436 514 515
f 438 437 515 516
f 439 438 516 517
f 440 439 517 518
f 441 440 518 519
f 442 441 519 520
f 443 442 520 521
f 444 443 521 522
f 445 444 522 523
f 446 445 523 524
f 436 446 524 514
f 515 514 525 526
f 516 515 526 527
f 517 516 527 528
f 518 517 528 529
f 519 518 529 530
f 520 519 530 531
f 521 520 531 532
f 522 521 532 533
f 523 522 533 534
f 524 523 534 535
f 514 524 535 525
f 526 525 536 537
f 527 526 537 538
f 528 527 538 539
f 529 528 539 540
f 530 529 540 541
f 531 530 541 542
f 532 531 542 543
f 533 532 543 544
f 534 533 544 545
f 535 534 545 546
f 525 535 546 536
f 537 536 547 548
f 538 537 548 549
f 539 538 549 550
f 540 539 550 551
f 541 540 551 552
f 542 541 552 553
f 543 542 553 554
f 544 543 554 555
f 545 544 555 556
f 546 545 556 557
f 536 546 557 547
f 548 547 558 559
f 549 548 559 560
f 550 549 560 561
f 551 550 561 562
f 552 551 562 563
f 553 552 563 564
f 554 553 564 565
f 555 554 565 566
f 556 555 566 567
f 557 556 567 568
f 547 557 568 558
