v 0.269693 0.587841 -0.121529
v 0.196665 0.587841 -0.222044
v 0.0890664 0.587841 -0.284166
v -0.0344966 0.587841 -0.297153
v -0.152659 0.587841 -0.25876
v -0.24499 0.587841 -0.175624
v -0.295525 0.587841 -0.062122
v -0.295525 0.587841 0.0621218
v -0.24499 0.587841 0.175624
v -0.152659 0.587841 0.25876
v -0.0344966 0.587841 0.297153
v 0.0890664 0.587841 0.284166
v 0.196665 0.587841 0.222044
v 0.269693 0.587841 0.121529
v 0.295525 0.587841 -0
v 0.302456 0.575847 -0.136292
v 0.220556 0.575847 -0.249018
v 0.0998862 0.575847 -0.318686
v -0.0386874 0.575847 -0.333251
v -0.171204 0.575847 -0.290194
v -0.274752 0.575847 -0.196959
v -0.331425 0.575847 -0.0696684
v -0.331425 0.575847 0.0696684
v -0.274752 0.575847 0.196959
v -0.171204 0.575847 0.290194
v -0.0386874 0.575847 0.333251
v 0.0998862 0.575847 0.318686
v 0.220556 0.575847 0.249018
v 0.302456 0.575847 0.136292
v 0.331426 0.575847 -0
v 0.302456 0.469126 -0.136292
v 0.220556 0.469126 -0.249018
v 0.0998862 0.469126 -0.318686
v -0.0386874 0.469126 -0.333251
v -0.171204 0.469126 -0.290194
v -0.274752 0.469126 -0.196959
v -0.331425 0.469126 -0.0696684
v -0.331425 0.469126 0.0696684
v -0.274752 0.469126 0.196959
v -0.171204 0.469126 0.290194
v -0.0386874 0.469126 0.333251
v 0.0998862 0.469126 0.318686
v 0.220556 0.469126 0.249018
v 0.302456 0.469126 0.136292
v 0.331426 0.469126 -0
v 0.340244 0.382722 -0.15332
v 0.248112 0.382722 -0.28013
v 0.112366 0.382722 -0.358503
v -0.0435209 0.382722 -0.374887
v -0.192594 0.382722 -0.32645
v -0.309079 0.382722 -0.221567
v -0.372834 0.382722 -0.0783727
v -0.372834 0.382722 0.0783727
v -0.309079 0.382722 0.221567
v -0.192594 0.382722 0.32645
v -0.0435209 0.382722 0.374887
v 0.112366 0.382722 0.358503
v 0.248111 0.382722 0.28013
v 0.340244 0.382722 0.15332
v 0.372834 0.382722 -0
v 0.384691 0.324708 -0.173349
v 0.280523 0.324708 -0.316724
v 0.127045 0.324708 -0.405335
v -0.0492063 0.324708 -0.42386
v -0.217754 0.324708 -0.369096
v -0.349455 0.324708 -0.250511
v -0.421538 0.324708 -0.0886108
v -0.421538 0.324708 0.0886108
v -0.349455 0.324708 0.250511
v -0.217754 0.324708 0.369096
v -0.0492063 0.324708 0.42386
v 0.127045 0.324708 0.405335
v 0.280523 0.324708 0.316724
v 0.384691 0.324708 0.173349
v 0.421538 0.324708 -0
v 0.444746 0.274435 -0.200411
v 0.324316 0.274435 -0.366168
v 0.146878 0.274435 -0.468613
v -0.0568878 0.274435 -0.490029
v -0.251748 0.274435 -0.426716
v -0.404009 0.274435 -0.289618
v -0.487345 0.274435 -0.102444
v -0.487345 0.274435 0.102444
v -0.404009 0.274435 0.289618
v -0.251748 0.274435 0.426716
v -0.0568878 0.274435 0.490029
v 0.146878 0.274435 0.468613
v 0.324316 0.274435 0.366169
v 0.444746 0.274435 0.200411
v 0.487345 0.274435 -0
v 0.456295 0.217023 -0.205615
v 0.332738 0.217023 -0.375677
v 0.150692 0.217023 -0.480781
v -0.0583649 0.217023 -0.502754
v -0.258285 0.217023 -0.437796
v -0.4145 0.217023 -0.297139
v -0.5 0.217023 -0.105104
v -0.5 0.217023 0.105104
v -0.4145 0.217023 0.297139
v -0.258285 0.217023 0.437796
v -0.0583649 0.217023 0.502754
v 0.150692 0.217023 0.480781
v 0.332738 0.217023 0.375677
v 0.456295 0.217023 0.205615
v 0.5 0.217023 -0
v 0.456295 0.184711 -0.205615
v 0.332738 0.184711 -0.375677
v 0.150692 0.184711 -0.480781
v -0.0583649 0.184711 -0.502754
v -0.258285 0.184711 -0.437796
v -0.4145 0.184711 -0.297139
v -0.5 0.184711 -0.105104
v -0.5 0.184711 0.105104
v -0.4145 0.184711 0.297139
v -0.258285 0.184711 0.437796
v -0.0583649 0.184711 0.502754
v 0.150692 0.184711 0.480781
v 0.332738 0.184711 0.375677
v 0.456295 0.184711 0.205615
v 0.5 0.184711 -0
v 0.423961 0.127296 -0.191044
v 0.309159 0.127296 -0.349055
v 0.140014 0.127296 -0.446712
v -0.0542291 0.127296 -0.467128
v -0.239982 0.127296 -0.406773
v -0.385128 0.127296 -0.276083
v -0.464569 0.127296 -0.0976562
v -0.464569 0.127296 0.0976562
v -0.385128 0.127296 0.276083
v -0.239982 0.127296 0.406773
v -0.0542291 0.127296 0.467128
v 0.140013 0.127296 0.446712
v 0.309159 0.127296 0.349056
v 0.423961 0.127296 0.191044
v 0.464569 0.127296 -0
v 0.455904 0.0954057 -0.205439
v 0.332453 0.0954057 -0.375355
v 0.150563 0.0954057 -0.48037
v -0.058315 0.0954057 -0.502324
v -0.258064 0.0954057 -0.437421
v -0.414145 0.0954057 -0.296885
v -0.499572 0.0954057 -0.105014
v -0.499572 0.0954057 0.105014
v -0.414145 0.0954057 0.296885
v -0.258064 0.0954057 0.437421
v -0.058315 0.0954057 0.502324
v 0.150563 0.0954057 0.48037
v 0.332453 0.0954057 0.375355
v 0.455904 0.0954057 0.205439
v 0.499572 0.0954057 -0
v 0.451344 3.63288e-08 -0.203384
v 0.329127 3.63288e-08 -0.3716
v 0.149057 3.63288e-08 -0.475565
v -0.0577318 3.63288e-08 -0.497299
v -0.255482 3.63288e-08 -0.433046
v -0.410003 3.63288e-08 -0.293915
v -0.494575 3.63288e-08 -0.103964
v -0.494575 3.63288e-08 0.103964
v -0.410003 3.63288e-08 0.293915
v -0.255482 3.63288e-08 0.433046
v -0.0577318 3.63288e-08 0.497299
v 0.149057 3.63288e-08 0.475565
v 0.329127 3.63288e-08 0.371601
v 0.451344 3.63288e-08 0.203384
v 0.494575 3.63288e-08 -0
v 0.293146 0.615167 -0.132097
v 0.213767 0.615167 -0.241353
v 0.0968118 0.615167 -0.308877
v -0.0374964 0.615167 -0.322994
v -0.165935 0.615167 -0.281262
v -0.266295 0.615167 -0.190896
v -0.321224 0.615167 -0.0675241
v -0.321224 0.615167 0.0675241
v -0.266295 0.615167 0.190896
v -0.165935 0.615167 0.281261
v -0.0374964 0.615167 0.322994
v 0.0968118 0.615167 0.308877
v 0.213767 0.615167 0.241353
v 0.293146 0.615167 0.132097
v 0.321224 0.615167 -0
v 0.293146 0.640068 -0.132097
v 0.213767 0.640068 -0.241353
v 0.0968118 0.640068 -0.308877
v -0.0374964 0.640068 -0.322994
v -0.165935 0.640068 -0.281262
v -0.266295 0.640068 -0.190896
v -0.321224 0.640068 -0.0675241
v -0.321224 0.640068 0.0675241
v -0.266295 0.640068 0.190896
v -0.165935 0.640068 0.281261
v -0.0374964 0.640068 0.322994
v 0.0968118 0.640068 0.308877
v 0.213767 0.640068 0.241353
v 0.293146 0.640068 0.132097
v 0.321224 0.640068 -0
v 0.275577 0.666991 -0.12418
v 0.200955 0.666991 -0.226888
v 0.0910094 0.666991 -0.290365
v -0.0352491 0.666991 -0.303635
v -0.15599 0.666991 -0.264405
v -0.250335 0.666991 -0.179455
v -0.301972 0.666991 -0.063477
v -0.301972 0.666991 0.063477
v -0.250335 0.666991 0.179455
v -0.15599 0.666991 0.264404
v -0.0352493 0.666991 0.303635
v 0.0910094 0.666991 0.290365
v 0.200955 0.666991 0.226888
v 0.275577 0.666991 0.12418
v 0.301972 0.666991 -0
v 0.262769 0.666991 -0.118409
v 0.191616 0.666991 -0.216343
v 0.08678 0.666991 -0.276871
v -0.033611 0.666991 -0.289524
v -0.14874 0.666991 -0.252117
v -0.238701 0.666991 -0.171115
v -0.287938 0.666991 -0.0605271
v -0.287938 0.666991 0.0605271
v -0.238701 0.666991 0.171115
v -0.14874 0.666991 0.252117
v -0.033611 0.666991 0.289524
v 0.0867798 0.666991 0.276871
v 0.191616 0.666991 0.216344
v 0.262769 0.666991 0.118409
v 0.287938 0.666991 -0
v 0.246847 0.935507 -0.111234
v 0.180004 0.935507 -0.203234
v 0.0815214 0.935507 -0.260093
v -0.0315742 0.935507 -0.27198
v -0.139727 0.935507 -0.236839
v -0.224237 0.935507 -0.160746
v -0.27049 0.935507 -0.0568594
v -0.27049 0.935507 0.0568594
v -0.224237 0.935507 0.160746
v -0.139727 0.935507 0.236839
v -0.0315742 0.935507 0.27198
v 0.0815214 0.935507 0.260093
v 0.180004 0.935507 0.203234
v 0.246847 0.935507 0.111234
v 0.27049 0.935507 -0
v 0.246847 1.13614 -0.111234
v 0.180004 1.13614 -0.203234
v 0.0815214 1.13614 -0.260093
v -0.0315742 1.13614 -0.27198
v -0.139727 1.13614 -0.236839
v -0.224237 1.13614 -0.160746
v -0.27049 1.13614 -0.0568594
v -0.27049 1.13614 0.0568594
v -0.224237 1.13614 0.160746
v -0.139727 1.13614 0.236839
v -0.0315742 1.13614 0.27198
v 0.0815214 1.13614 0.260093
v 0.180004 1.13614 0.203234
v 0.246847 1.13614 0.111234
v 0.27049 1.13614 -0
v 0.249117 1.26978 -0.112257
v 0.18166 1.26978 -0.205103
v 0.0822712 1.26978 -0.262486
v -0.0318647 1.26978 -0.274482
v -0.141012 1.26978 -0.239018
v -0.226299 1.26978 -0.162225
v -0.272978 1.26978 -0.0573823
v -0.272978 1.26978 0.0573823
v -0.226299 1.26978 0.162225
v -0.141012 1.26978 0.239018
v -0.0318647 1.26978 0.274482
v 0.0822712 1.26978 0.262486
v 0.18166 1.26978 0.205103
v 0.249117 1.26978 0.112257
v 0.272978 1.26978 -0
v 0.260379 1.27831 -0.117331
v 0.189873 1.27831 -0.214375
v 0.0859904 1.27831 -0.274352
v -0.0333052 1.27831 -0.28689
v -0.147387 1.27831 -0.249823
v -0.236529 1.27831 -0.169558
v -0.285318 1.27831 -0.0599763
v -0.285318 1.27831 0.0599763
v -0.236529 1.27831 0.169558
v -0.147387 1.27831 0.249823
v -0.0333052 1.27831 0.28689
v 0.0859904 1.27831 0.274352
v 0.189873 1.27831 0.214375
v 0.260379 1.27831 0.117331
v 0.285319 1.27831 -0
v 0.273011 1.30387 -0.123024
v 0.199084 1.30387 -0.224775
v 0.0901621 1.30387 -0.287662
v -0.034921 1.30387 -0.300808
v -0.154537 1.30387 -0.261943
v -0.248004 1.30387 -0.177784
v -0.29916 1.30387 -0.0628861
v -0.29916 1.30387 0.0628861
v -0.248004 1.30387 0.177784
v -0.154537 1.30387 0.261943
v -0.034921 1.30387 0.300808
v 0.0901621 1.30387 0.287662
v 0.199084 1.30387 0.224775
v 0.273011 1.30387 0.123024
v 0.29916 1.30387 -0
v 0.273011 1.35486 -0.123024
v 0.199084 1.35486 -0.224775
v 0.0901621 1.35486 -0.287662
v -0.034921 1.35486 -0.300808
v -0.154537 1.35486 -0.261943
v -0.248004 1.35486 -0.177784
v -0.29916 1.35486 -0.0628861
v -0.29916 1.35486 0.0628861
v -0.248004 1.35486 0.177784
v -0.154537 1.35486 0.261943
v -0.034921 1.35486 0.300808
v 0.0901621 1.35486 0.287662
v 0.199084 1.35486 0.224775
v 0.273011 1.35486 0.123024
v 0.29916 1.35486 -0
v 0.296738 1.36743 -0.133716
v 0.216386 1.36743 -0.244311
v 0.0979983 1.36743 -0.312662
v -0.037956 1.36743 -0.326952
v -0.167968 1.36743 -0.284708
v -0.269558 1.36743 -0.193236
v -0.325161 1.36743 -0.0683516
v -0.325161 1.36743 0.0683514
v -0.269558 1.36743 0.193236
v -0.167968 1.36743 0.284708
v -0.037956 1.36743 0.326952
v 0.097998 1.36743 0.312662
v 0.216386 1.36743 0.244311
v 0.296738 1.36743 0.133716
v 0.325161 1.36743 -0
v 0.302354 1.39497 -0.136246
v 0.220482 1.39497 -0.248934
v 0.0998527 1.39497 -0.31858
v -0.0386744 1.39497 -0.333139
v -0.171147 1.39497 -0.290097
v -0.27466 1.39497 -0.196893
v -0.331315 1.39497 -0.0696452
v -0.331315 1.39497 0.0696452
v -0.27466 1.39497 0.196893
v -0.171147 1.39497 0.290097
v -0.0386744 1.39497 0.333139
v 0.0998527 1.39497 0.31858
v 0.220482 1.39497 0.248935
v 0.302354 1.39497 0.136246
v 0.331315 1.39497 -0
v 0.298063 1.45903 -0.134313
v 0.217353 1.45903 -0.245401
v 0.0984357 1.45903 -0.314058
v -0.0381254 1.45903 -0.328411
v -0.168718 1.45903 -0.28598
v -0.270762 1.45903 -0.194099
v -0.326613 1.45903 -0.0686567
v -0.326613 1.45903 0.0686567
v -0.270762 1.45903 0.194099
v -0.168718 1.45903 0.28598
v -0.0381254 1.45903 0.328412
v 0.0984357 1.45903 0.314058
v 0.217353 1.45903 0.245402
v 0.298063 1.45903 0.134313
v 0.326613 1.45903 -0
v 0.306644 1.47288 -0.13818
v 0.22361 1.47288 -0.252466
v 0.10127 1.47288 -0.3231
v -0.039223 1.47288 -0.337866
v -0.173575 1.47288 -0.294213
v -0.278557 1.47288 -0.199686
v -0.336015 1.47288 -0.0706334
v -0.336015 1.47288 0.0706331
v -0.278557 1.47288 0.199686
v -0.173575 1.47288 0.294213
v -0.039223 1.47288 0.337866
v 0.10127 1.47288 0.3231
v 0.22361 1.47288 0.252467
v 0.306644 1.47288 0.13818
v 0.336015 1.47288 -0
v 0.306644 1.49888 -0.13818
v 0.22361 1.49888 -0.252466
v 0.10127 1.49888 -0.3231
v -0.039223 1.49888 -0.337866
v -0.173575 1.49888 -0.294213
v -0.278557 1.49888 -0.199686
v -0.336015 1.49888 -0.0706334
v -0.336015 1.49888 0.0706331
v -0.278557 1.49888 0.199686
v -0.173575 1.49888 0.294213
v -0.039223 1.49888 0.337866
v 0.10127 1.49888 0.3231
v 0.22361 1.49888 0.252467
v 0.306644 1.49888 0.13818
v 0.336015 1.49888 -0
v 0.299341 1.61348 -0.134889
v 0.218284 1.61348 -0.246454
v 0.0988578 1.61348 -0.315405
v -0.0382889 1.61348 -0.329819
v -0.169441 1.61348 -0.287206
v -0.271923 1.61348 -0.194931
v -0.328013 1.61348 -0.0689511
v -0.328013 1.61348 0.0689511
v -0.271923 1.61348 0.194931
v -0.169441 1.61348 0.287206
v -0.0382889 1.61348 0.329819
v 0.0988576 1.61348 0.315405
v 0.218284 1.61348 0.246454
v 0.299341 1.61348 0.134889
v 0.328013 1.61348 -0
v 0.240168 1.61348 -0.108224
v 0.175135 1.61348 -0.197735
v 0.0793158 1.61348 -0.253057
v -0.03072 1.61348 -0.264622
v -0.135947 1.61348 -0.230432
v -0.21817 1.61348 -0.156398
v -0.263172 1.61348 -0.0553212
v -0.263172 1.61348 0.0553209
v -0.21817 1.61348 0.156398
v -0.135947 1.61348 0.230432
v -0.03072 1.61348 0.264622
v 0.0793158 1.61348 0.253057
v 0.175135 1.61348 0.197736
v 0.240168 1.61348 0.108224
v 0.263172 1.61348 -0
v 0.211949 1.53568 -0.095508
v 0.154557 1.53568 -0.174502
v 0.0699963 1.53568 -0.223323
v -0.0271104 1.53568 -0.233529
v -0.119973 1.53568 -0.203356
v -0.192535 1.53568 -0.138021
v -0.23225 1.53568 -0.0488208
v -0.23225 1.53568 0.0488208
v -0.192535 1.53568 0.138021
v -0.119973 1.53568 0.203356
v -0.0271106 1.53568 0.233529
v 0.0699963 1.53568 0.223323
v 0.154557 1.53568 0.174502
v 0.211949 1.53568 0.095508
v 0.23225 1.53568 0
v 0.047534 1.51656 -0.151657
v 0.104958 1.51656 -0.118503
v -0.0184105 1.51656 -0.158588
v -0.0814729 1.51656 -0.138098
v -0.130749 1.51656 -0.093729
v -0.157719 1.51656 -0.0331538
v -0.157719 1.51656 0.0331538
v -0.130749 1.51656 0.093729
v -0.0814729 1.51656 0.138098
v -0.0184105 1.51656 0.158588
v 0.047534 1.51656 0.151657
v 0.104958 1.51656 0.118503
v 0.143933 1.51656 0.0648588
v 0.157719 1.51656 0
v 0.143933 1.51656 -0.0648588
v 0.0196103 1.50561 -0.0625659
v 0.0433005 1.50561 -0.0488884
v -0.00759537 1.50561 -0.0654256
v -0.0336117 1.50561 -0.0569723
v -0.0539408 1.50561 -0.0386679
v -0.0650671 1.50561 -0.0136776
v -0.0650671 1.50561 0.0136778
v -0.0539408 1.50561 0.0386679
v -0.0336117 1.50561 0.0569723
v -0.00759537 1.50561 0.0654256
v 0.0196103 1.50561 0.0625662
v 0.0433005 1.50561 0.0488886
v 0.0593796 1.50561 0.0267575
v 0.0650671 1.50561 0
v 0.0593796 1.50561 -0.0267575
f 2 1 16 17
f 3 2 17 18
f 4 3 18 19
f 5 4 19 20
f 6 5 20 21
f 7 6 21 22
f 8 7 22 23
f 9 8 23 24
f 10 9 24 25
f 11 10 25 26
f 12 11 26 27
f 13 12 27 28
f 14 13 28 29
f 15 14 29 30
f 1 15 30 16
f 17 16 31 32
f 18 17 32 33
f 19 18 33 34
f 20 19 34 35
f 21 20 35 36
f 22 21 36 37
f 23 22 37 38
f 24 23 38 39
f 25 24 39 40
f 26 25 40 41
f 27 26 41 42
f 28 27 42 43
f 29 28 43 44
f 30 29 44 45
f 16 30 45 31
f 32 31 46 47
f 33 32 47 48
f 34 33 48 49
f 35 34 49 50
f 36 35 50 51
f 37 36 51 52
f 38 37 52 53
f 39 38 53 54
f 40 39 54 55
f 41 40 55 56
f 42 41 56 57
f 43 42 57 58
f 44 43 58 59
f 45 44 59 60
f 31 45 60 46
f 47 46 61 62
f 48 47 62 63
f 49 48 63 64
f 50 49 64 65
f 51 50 65 66
f 52 51 66 67
f 53 52 67 68
f 54 53 68 69
f 55 54 69 70
f 56 55 70 71
f 57 56 71 72
f 58 57 72 73
f 59 58 73 74
f 60 59 74 75
f 46 60 75 61
f 62 61 76 77
f 63 62 77 78
f 64 63 78 79
f 65 64 79 80
f 66 65 80 81
f 67 66 81 82
f 68 67 82 83
f 69 68 83 84
f 70 69 84 85
f 71 70 85 86
f 72 71 86 87
f 73 72 87 88
f 74 73 88 89
f 75 74 89 90
f 61 75 90 76
f 77 76 91 92
f 78 77 92 93
f 79 78 93 94
f 80 79 94 95
f 81 80 95 96
f 82 81 96 97
f 83 82 97 98
f 84 83 98 99
f 85 84 99 100
f 86 85 100 101
f 87 86 101 102
f 88 87 102 103
f 89 88 103 104
f 90 89 104 105
f 76 90 105 91
f 92 91 106 107
f 93 92 107 108
f 94 93 108 109
f 95 94 109 110
f 96 95 110 111
f 97 96 111 112
f 98 97 112 113
f 99 98 113 114
f 100 99 114 115
f 101 100 115 116
f 102 101 116 117
f 103 102 117 118
f 104 103 118 119
f 105 104 119 120
f 91 105 120 106
f 107 106 121 122
f 108 107 122 123
f 109 108 123 124
f 110 109 124 125
f 111 110 125 126
f 112 111 126 127
f 113 112 127 128
f 114 113 128 129
f 115 114 129 130
f 116 115 130 131
f 117 116 131 132
f 118 117 132 133
f 119 118 133 134
f 120 119 134 135
f 106 120 135 121
f 122 121 136 137
f 123 122 137 138
f 124 123 138 139
f 125 124 139 140
f 126 125 140 141
f 127 126 141 142
f 128 127 142 143
f 129 128 143 144
f 130 129 144 145
f 131 130 145 146
f 132 131 146 147
f 133 132 147 148
f 134 133 148 149
f 135 134 149 150
f 121 135 150 136
f 137 136 151 152
f 138 137 152 153
f 139 138 153 154
f 140 139 154 155
f 141 140 155 156
f 142 141 156 157
f 143 142 157 158
f 144 143 158 159
f 145 144 159 160
f 146 145 160 161
f 147 146 161 162
f 148 147 162 163
f 149 148 163 164
f 150 149 164 165
f 136 150 165 151
f 152 151 165 164 163 162 161 160 159 158 157 156 155 154 153
f 1 2 167 166
f 2 3 168 167
f 3 4 169 168
f 4 5 170 169
f 5 6 171 170
f 6 7 172 171
f 7 8 173 172
f 8 9 174 173
f 9 10 175 174
f 10 11 176 175
f 11 12 177 176
f 12 13 178 177
f 13 14 179 178
f 14 15 180 179
f 15 1 166 180
f 166 167 182 181
f 167 168 183 182
f 168 169 184 183
f 169 170 185 184
f 170 171 186 185
f 171 172 187 186
f 172 173 188 187
f 173 174 189 188
f 174 175 190 189
f 175 176 191 190
f 176 177 192 191
f 177 178 193 192
f 178 179 194 193
f 179 180 195 194
f 180 166 181 195
f 181 182 197 196
f 182 183 198 197
f 183 184 199 198
f 184 185 200 199
f 185 186 201 200
f 186 187 202 201
f 187 188 203 202
f 188 189 204 203
f 189 190 205 204
f 190 191 206 205
f 191 192 207 206
f 192 193 208 207
f 193 194 209 208
f 194 195 210 209
f 195 181 196 210
f 196 197 212 211
f 197 198 213 212
f 198 199 214 213
f 199 200 215 214
f 200 201 216 215
f 201 202 217 216
f 202 203 218 217
f 203 204 219 218
f 204 205 220 219
f 205 206 221 220
f 206 207 222 221
f 207 208 223 222
f 208 209 224 223
f 209 210 225 224
f 210 196 211 225
f 211 212 227 226
f 212 213 228 227
f 213 214 229 228
f 214 215 230 229
f 215 216 231 230
f 216 217 232 231
f 217 218 233 232
f 218 219 234 233
f 219 220 235 234
f 220 221 236 235
f 221 222 237 236
f 222 223 238 237
f 223 224 239 238
f 224 225 240 239
f 225 211 226 240
f 226 227 242 241
f 227 228 243 242
f 228 229 244 243
f 229 230 245 244
f 230 231 246 245
f 231 232 247 246
f 232 233 248 247
f 233 234 249 248
f 234 235 250 249
f 235 236 251 250
f 236 237 252 251
f 237 238 253 252
f 238 239 254 253
f 239 240 255 254
f 240 226 241 255
f 241 242 257 256
f 242 243 258 257
f 243 244 259 258
f 244 245 260 259
f 245 246 261 260
f 246 247 262 261
f 247 248 263 262
f 248 249 264 263
f 249 250 265 264
f 250 251 266 265
f 251 252 267 266
f 252 253 268 267
f 253 254 269 268
f 254 255 270 269
f 255 241 256 270
f 256 257 272 271
f 257 258 273 272
f 258 259 274 273
f 259 260 275 274
f 260 261 276 275
f 261 262 277 276
f 262 263 278 277
f 263 264 279 278
f 264 265 280 279
f 265 266 281 280
f 266 267 282 281
f 267 268 283 282
f 268 269 284 283
f 269 270 285 284
f 270 256 271 285
f 271 272 287 286
f 272 273 288 287
f 273 274 289 288
f 274 275 290 289
f 275 276 291 290
f 276 277 292 291
f 277 278 293 292
f 278 279 294 293
f 279 280 295 294
f 280 281 296 295
f 281 282 297 296
f 282 283 298 297
f 283 284 299 298
f 284 285 300 299
f 285 271 286 300
f 286 287 302 301
f 287 288 303 302
f 288 289 304 303
f 289 290 305 304
f 290 291 306 305
f 291 292 307 306
f 292 293 308 307
f 293 294 309 308
f 294 295 310 309
f 295 296 311 310
f 296 297 312 311
f 297 298 313 312
f 298 299 314 313
f 299 300 315 314
f 300 286 301 315
f 301 302 317 316
f 302 303 318 317
f 303 304 319 318
f 304 305 320 319
f 305 306 321 320
f 306 307 322 321
f 307 308 323 322
f 308 309 324 323
f 309 310 325 324
f 310 311 326 325
f 311 312 327 326
f 312 313 328 327
f 313 314 329 328
f 314 315 330 329
f 315 301 316 330
f 316 317 332 331
f 317 318 333 332
f 318 319 334 333
f 319 320 335 334
f 320 321 336 335
f 321 322 337 336
f 322 323 338 337
f 323 324 339 338
f 324 325 340 339
f 325 326 341 340
f 326 327 342 341
f 327 328 343 342
f 328 329 344 343
f 329 330 345 344
f 330 316 331 345
f 331 332 347 346
f 332 333 348 347
f 333 334 349 348
f 334 335 350 349
f 335 336 351 350
f 336 337 352 351
f 337 338 353 352
f 338 339 354 353
f 339 340 355 354
f 340 341 356 355
f 341 342 357 356
f 342 343 358 357
f 343 344 359 358
f 344 345 360 359
f 345 331 346 360
f 346 347 362 361
f 347 348 363 362
f 348 349 364 363
f 349 350 365 364
f 350 351 366 365
f 351 352 367 366
f 352 353 368 367
f 353 354 369 368
f 354 355 370 369
f 355 356 371 370
f 356 357 372 371
f 357 358 373 372
f 358 359 374 373
f 359 360 375 374
f 360 346 361 375
f 361 362 377 376
f 362 363 378 377
f 363 364 379 378
f 364 365 380 379
f 365 366 381 380
f 366 367 382 381
f 367 368 383 382
f 368 369 384 383
f 369 370 385 384
f 370 371 386 385
f 371 372 387 386
f 372 373 388 387
f 373 374 389 388
f 374 375 390 389
f 375 361 376 390
f 376 377 392 391
f 378 379 394 393
f 379 380 395 394
f 381 382 397 396
f 382 383 398 397
f 384 385 400 399
f 385 386 401 400
f 387 388 403 402
f 388 389 404 403
f 390 376 391 405
f 391 392 407 406
f 393 394 409 408
f 394 395 410 409
f 396 397 412 411
f 397 398 413 412
f 399 400 415 414
f 400 401 416 415
f 402 403 418 417
f 403 404 419 418
f 405 391 406 420
f 406 407 422 421
f 408 409 424 423
f 409 410 425 424
f 411 412 427 426
f 412 413 428 427
f 414 415 430 429
f 415 416 431 430
f 417 418 433 432
f 418 419 434 433
f 420 406 421 435
f 401 386 431 416
f 398 383 428 413
f 395 380 425 410
f 392 377 422 407
f 404 389 434 419
f 387 402 417 432
f 390 405 420 435
f 384 399 414 429
f 381 396 411 426
f 378 393 408 423
f 378 423 422 377
f 426 425 380 381
f 429 428 383 384
f 432 431 386 387
f 435 434 389 390
f 452 451 453 454 455 456 457 458 459 460 461 462 463 464 465
f 422 423 436 437
f 423 424 438 436
f 424 425 439 438
f 425 426 440 439
f 426 427 441 440
f 427 428 442 441
f 428 429 443 442
f 429 430 444 443
f 430 431 445 444
f 431 432 446 445
f 432 433 447 446
f 433 434 448 447
f 434 435 449 448
f 435 421 450 449
f 421 422 437 450
f 437 436 451 452
f 436 438 453 451
f 438 439 454 453
f 439 440 455 454
f 440 441 456 455
f 441 442 457 456
f 442 443 458 457
f 443 444 459 458
f 444 445 460 459
f 445 446 461 460
f 446 447 462 461
f 447 448 463 462
f 448 449 464 463
f 449 450 465 464
f 450 437 452 465
