v 0.12766 0.4773 -0.0578503
v 0.0582375 0.4773 -0.105698
v -0.018833 0.4773 -0.135269
v -0.128616 0.4773 -0.141451
v -0.233602 0.4773 -0.123175
v -0.315636 0.4773 -0.083601
v -0.399183 0.4773 -0.0295714
v -0.399183 0.4773 0.0295714
v -0.315636 0.4773 0.083601
v -0.233602 0.4773 0.123175
v -0.128617 0.4773 0.141451
v -0.018833 0.4773 0.135269
v 0.0582375 0.4773 0.105698
v 0.12766 0.4773 0.0578505
v 0.150611 0.4773 -0
v 0.123999 0.382449 -0.0685064
v 0.060721 0.382449 -0.125167
v -0.0139834 0.382449 -0.160186
v -0.121049 0.382449 -0.167507
v -0.223436 0.382449 -0.145864
v -0.30344 0.382449 -0.0990001
v -0.450278 0.399499 -0.0350184
v -0.450278 0.399499 0.0350184
v -0.30344 0.382449 0.0990001
v -0.223436 0.382449 0.145864
v -0.121049 0.382449 0.167507
v -0.0139834 0.382449 0.160186
v 0.060721 0.382449 0.125167
v 0.123999 0.382449 0.0685064
v 0.146382 0.382449 -0
v 0.184021 0.305654 -0.0920812
v 0.109507 0.305654 -0.168241
v -0.000279922 0.305654 -0.21531
v -0.126357 0.305654 -0.22515
v -0.246923 0.305654 -0.19606
v -0.341133 0.305654 -0.133069
v -0.392696 0.305654 -0.0470692
v -0.392696 0.305654 0.0470692
v -0.341133 0.305654 0.133069
v -0.246923 0.305654 0.19606
v -0.126357 0.305654 0.22515
v -0.000280284 0.305654 0.21531
v 0.109507 0.305654 0.168241
v 0.184021 0.305654 0.0920812
v 0.210379 0.305654 -0
v 0.223398 0.265508 -0.141745
v 0.138221 0.265508 -0.25898
v 0.012724 0.265508 -0.331436
v -0.131393 0.265508 -0.346583
v -0.269212 0.265508 -0.301803
v -0.376902 0.265508 -0.204839
v -0.435843 0.265508 -0.0724556
v -0.435843 0.265508 0.0724556
v -0.376902 0.265508 0.204839
v -0.269212 0.265508 0.301803
v -0.131393 0.265508 0.346583
v 0.012724 0.265508 0.331436
v 0.138221 0.265508 0.25898
v 0.223398 0.265508 0.141745
v 0.253526 0.265508 -0
v 0.272503 0.224401 -0.163872
v 0.17403 0.224401 -0.29941
v 0.0289413 0.224401 -0.383177
v -0.137674 0.224401 -0.400689
v -0.297008 0.224401 -0.348918
v -0.42151 0.224401 -0.236816
v -0.489652 0.224401 -0.0837667
v -0.489652 0.224401 0.0837667
v -0.42151 0.224401 0.236816
v -0.297008 0.224401 0.348918
v -0.137675 0.224401 0.400689
v 0.0289413 0.224401 0.383177
v 0.17403 0.224401 0.29941
v 0.272503 0.224401 0.163872
v 0.307336 0.224401 -0
v 0.281947 0.177456 -0.168128
v 0.180916 0.177456 -0.307185
v 0.0320599 0.177456 -0.393127
v -0.138883 0.177456 -0.411094
v -0.302354 0.177456 -0.357979
v -0.430088 0.177456 -0.242966
v -0.5 0.177456 -0.0859419
v -0.5 0.177456 0.0859419
v -0.430088 0.177456 0.242965
v -0.302354 0.177456 0.357979
v -0.138883 0.177456 0.411094
v 0.0320599 0.177456 0.393127
v 0.180916 0.177456 0.307185
v 0.281947 0.177456 0.168128
v 0.317683 0.177456 -0
v 0.281947 0.151035 -0.168128
v 0.180916 0.151035 -0.307185
v 0.0320599 0.151035 -0.393127
v -0.138883 0.151035 -0.411094
v -0.302354 0.151035 -0.357979
v -0.430088 0.151035 -0.242966
v -0.5 0.151035 -0.0859419
v -0.5 0.151035 0.0859419
v -0.430088 0.151035 0.242965
v -0.302354 0.151035 0.357979
v -0.138883 0.151035 0.411094
v 0.0320599 0.151035 0.393127
v 0.180916 0.151035 0.307185
v 0.281947 0.151035 0.168128
v 0.317683 0.151035 -0
v 0.255507 0.104088 -0.156214
v 0.161636 0.104088 -0.285417
v 0.0233284 0.104088 -0.365269
v -0.135501 0.104088 -0.381962
v -0.287388 0.104088 -0.332612
v -0.406071 0.104088 -0.225748
v -0.471028 0.104088 -0.0798519
v -0.471028 0.104088 0.0798519
v -0.406071 0.104088 0.225748
v -0.287388 0.104088 0.332612
v -0.135501 0.104088 0.381962
v 0.0233284 0.104088 0.365269
v 0.161636 0.104088 0.285417
v 0.255507 0.104088 0.156214
v 0.288712 0.104088 -0
v 0.281627 0.0780118 -0.167984
v 0.180683 0.0780118 -0.306922
v 0.0319545 0.0780118 -0.39279
v -0.138842 0.0780118 -0.410742
v -0.302173 0.0780118 -0.357672
v -0.429798 0.0780118 -0.242758
v -0.49965 0.0780118 -0.0858685
v -0.49965 0.0780118 0.0858683
v -0.429798 0.0780118 0.242758
v -0.302173 0.0780118 0.357672
v -0.138842 0.0780118 0.410742
v 0.0319542 0.0780118 0.39279
v 0.180683 0.0780118 0.306922
v 0.281627 0.0780118 0.167984
v 0.317333 0.0780118 -0
v 0.277898 1.74166e-08 -0.166304
v 0.177964 1.74166e-08 -0.303852
v 0.030723 1.74166e-08 -0.388861
v -0.138365 1.74166e-08 -0.406633
v -0.300062 1.74166e-08 -0.354095
v -0.426411 1.74166e-08 -0.24033
v -0.495564 1.74166e-08 -0.0850095
v -0.495564 1.74166e-08 0.0850094
v -0.426411 1.74166e-08 0.240329
v -0.300062 1.74166e-08 0.354094
v -0.138365 1.74166e-08 0.406633
v 0.030723 1.74166e-08 0.388861
v 0.177964 1.74166e-08 0.303852
v 0.277898 1.74166e-08 0.166304
v 0.313247 1.74166e-08 -0
v 0.150011 0.593903 -0.0497815
v 0.085185 0.593899 -0.0908754
v -0.0191198 0.593902 -0.116746
v -0.128858 0.593897 -0.123455
v -0.235531 0.593796 -0.109959
v -0.322582 0.593454 -0.0774883
v -0.373878 0.59299 -0.0283789
v -0.373878 0.59299 0.0283789
v -0.322582 0.593454 0.0774882
v -0.235531 0.593796 0.109959
v -0.128859 0.593897 0.123455
v -0.0191198 0.593902 0.116746
v 0.085185 0.593899 0.0908756
v 0.150011 0.593903 0.0497815
v 0.173084 0.593906 0
v -0.100769 0.874302 -0.0388076
v -0.156761 0.863118 -0.0708426
v -0.217631 0.87707 -0.0910105
v -0.287824 0.893149 -0.09624
v -0.356077 0.908685 -0.0857192
v -0.411834 0.92111 -0.0604065
v -0.444748 0.928176 -0.0221229
v -0.444748 0.928176 0.0221229
v -0.411834 0.92111 0.0604065
v -0.356077 0.908685 0.0857192
v -0.287824 0.893149 0.09624
v -0.217631 0.87707 0.0910105
v -0.156761 0.863118 0.0708428
v -0.100769 0.874302 0.0388076
v -0.0596118 0.859344 0
v 0.289517 0.839639 -0.036236
v 0.125563 0.922588 -0.0661484
v -0.226977 1.00714 -0.0849799
v -0.299061 1.03438 -0.0898629
v -0.351894 1.04638 -0.0800391
v -0.395067 1.05593 -0.0564037
v -0.420566 1.06129 -0.020657
v -0.420566 1.06129 0.020657
v -0.395067 1.05593 0.0564037
v -0.351894 1.04638 0.0800391
v -0.299061 1.03438 0.0898629
v -0.226977 1.00714 0.0849799
v 0.125563 0.922588 0.0661484
v 0.289517 0.839639 0.036236
v 0.294054 0.835181 0
v 0.338166 0.942186 -0.036236
v -0.096203 1.18621 -0.0661484
v -0.143316 1.19701 -0.0650791
v -0.197646 1.20946 -0.0688185
v -0.250479 1.22146 -0.0612954
v -0.293652 1.231 -0.043195
v -0.319151 1.23637 -0.0158195
v -0.319151 1.23637 0.0158195
v -0.293652 1.231 0.043195
v -0.250479 1.22146 0.0612954
v -0.197646 1.20946 0.0688187
v -0.143316 1.19701 0.0650791
v -0.096203 1.18621 0.0661484
v 0.338166 0.942186 0.036236
v 0.349589 0.939572 0
v 0.181199 1.10068 -0.036236
v 0.144323 1.14985 -0.0337025
v 0.158775 1.23051 -0.0247542
v -0.0601789 1.28712 -0.0393455
v -0.114318 1.28503 -0.0350442
v -0.158489 1.28307 -0.0246959
v -0.184508 1.28165 -0.00904442
v -0.184508 1.28165 0.00904442
v -0.158489 1.28307 0.0246959
v -0.114318 1.28503 0.0350442
v -0.0601789 1.28712 0.0393455
v 0.158775 1.23051 0.0247542
v 0.144323 1.14985 0.0337027
v 0.181199 1.10068 0.036236
v 0.26185 1.03726 0
v 0.5 1.49816 -0.0172423
v 0.499999 1.50968 -0.0160367
v 0.499999 1.50968 0.0160367
v 0.5 1.49816 0.0172423
v 0.499999 1.52857 -0.0117787
v 0.499999 1.52857 0.0117787
f 2 1 16 17
f 3 2 17 18
f 4 3 18 19
f 5 4 19 20
f 6 5 20 21
f 7 6 21 22
f 8 7 22 23
f 9 8 23 24
f 10 9 24 25
f 11 10 25 26
f 12 11 26 27
f 13 12 27 28
f 14 13 28 29
f 15 14 29 30
f 1 15 30 16
f 17 16 31 32
f 18 17 32 33
f 19 18 33 34
f 20 19 34 35
f 21 20 35 36
f 22 21 36 37
f 23 22 37 38
f 24 23 38 39
f 25 24 39 40
f 26 25 40 41
f 27 26 41 42
f 28 27 42 43
f 29 28 43 44
f 30 29 44 45
f 16 30 45 31
f 32 31 46 47
f 33 32 47 48
f 34 33 48 49
f 35 34 49 50
f 36 35 50 51
f 37 36 51 52
f 38 37 52 53
f 39 38 53 54
f 40 39 54 55
f 41 40 55 56
f 42 41 56 57
f 43 42 57 58
f 44 43 58 59
f 45 44 59 60
f 31 45 60 46
f 47 46 61 62
f 48 47 62 63
f 49 48 63 64
f 50 49 64 65
f 51 50 65 66
f 52 51 66 67
f 53 52 67 68
f 54 53 68 69
f 55 54 69 70
f 56 55 70 71
f 57 56 71 72
f 58 57 72 73
f 59 58 73 74
f 60 59 74 75
f 46 60 75 61
f 62 61 76 77
f 63 62 77 78
f 64 63 78 79
f 65 64 79 80
f 66 65 80 81
f 67 66 81 82
f 68 67 82 83
f 69 68 83 84
f 70 69 84 85
f 71 70 85 86
f 72 71 86 87
f 73 72 87 88
f 74 73 88 89
f 75 74 89 90
f 61 75 90 76
f 77 76 91 92
f 78 77 92 93
f 79 78 93 94
f 80 79 94 95
f 81 80 95 96
f 82 81 96 97
f 83 82 97 98
f 84 83 98 99
f 85 84 99 100
f 86 85 100 101
f 87 86 101 102
f 88 87 102 103
f 89 88 103 104
f 90 89 104 105
f 76 90 105 91
f 92 91 106 107
f 93 92 107 108
f 94 93 108 109
f 95 94 109 110
f 96 95 110 111
f 97 96 111 112
f 98 97 112 113
f 99 98 113 114
f 100 99 114 115
f 101 100 115 116
f 102 101 116 117
f 103 102 117 118
f 104 103 118 119
f 105 104 119 120
f 91 105 120 106
f 107 106 121 122
f 108 107 122 123
f 109 108 123 124
f 110 109 124 125
f 111 110 125 126
f 112 111 126 127
f 113 112 127 128
f 114 113 128 129
f 115 114 129 130
f 116 115 130 131
f 117 116 131 132
f 118 117 132 133
f 119 118 133 134
f 120 119 134 135
f 106 120 135 121
f 122 121 136 137
f 123 122 137 138
f 124 123 138 139
f 125 124 139 140
f 126 125 140 141
f 127 126 141 142
f 128 127 142 143
f 129 128 143 144
f 130 129 144 145
f 131 130 145 146
f 132 131 146 147
f 133 132 147 148
f 134 133 148 149
f 135 134 149 150
f 121 135 150 136
f 137 136 150 149 148 147 146 145 144 143 142 141 140 139 138
f 1 2 152 151
f 2 3 153 152
f 3 4 154 153
f 4 5 155 154
f 5 6 156 155
f 6 7 157 156
f 7 8 158 157
f 8 9 159 158
f 9 10 160 159
f 10 11 161 160
f 11 12 162 161
f 12 13 163 162
f 13 14 164 163
f 14 15 165 164
f 15 1 151 165
f 151 152 167 166
f 152 153 168 167
f 153 154 169 168
f 154 155 170 169
f 155 156 171 170
f 156 157 172 171
f 157 158 173 172
f 158 159 174 173
f 159 160 175 174
f 160 161 176 175
f 161 162 177 176
f 162 163 178 177
f 163 164 179 178
f 164 165 180 179
f 165 151 166 180
f 166 167 182 181
f 167 168 183 182
f 168 169 184 183
f 169 170 185 184
f 170 171 186 185
f 171 172 187 186
f 172 173 188 187
f 173 174 189 188
f 174 175 190 189
f 175 176 191 190
f 176 177 192 191
f 177 178 193 192
f 178 179 194 193
f 179 180 195 194
f 180 166 181 195
f 181 182 197 196
f 182 183 198 197
f 183 184 199 198
f 184 185 200 199
f 185 186 201 200
f 186 187 202 201
f 187 188 203 202
f 188 189 204 203
f 189 190 205 204
f 190 191 206 205
f 191 192 207 206
f 192 193 208 207
f 193 194 209 208
f 194 195 210 209
f 195 181 196 210
f 196 197 212 211
f 197 198 213 212
f 198 199 214 213
f 199 200 215 214
f 200 201 216 215
f 201 202 217 216
f 202 203 218 217
f 203 204 219 218
f 204 205 220 219
f 205 206 221 220
f 206 207 222 221
f 207 208 223 222
f 208 209 224 223
f 209 210 225 224
f 210 196 211 225
f 213 214 221 222
f 226 227 228 229
f 215 216 219 220
f 230 231 228 227
f 215 220 221 214
f 217 218 219 216
f 225 211 224
f 211 212 227 226
f 223 224 229 228
f 224 211 226 229
f 213 222 231 230
f 222 223 228 231
f 212 213 230 227
